<svg xmlns="http://www.w3.org/2000/svg" viewBox="0 0 500 500"><g id="freepik--background-simple--inject-40"><path d="M409.36,102.64l-2.1-3.45c-17.63-29.06-49.52-46.58-83.13-44.45a87.17,87.17,0,0,0-12.87,1.77c-30.57,6.54-57.16,29.65-68.19,59.25-6.48,17.41-8.29,37.46-20.59,51.28-16,18-43.2,18.55-67.1,17.8s-51.1-.11-67,17.95c-10,11.3-13.15,27.38-12.34,42.53,2.13,40.09,30.06,75.94,65.59,93.76S219,358.49,257.84,350.65c54.47-11,106.27-41.13,137.41-87.71S434.27,152.91,409.36,102.64Z" style="fill:#f5f5f5"></path></g><g id="freepik--Plants--inject-40"><polygon points="461.49 454.61 465.9 436.13 472.82 453.3 470.79 452.7 475.8 462.96 472.94 462.01 476.39 468.69 460.89 468.69 462.2 462.48 460.89 464.27 463.76 453.45 461.49 454.61" style="fill:#455a64"></polygon><polygon points="406.7 441.21 415.32 405.12 428.82 438.65 424.87 437.48 434.65 457.51 429.06 455.65 435.81 468.69 405.54 468.69 408.1 456.58 405.54 460.07 411.14 438.94 406.7 441.21" style="fill:#455a64"></polygon><polygon points="45.4 441.21 54.02 405.12 67.53 438.65 63.57 437.48 73.35 457.51 67.76 455.65 74.51 468.69 44.24 468.69 46.8 456.58 44.24 460.07 49.84 438.94 45.4 441.21" style="fill:#455a64"></polygon></g><g id="freepik--Floor--inject-40"><path d="M468.64,468.85c0,.15-97.89.26-218.63.26S31.36,469,31.36,468.85s97.87-.26,218.65-.26S468.64,468.71,468.64,468.85Z" style="fill:#263238"></path></g><g id="freepik--Birds--inject-40"><path d="M346.83,142s-.7-.24-2-.52a15.68,15.68,0,0,0-5.56-.22,15,15,0,0,0-7.48,3.23,15.56,15.56,0,0,0-5.28,8.38l0,.09-.15.6-.23-.56a16.75,16.75,0,0,0-6.33-7.64,16.08,16.08,0,0,0-7.72-2.57,17,17,0,0,0-5.51.5c-1.28.34-1.95.63-2,.6a1.83,1.83,0,0,1,.48-.24,12.72,12.72,0,0,1,1.44-.51A16.46,16.46,0,0,1,320,145.05a16.91,16.91,0,0,1,6.49,7.79l-.38,0,0-.1a15.82,15.82,0,0,1,5.44-8.58,15,15,0,0,1,7.68-3.22,15.25,15.25,0,0,1,5.62.34,11.27,11.27,0,0,1,1.47.47Z" style="fill:#263238"></path><path d="M398.47,111.94s-.39-.11-1.1-.26a9.06,9.06,0,0,0-3-.09,8.25,8.25,0,0,0-4.07,1.78,8.47,8.47,0,0,0-2.87,4.57v0l-.16.6L387,118a9.09,9.09,0,0,0-3.43-4.16,8.92,8.92,0,0,0-4.21-1.43,9.84,9.84,0,0,0-3,.25c-.7.17-1.07.33-1.09.29a.94.94,0,0,1,.26-.14,6.48,6.48,0,0,1,.79-.3,9.05,9.05,0,0,1,7.47,1,9.34,9.34,0,0,1,3.61,4.33l-.39,0,0-.05a8.73,8.73,0,0,1,3-4.77,8.41,8.41,0,0,1,7.37-1.55,5,5,0,0,1,.81.27A1.21,1.21,0,0,1,398.47,111.94Z" style="fill:#263238"></path><path d="M356.26,84.16s-.38.43-1.07,1.21a26.78,26.78,0,0,0-2.6,3.52,25.55,25.55,0,0,0-3.87,13.68v.18l-.4,0a22.57,22.57,0,0,0-2.5-7.41,23.23,23.23,0,0,0-7.12-8c-.84-.59-1.33-.88-1.31-.91a1.71,1.71,0,0,1,.37.18,10.86,10.86,0,0,1,1,.6A20,20,0,0,1,342.21,90a22.69,22.69,0,0,1,6.51,12.7l-.4,0v-.17a25.2,25.2,0,0,1,4-13.85,23.4,23.4,0,0,1,2.73-3.47c.35-.38.66-.64.86-.83A1.47,1.47,0,0,1,356.26,84.16Z" style="fill:#263238"></path></g><g id="freepik--Castle--inject-40"><polygon points="356.22 258.69 356.22 267.77 352.75 267.77 352.75 258.69 343.5 258.69 343.5 267.77 339.04 267.77 339.04 258.69 329.8 258.69 329.8 267.77 323.85 267.77 323.85 258.69 314.6 258.69 314.6 267.77 308.65 267.77 308.65 258.69 299.4 258.69 299.4 267.77 293.45 267.77 293.45 258.69 284.2 258.69 284.2 267.77 278.25 267.77 278.25 258.69 269 258.69 269 267.77 263.06 267.77 263.06 258.69 253.81 258.69 253.81 267.77 247.86 267.77 247.86 258.69 238.61 258.69 238.61 267.77 232.66 267.77 232.66 258.69 223.41 258.69 223.41 267.77 217.46 267.77 217.46 258.69 208.21 258.69 208.21 267.77 202.26 267.77 202.26 258.69 193.01 258.69 193.01 267.77 187.07 267.77 187.07 258.69 177.82 258.69 177.82 267.77 171.87 267.77 171.87 258.69 162.62 258.69 162.62 267.77 156.67 267.77 156.67 258.69 147.42 258.69 147.42 267.94 147.71 267.94 167.62 288.02 167.62 358.03 344.9 358.03 344.9 288.18 345.06 288.18 365.3 267.94 365.47 267.94 365.47 258.69 356.22 258.69" style="fill:#7E57C2"></polygon><polygon points="356.22 258.69 356.22 267.77 352.75 267.77 352.75 258.69 343.5 258.69 343.5 267.77 339.04 267.77 339.04 258.69 329.8 258.69 329.8 267.77 323.85 267.77 323.85 258.69 314.6 258.69 314.6 267.77 308.65 267.77 308.65 258.69 299.4 258.69 299.4 267.77 293.45 267.77 293.45 258.69 284.2 258.69 284.2 267.77 278.25 267.77 278.25 258.69 269 258.69 269 267.77 263.06 267.77 263.06 258.69 253.81 258.69 253.81 267.77 247.86 267.77 247.86 258.69 238.61 258.69 238.61 267.77 232.66 267.77 232.66 258.69 223.41 258.69 223.41 267.77 217.46 267.77 217.46 258.69 208.21 258.69 208.21 267.77 202.26 267.77 202.26 258.69 193.01 258.69 193.01 267.77 187.07 267.77 187.07 258.69 177.82 258.69 177.82 267.77 171.87 267.77 171.87 258.69 162.62 258.69 162.62 267.77 156.67 267.77 156.67 258.69 147.42 258.69 147.42 267.94 147.71 267.94 167.62 288.02 167.62 358.03 344.9 358.03 344.9 288.18 345.06 288.18 365.3 267.94 365.47 267.94 365.47 258.69 356.22 258.69" style="fill:#fff;opacity:0.7000000000000001"></polygon><polygon points="356.22 258.69 356.22 267.77 352.75 267.77 352.75 258.69 343.5 258.69 343.5 267.77 339.04 267.77 339.04 258.69 329.8 258.69 329.8 267.77 323.85 267.77 323.85 258.69 314.6 258.69 314.6 267.77 308.65 267.77 308.65 258.69 299.4 258.69 299.4 267.77 293.45 267.77 293.45 258.69 284.2 258.69 284.2 267.77 278.25 267.77 278.25 258.69 269 258.69 269 267.77 263.06 267.77 263.06 258.69 253.81 258.69 253.81 267.77 247.86 267.77 247.86 258.69 238.61 258.69 238.61 267.77 232.66 267.77 232.66 258.69 223.41 258.69 223.41 267.77 217.46 267.77 217.46 258.69 208.21 258.69 208.21 267.77 202.26 267.77 202.26 258.69 193.01 258.69 193.01 267.77 187.07 267.77 187.07 258.69 177.82 258.69 177.82 267.77 171.87 267.77 171.87 258.69 162.62 258.69 162.62 267.77 156.67 267.77 156.67 258.69 147.42 258.69 147.42 267.94 147.71 267.94 167.62 288.02 167.62 358.03 344.9 358.03 344.9 288.18 345.06 288.18 365.3 267.94 365.47 267.94 365.47 258.69 356.22 258.69" style="fill:#7E57C2"></polygon><polygon points="356.22 258.69 356.22 267.77 352.75 267.77 352.75 258.69 343.5 258.69 343.5 267.77 339.04 267.77 339.04 258.69 329.8 258.69 329.8 267.77 323.85 267.77 323.85 258.69 314.6 258.69 314.6 267.77 308.65 267.77 308.65 258.69 299.4 258.69 299.4 267.77 293.45 267.77 293.45 258.69 284.2 258.69 284.2 267.77 278.25 267.77 278.25 258.69 269 258.69 269 267.77 263.06 267.77 263.06 258.69 253.81 258.69 253.81 267.77 247.86 267.77 247.86 258.69 238.61 258.69 238.61 267.77 232.66 267.77 232.66 258.69 223.41 258.69 223.41 267.77 217.46 267.77 217.46 258.69 208.21 258.69 208.21 267.77 202.26 267.77 202.26 258.69 193.01 258.69 193.01 267.77 187.07 267.77 187.07 258.69 177.82 258.69 177.82 267.77 171.87 267.77 171.87 258.69 162.62 258.69 162.62 267.77 156.67 267.77 156.67 258.69 147.42 258.69 147.42 267.94 147.71 267.94 167.62 288.02 167.62 358.03 344.9 358.03 344.9 288.18 345.06 288.18 365.3 267.94 365.47 267.94 365.47 258.69 356.22 258.69" style="fill:#fff;opacity:0.7000000000000001"></polygon><path d="M188.77,306.05h1a4.68,4.68,0,0,1,4.68,4.68V330.5a0,0,0,0,1,0,0H184.09a0,0,0,0,1,0,0V310.73A4.68,4.68,0,0,1,188.77,306.05Z" style="fill:#263238"></path><path d="M216.19,306.05h1a4.68,4.68,0,0,1,4.68,4.68V330.5a0,0,0,0,1,0,0H211.52a0,0,0,0,1,0,0V310.73A4.68,4.68,0,0,1,216.19,306.05Z" style="fill:#263238"></path><path d="M242.85,306.05h1a4.68,4.68,0,0,1,4.68,4.68V330.5a0,0,0,0,1,0,0H238.18a0,0,0,0,1,0,0V310.73A4.68,4.68,0,0,1,242.85,306.05Z" style="fill:#263238"></path><path d="M270.28,306.05h1a4.68,4.68,0,0,1,4.68,4.68V330.5a0,0,0,0,1,0,0H265.6a0,0,0,0,1,0,0V310.73A4.68,4.68,0,0,1,270.28,306.05Z" style="fill:#263238"></path><path d="M297.7,306.05h1a4.68,4.68,0,0,1,4.68,4.68V330.5a0,0,0,0,1,0,0H293a0,0,0,0,1,0,0V310.73A4.68,4.68,0,0,1,297.7,306.05Z" style="fill:#263238"></path><path d="M325.12,306.05h1a4.68,4.68,0,0,1,4.68,4.68V330.5a0,0,0,0,1,0,0H320.45a0,0,0,0,1,0,0V310.73a4.68,4.68,0,0,1,4.68-4.68Z" style="fill:#263238"></path><path d="M210.74,288.28a6.27,6.27,0,0,1-9.35,2.52,9.55,9.55,0,0,1-11.62,2.6c.26,4.53-4.86,8.46-9.16,7,.93,2.54-.36,5.43-2.27,7.35s-4.39,3.16-6.59,4.73-4.26,3.71-4.66,6.39l.53-30.89Z" style="fill:#455a64"></path><path d="M346.28,288.56c0,.15-40,.14-89.33,0s-89.33-.38-89.33-.53,40-.14,89.33,0S346.28,288.42,346.28,288.56Z" style="fill:#263238"></path><path d="M194.47,330.84a25.4,25.4,0,0,1-5.08.26,25.32,25.32,0,0,1-5.08-.26,24.46,24.46,0,0,1,5.08-.26A24.54,24.54,0,0,1,194.47,330.84Z" style="fill:#fff"></path><path d="M221.89,330.84a25.4,25.4,0,0,1-5.08.26,25.32,25.32,0,0,1-5.08-.26,24.46,24.46,0,0,1,5.08-.26A24.54,24.54,0,0,1,221.89,330.84Z" style="fill:#fff"></path><path d="M248.55,330.84a25.4,25.4,0,0,1-5.08.26,25.32,25.32,0,0,1-5.08-.26,24.46,24.46,0,0,1,5.08-.26A24.54,24.54,0,0,1,248.55,330.84Z" style="fill:#fff"></path><path d="M276,330.84a49.76,49.76,0,0,1-10.16,0,49.76,49.76,0,0,1,10.16,0Z" style="fill:#fff"></path><path d="M303.38,330.84a49.76,49.76,0,0,1-10.16,0,49.76,49.76,0,0,1,10.16,0Z" style="fill:#fff"></path><path d="M330.79,330.84a49.76,49.76,0,0,1-10.16,0,49.76,49.76,0,0,1,10.16,0Z" style="fill:#fff"></path><path d="M191.19,305.41a4.77,4.77,0,0,1-1.46.15,7.06,7.06,0,0,0-3.25.8,5.7,5.7,0,0,0-2.19,2.48,11.81,11.81,0,0,1-.58,1.32,2.61,2.61,0,0,1,.24-1.46,5.35,5.35,0,0,1,2.27-2.79,6.28,6.28,0,0,1,3.51-.72A3.75,3.75,0,0,1,191.19,305.41Z" style="fill:#fff"></path><path d="M217.87,305.39c0,.08-.49.1-1.25.19a9.13,9.13,0,0,0-2.85.76,5.46,5.46,0,0,0-2.18,1.88c-.42.63-.54,1.1-.62,1.08s-.07-.53.3-1.26a4.88,4.88,0,0,1,2.27-2.16,7.15,7.15,0,0,1,3.05-.66C217.39,305.22,217.87,305.32,217.87,305.39Z" style="fill:#fff"></path><path d="M244.83,305.39c0,.08-.48.1-1.25.19a9.08,9.08,0,0,0-2.84.76,5.57,5.57,0,0,0-2.19,1.88c-.41.63-.54,1.1-.62,1.08s-.06-.53.3-1.26a5,5,0,0,1,2.28-2.16,7.13,7.13,0,0,1,3.05-.66C244.36,305.22,244.84,305.32,244.83,305.39Z" style="fill:#fff"></path><path d="M272,305.37c0,.08-.49.1-1.26.19a9.13,9.13,0,0,0-2.84.77,5.55,5.55,0,0,0-2.19,1.87c-.41.63-.53,1.1-.62,1.08a1.94,1.94,0,0,1,.31-1.26,4.92,4.92,0,0,1,2.27-2.16,7.13,7.13,0,0,1,3.05-.66A2.72,2.72,0,0,1,272,305.37Z" style="fill:#fff"></path><path d="M258.42,358c1.65-6.78,9.46-12.32,16.4-11.62a9.45,9.45,0,0,1,15.24-7,6.94,6.94,0,0,1,12.31-.75c2.85-4.69,10.1-5.87,14.3-2.35A10.9,10.9,0,0,1,329,335.28a9.86,9.86,0,0,1,9.21-3.46,15.68,15.68,0,0,1,3.42-17.66c-3.52-5.51-2.53-13.12,3.26-16.15v60Z" style="fill:#455a64"></path><path d="M297.29,305.58c0,.08-.46.19-1.16.5a7.25,7.25,0,0,0-3.9,4.25c-.25.72-.31,1.21-.4,1.2s-.13-.5.05-1.3a6.28,6.28,0,0,1,4.12-4.49C296.78,305.5,297.28,305.52,297.29,305.58Z" style="fill:#fff"></path><path d="M324.73,306c0,.08-.47.12-1.16.34a6.29,6.29,0,0,0-2.39,1.41,6.36,6.36,0,0,0-1.55,2.31c-.26.68-.32,1.14-.41,1.13a2,2,0,0,1,.06-1.24,5.52,5.52,0,0,1,4.2-4C324.25,305.86,324.73,306,324.73,306Z" style="fill:#fff"></path><path d="M323.77,271.32c0,.14-37.48.26-83.71.26s-83.71-.12-83.71-.26,37.47-.26,83.71-.26S323.77,271.18,323.77,271.32Z" style="fill:#fff"></path><path d="M258,318.91a6.43,6.43,0,0,1-.1-1.22c0-.81-.08-2-.1-3.52V314H258c2.12,0,4.85-.06,7.83-.06l.26.26h0v2.43c0,.79,0,1.55,0,2.28v.25h-.24c-2.35,0-4.34-.08-5.72-.12a18.34,18.34,0,0,1-2.11-.12,20.59,20.59,0,0,1,2.27-.13c1.39,0,3.31-.1,5.56-.12l-.24.24c0-.73,0-1.49,0-2.28v-2.43h0l.26.26c-3,0-5.71,0-7.83-.05l.2-.21c0,1.41-.07,2.57-.11,3.39A9.24,9.24,0,0,1,258,318.91Z" style="fill:#263238"></path><path d="M260.92,323.56a6.39,6.39,0,0,1-.11-1.23c0-.82-.09-2-.11-3.5v-.22h.23l4.73,0c0-.06.5.49.26.26h0v2.48c0,.78,0,1.53,0,2.23v.23h-.23c-1.46,0-2.68-.08-3.5-.12a5,5,0,0,1-1.23-.11,11.91,11.91,0,0,1,1.38-.11c.83,0,2-.09,3.35-.11l-.22.22c0-.7,0-1.45,0-2.23v-2.48h0l.26.26-4.73,0,.23-.23c0,1.37-.07,2.52-.12,3.36A8,8,0,0,1,260.92,323.56Z" style="fill:#263238"></path><path d="M305.8,298a10.75,10.75,0,0,1-.09-1.33c0-.82-.07-2-.1-3.4l.19.18c-2.88.05-6.86.08-11.24.08l.26-.26h0v2.4c0,.79,0,1.56,0,2.3l-.25-.25c3.21,0,6,.07,8,.12l2.36.07a6,6,0,0,1,.9.06,3.68,3.68,0,0,1-.79.06l-2.3.07c-2,.05-4.83.1-8.15.12h-.25v-4.95h0l.26-.26c4.38,0,8.36,0,11.24.07H306v.19c0,1.5-.06,2.7-.1,3.52A8.08,8.08,0,0,1,305.8,298Z" style="fill:#263238"></path><path d="M340,283.74a12.69,12.69,0,0,1-.08-1.33c0-.82-.08-2-.1-3.4l.18.18c-2.88.05-6.85.08-11.23.08L329,279h0v2.42c0,.79,0,1.56,0,2.3l-.25-.25c3.21,0,6,.07,8,.12l2.36.06a6.53,6.53,0,0,1,.89.07,3.4,3.4,0,0,1-.78.06l-2.3.07c-2,.05-4.84.1-8.15.12h-.25v-.25c0-.74,0-1.51,0-2.3V279h0c-.06.05.49-.5.26-.27,4.38,0,8.35,0,11.23.08h.19V279c0,1.5-.07,2.7-.1,3.51A6.08,6.08,0,0,1,340,283.74Z" style="fill:#263238"></path><path d="M271.07,286.1a12.07,12.07,0,0,1-.08-1.32c0-.83-.08-2-.1-3.41l.18.19c-2.88,0-6.85.07-11.23.07-.24.23.31-.32.26-.26h0v1.21c0,.41,0,.81,0,1.21v2.29l-.25-.25c3.21,0,6,.07,8,.12l2.36.07a5.81,5.81,0,0,1,.89.06,3.51,3.51,0,0,1-.78.06l-2.3.07c-2,0-4.84.11-8.15.12h-.25v-5h0l.26-.26c4.38,0,8.35,0,11.23.08h.19v.18c0,1.5-.07,2.71-.1,3.52A6.88,6.88,0,0,1,271.07,286.1Z" style="fill:#263238"></path><path d="M264.33,281.36a10.45,10.45,0,0,1-.09-1.32c0-.83-.07-2-.1-3.41l.19.19c-2.88,0-6.85.07-11.24.07l.26-.26h0v4.71l-.25-.25c3.21,0,6,.07,8,.12l2.36.07a6,6,0,0,1,.9.06,3.63,3.63,0,0,1-.78.06l-2.31.07c-2,.05-4.83.11-8.15.12h-.25v-5h0l.26-.26c4.39,0,8.36,0,11.24.08h.19v.18c0,1.5-.06,2.71-.1,3.52A7.9,7.9,0,0,1,264.33,281.36Z" style="fill:#263238"></path><path d="M233.57,340.69a12.42,12.42,0,0,1-.08-1.33c0-.82-.08-2-.1-3.4l.18.18c-2.88.05-6.85.08-11.23.08-.24.23.31-.32.26-.26h0v1.21c0,.41,0,.81,0,1.2v2.3l-.25-.25c3.21,0,6,.07,8,.12l2.36.07a5.81,5.81,0,0,1,.89.06,3.51,3.51,0,0,1-.78.06l-2.3.07c-2,.05-4.84.1-8.15.12h-.25v-5h0l.26-.26c4.38,0,8.35,0,11.23.07h.19V336c0,1.5-.07,2.71-.1,3.52A6.88,6.88,0,0,1,233.57,340.69Z" style="fill:#263238"></path><path d="M211.35,320.58a10.79,10.79,0,0,1-.1-1.37c0-.83-.09-2-.12-3.37l.22.22-5.62,0c0,.06.5-.49.26-.26h0v2.47c0,.78,0,1.53,0,2.25l-.24-.24c1.63,0,3,.08,4,.12a11.69,11.69,0,0,1,1.63.12,8.25,8.25,0,0,1-1.48.11c-1,0-2.41.1-4.14.12h-.23v-.23c0-.72,0-1.47,0-2.25v-1.22c0-.21,0-.42,0-.63v-.62h0c-.23.24.32-.31.26-.26l5.62.05h.22v.21c0,1.48-.07,2.69-.11,3.51A5.7,5.7,0,0,1,211.35,320.58Z" style="fill:#263238"></path><path d="M273.55,129.44c-.37-1.73-22-65.21-22-65.21L230.3,129.44Z" style="fill:#7E57C2"></path><rect x="240.48" y="100.17" width="11.24" height="4.73" style="opacity:0.30000000000000004"></rect><path d="M255.5,100.19a12.42,12.42,0,0,1-.08-1.33c0-.82-.08-2-.1-3.4l.18.18c-2.88,0-6.85.08-11.23.08l.26-.26h0v2.41c0,.79,0,1.56,0,2.3l-.25-.25c3.21,0,6,.07,8,.12l2.36.07a5.81,5.81,0,0,1,.89.06,3.51,3.51,0,0,1-.78.06l-2.3.07c-2,.05-4.84.1-8.15.12H244v-.25c0-.74,0-1.51,0-2.3V95.48h0c-.06.05.49-.5.26-.26,4.38,0,8.35,0,11.23.07h.19v.18c0,1.5-.07,2.71-.1,3.52A6.88,6.88,0,0,1,255.5,100.19Z" style="fill:#263238"></path><rect x="234.4" y="147.99" width="37.55" height="63.8" style="fill:#7E57C2"></rect><path d="M224.66,129.44c0,.41,5.51,18.55,5.51,18.55h45l5.52-18.55Z" style="fill:#7E57C2"></path><rect x="224.66" y="119.64" width="9.8" height="9.8" style="fill:#7E57C2"></rect><rect x="238.31" y="119.64" width="9.8" height="9.8" style="fill:#7E57C2"></rect><rect x="256.24" y="119.64" width="9.8" height="9.8" style="fill:#7E57C2"></rect><rect x="270.53" y="119.64" width="9.8" height="9.8" style="fill:#7E57C2"></rect><g style="opacity:0.5"><rect x="234.4" y="147.99" width="37.55" height="63.8" style="fill:#fff"></rect><path d="M224.66,129.44c0,.41,5.51,18.55,5.51,18.55h45l5.52-18.55Z" style="fill:#fff"></path><rect x="224.66" y="119.64" width="9.8" height="9.8" style="fill:#fff"></rect><rect x="238.31" y="119.64" width="9.8" height="9.8" style="fill:#fff"></rect><rect x="256.24" y="119.64" width="9.8" height="9.8" style="fill:#fff"></rect><rect x="270.53" y="119.64" width="9.8" height="9.8" style="fill:#fff"></rect></g><path d="M252.73,158h1a4.68,4.68,0,0,1,4.68,4.68V182.5a0,0,0,0,1,0,0H248.06a0,0,0,0,1,0,0V162.72A4.68,4.68,0,0,1,252.73,158Z" style="fill:#263238"></path><path d="M272,189a4.36,4.36,0,0,1,.16-.62,11.11,11.11,0,0,0,.34-1.81,12.2,12.2,0,0,0-1.2-6.56,20.92,20.92,0,0,0-6.11-7.83c-2.95-2.38-6.95-3.81-11.2-4.84s-8.41-1.89-11.92-3.52a20.1,20.1,0,0,1-4.63-2.89,14,14,0,0,1-3-3.67,11.18,11.18,0,0,1-1.52-6.63,6.78,6.78,0,0,1,.7-2.42,14.33,14.33,0,0,0-.5,2.44,11.32,11.32,0,0,0,1.64,6.43,13.7,13.7,0,0,0,3,3.52,19.6,19.6,0,0,0,4.55,2.78c3.45,1.58,7.57,2.4,11.85,3.45a43.3,43.3,0,0,1,6.15,2,21.38,21.38,0,0,1,5.22,3,20.79,20.79,0,0,1,6.14,8,12,12,0,0,1,1.07,6.73,9.11,9.11,0,0,1-.44,1.82A2.26,2.26,0,0,1,272,189Z" style="fill:#455a64"></path><path d="M266.94,167c.14.07-.47,1.33-.55,3s.36,3,.21,3.05a5.56,5.56,0,0,1,.34-6.06Z" style="fill:#455a64"></path><path d="M238.89,165.34s.14-.23.57-.24a1.29,1.29,0,0,1,.72.23,1.21,1.21,0,0,1,.5.9,1.57,1.57,0,0,1-.45,1.16,1.62,1.62,0,0,1-1.36.46,2,2,0,0,1-1.37-.75,2.68,2.68,0,0,1-.58-1.55,2.86,2.86,0,0,1,.38-1.6,2.58,2.58,0,0,1,1.16-1,3.44,3.44,0,0,1,2.49-.1,5.18,5.18,0,0,1,1.46.77c.31.24.45.39.43.42a19.46,19.46,0,0,0-2-.83,3.22,3.22,0,0,0-2.18.17,2.16,2.16,0,0,0-1.23,2.14,1.85,1.85,0,0,0,1.49,1.85,1.18,1.18,0,0,0,1.38-1.12,1,1,0,0,0-.87-.95C239.1,165.25,238.91,165.38,238.89,165.34Z" style="fill:#455a64"></path><path d="M236.73,153.07a23,23,0,0,0-1.26,2.34c-.52,1.36-.39,2.58-.55,2.6a3.39,3.39,0,0,1,.06-2.78C235.52,153.71,236.66,153,236.73,153.07Z" style="fill:#455a64"></path><path d="M271.7,180.57c-.08,0-.23-.24-.64-.45a3.45,3.45,0,0,0-1.76-.39c-1.48,0-2.64.41-2.7.27a3.76,3.76,0,0,1,2.71-.79,3.81,3.81,0,0,1,1.13.16,2.94,2.94,0,0,1,.83.44C271.71,180.16,271.76,180.56,271.7,180.57Z" style="fill:#455a64"></path><path d="M259,183.5a33.49,33.49,0,0,1-5.84.26,33.49,33.49,0,0,1-5.84-.26,32.35,32.35,0,0,1,5.84-.26A32.35,32.35,0,0,1,259,183.5Z" style="fill:#fff"></path><path d="M253.17,157.16a9.25,9.25,0,0,0-1.81.16,5.42,5.42,0,0,0-3.23,2.7,9.65,9.65,0,0,0-.93,4.26,9.6,9.6,0,0,1-.06,1.87,5.11,5.11,0,0,1-.31-1.86,8.86,8.86,0,0,1,.83-4.51,5.39,5.39,0,0,1,3.61-2.81A2.58,2.58,0,0,1,253.17,157.16Z" style="fill:#fff"></path><path d="M273.84,148c0,.15-9.81.27-21.91.27S230,148.13,230,148s9.81-.26,21.92-.26S273.84,147.84,273.84,148Z" style="fill:#263238"></path><path d="M264.38,177.81a10.45,10.45,0,0,1-.09-1.32c0-.83-.07-2-.1-3.41l.19.19c-2.88,0-6.85.07-11.24.07-.23.24.32-.31.26-.26h0v4.71l-.25-.24c3.21,0,6,.07,8,.11l2.36.07a6,6,0,0,1,.9.06,2.6,2.6,0,0,1-.78.07l-2.31.07c-2,0-4.83.1-8.15.11h-.25v-.25c0-.73,0-1.5,0-2.29V173.1h0l.26-.26c4.39,0,8.36,0,11.24.08h.19v.18c0,1.51-.06,2.71-.1,3.52A7.9,7.9,0,0,1,264.38,177.81Z" style="fill:#263238"></path><path d="M261.17,152.93a12.07,12.07,0,0,1-.08-1.32c0-.83-.08-2-.1-3.41l.18.19c-2.88,0-6.85.07-11.23.07-.23.24.32-.31.26-.26h0v2.42c0,.79,0,1.56,0,2.29l-.25-.24c3.21,0,6,.06,8,.11l2.36.07a5.81,5.81,0,0,1,.89.06,3.65,3.65,0,0,1-.78.07l-2.3.06c-2,.05-4.84.11-8.15.12h-.25v-5h0l.26-.26c4.38,0,8.35,0,11.23.08h.19v.18c0,1.51-.07,2.71-.1,3.52A5.78,5.78,0,0,1,261.17,152.93Z" style="fill:#263238"></path><path d="M267.29,165.59a1.56,1.56,0,0,0-.43-.42.58.58,0,0,0-.57,0c-.3.19-.24.65-.06,1a.57.57,0,0,0,.46.31.88.88,0,0,0-.49.79.59.59,0,0,0,.64.57c.28,0,.46-.32.58-.58a1.42,1.42,0,0,0,.3.52.46.46,0,0,0,.56.09.57.57,0,0,0,.2-.3,1.88,1.88,0,0,0,0-.85c.41-.12.74-.27.69-.6a.59.59,0,0,0-.74-.45,1.22,1.22,0,0,0,.09-.65.59.59,0,0,0-.42-.48.63.63,0,0,0-.64.36,1.83,1.83,0,0,0-.15.77" style="fill:#7E57C2"></path><path d="M267.4,166.07a.27.27,0,0,1,.1-.06h0Z" style="fill:#fff"></path><path d="M267.9,166.12c-.13-.07-.26-.16-.4-.11a.34.34,0,0,0-.19.43.36.36,0,0,0,.48.16C268,166.48,268.1,166.22,267.9,166.12Z" style="fill:#fff"></path><path d="M266.53,179.19a1.44,1.44,0,0,0-.43-.42.58.58,0,0,0-.57,0c-.3.19-.24.65,0,.94a.53.53,0,0,0,.45.32.88.88,0,0,0-.49.79.59.59,0,0,0,.64.57.89.89,0,0,0,.59-.59,1.44,1.44,0,0,0,.29.53.48.48,0,0,0,.56.09.61.61,0,0,0,.2-.3,1.88,1.88,0,0,0,0-.85c.41-.12.74-.27.69-.6a.58.58,0,0,0-.74-.45,1.23,1.23,0,0,0,.09-.65.59.59,0,0,0-.42-.48.64.64,0,0,0-.64.36,1.8,1.8,0,0,0-.15.77" style="fill:#7E57C2"></path><path d="M266.65,179.67a.17.17,0,0,1,.1-.06h0Z" style="fill:#fff"></path><path d="M267.14,179.71c-.13-.06-.26-.15-.39-.1a.34.34,0,0,0-.2.43.36.36,0,0,0,.48.16C267.24,180.08,267.34,179.82,267.14,179.71Z" style="fill:#fff"></path><path d="M236.67,152.94a1.6,1.6,0,0,0-.43-.43.56.56,0,0,0-.57,0c-.29.18-.24.64,0,.94a.57.57,0,0,0,.45.32.88.88,0,0,0-.49.78.6.6,0,0,0,.64.58c.29-.05.47-.33.59-.59a1.33,1.33,0,0,0,.3.53.46.46,0,0,0,.55.09.54.54,0,0,0,.2-.31,1.88,1.88,0,0,0,0-.85c.41-.11.74-.27.69-.6a.59.59,0,0,0-.74-.45,1.2,1.2,0,0,0,.09-.65.57.57,0,0,0-.42-.47.63.63,0,0,0-.64.35,1.86,1.86,0,0,0-.15.77" style="fill:#7E57C2"></path><path d="M236.79,153.41a.33.33,0,0,1,.1-.06h0Z" style="fill:#fff"></path><path d="M237.28,153.46c-.13-.07-.26-.16-.39-.11a.34.34,0,0,0-.2.44.35.35,0,0,0,.48.15C237.38,153.83,237.48,153.56,237.28,153.46Z" style="fill:#fff"></path><path d="M251.61,30.07s-11.52,3.18-10.13-.33c.42-1.06,2.66-5.71-4.15-6.2s-17.53,1.3-17.53,1.3l5.68,1.25-5.68,2.64s14.93-1.13,17,0-3.32,5.64.25,7.42,14.52.44,14.52.44Z" style="fill:#7E57C2"></path><path d="M251.61,30.07s-11.52,3.18-10.13-.33c.42-1.06,2.66-5.71-4.15-6.2s-17.53,1.3-17.53,1.3l5.68,1.25-5.68,2.64s14.93-1.13,17,0-3.32,5.64.25,7.42,14.52.44,14.52.44Z" style="fill:#fff;opacity:0.30000000000000004"></path><path d="M251.61,29.86c.14,0,.26,7.75.26,17.3s-.12,17.3-.26,17.3-.26-7.75-.26-17.3S251.46,29.86,251.61,29.86Z" style="fill:#263238"></path><path d="M242.19,26.22a3,3,0,0,1,.08,1.77,6,6,0,0,1-2.16,3.67,15.13,15.13,0,0,0-1.67,1.54,3,3,0,0,0-.77,1.56,2.68,2.68,0,0,0,.35,1.58s-.19-.06-.38-.32a2.14,2.14,0,0,1-.34-1.29,3.23,3.23,0,0,1,.77-1.84,12.53,12.53,0,0,1,1.7-1.62,6.37,6.37,0,0,0,2.14-3.36C242.16,26.89,242.11,26.22,242.19,26.22Z" style="fill:#263238"></path><rect x="209.04" y="195.6" width="9.25" height="9.25" style="fill:#7E57C2"></rect><rect x="222" y="195.6" width="9.25" height="9.25" style="fill:#7E57C2"></rect><rect x="234.96" y="195.6" width="9.25" height="9.25" style="fill:#7E57C2"></rect><rect x="247.92" y="195.6" width="9.25" height="9.25" style="fill:#7E57C2"></rect><rect x="260.88" y="195.6" width="9.25" height="9.25" style="fill:#7E57C2"></rect><rect x="273.84" y="195.6" width="9.25" height="9.25" style="fill:#7E57C2"></rect><rect x="286.8" y="195.6" width="9.25" height="9.25" style="fill:#7E57C2"></rect><rect x="223.54" y="223.24" width="58.92" height="47.58" style="fill:#7E57C2"></rect><polygon points="209.04 204.33 218.51 223.24 286.68 223.24 296.44 204.71 209.04 204.33" style="fill:#7E57C2"></polygon><g style="opacity:0.6000000000000001"><rect x="209.04" y="195.6" width="9.25" height="9.25" style="fill:#fff"></rect><rect x="222" y="195.6" width="9.25" height="9.25" style="fill:#fff"></rect><rect x="234.96" y="195.6" width="9.25" height="9.25" style="fill:#fff"></rect><rect x="247.92" y="195.6" width="9.25" height="9.25" style="fill:#fff"></rect><rect x="260.88" y="195.6" width="9.25" height="9.25" style="fill:#fff"></rect><rect x="273.84" y="195.6" width="9.25" height="9.25" style="fill:#fff"></rect><rect x="286.8" y="195.6" width="9.25" height="9.25" style="fill:#fff"></rect><rect x="223.54" y="223.24" width="58.92" height="47.58" style="fill:#fff"></rect><polygon points="209.04 204.33 218.51 223.24 286.68 223.24 296.44 204.71 209.04 204.33" style="fill:#fff"></polygon></g><path d="M252.73,228.35h1a4.68,4.68,0,0,1,4.68,4.68V252.8a0,0,0,0,1,0,0H248.06a0,0,0,0,1,0,0V233A4.68,4.68,0,0,1,252.73,228.35Z" style="fill:#263238"></path><path d="M286.68,223.24c0,.15-15.33.24-34.24.21s-34.25-.16-34.25-.31,15.33-.23,34.25-.21S286.68,223.1,286.68,223.24Z" style="fill:#263238"></path><path d="M252.42,227.79a14.7,14.7,0,0,0-1.6.46,5.74,5.74,0,0,0-2.75,2.69,9.37,9.37,0,0,0-.81,3.88,9,9,0,0,1,0,1.69,4,4,0,0,1-.33-1.68,8.22,8.22,0,0,1,.72-4.11,5.53,5.53,0,0,1,3.08-2.82A2.52,2.52,0,0,1,252.42,227.79Z" style="fill:#fff"></path><path d="M283.71,198.87a3.23,3.23,0,0,1,.21.91,5.42,5.42,0,0,1-.37,2.62,8.84,8.84,0,0,1-2.44,3.42,42,42,0,0,1-4.49,3.27,142.1,142.1,0,0,1-12.41,7.38,164.24,164.24,0,0,1-16.07,7.35c-5.79,2.35-11.25,4.82-15.58,8.06a26.78,26.78,0,0,0-9.06,10.86,19.27,19.27,0,0,0-1.57,9.41,25,25,0,0,0,.68,3.48.74.74,0,0,1-.09-.21c-.07-.18-.14-.39-.23-.65a14.49,14.49,0,0,1-.56-2.6,19,19,0,0,1,1.43-9.58,27,27,0,0,1,9.11-11.09c4.37-3.31,9.88-5.81,15.67-8.17A167.77,167.77,0,0,0,264,216.05c4.8-2.51,9-5,12.42-7.27a40.76,40.76,0,0,0,4.5-3.18,8.72,8.72,0,0,0,2.45-3.27,5.79,5.79,0,0,0,.46-2.55C283.78,199.19,283.69,198.88,283.71,198.87Z" style="fill:#455a64"></path><path d="M279,214.39a38.53,38.53,0,0,0-6.74-.4,38.7,38.7,0,0,0-6.62,1.32,5.85,5.85,0,0,1,1.82-.86,17.75,17.75,0,0,1,4.77-1,18.52,18.52,0,0,1,4.85.31A5.81,5.81,0,0,1,279,214.39Z" style="fill:#455a64"></path><path d="M217.55,242.3a1.89,1.89,0,0,1-.16-1.62,2.36,2.36,0,0,1,1.13-1.45,2.11,2.11,0,0,1,2.25.08,4.86,4.86,0,0,1,1.45,1.66,6.45,6.45,0,0,1,.7,1.62,2.09,2.09,0,0,1,0,1.62,8.88,8.88,0,0,0-.32-1.51,7.73,7.73,0,0,0-.76-1.48,4.89,4.89,0,0,0-1.32-1.48,1.71,1.71,0,0,0-1.74-.09,2.08,2.08,0,0,0-1,1.14A6.24,6.24,0,0,0,217.55,242.3Z" style="fill:#455a64"></path><path d="M234.39,236.48c0,.05-.28.06-.62.38a1.42,1.42,0,0,0-.31,1.7,1.68,1.68,0,0,0,2.36.56,2.43,2.43,0,0,0,.81-3,3.9,3.9,0,0,0-2.6-2.19,5.45,5.45,0,0,0-2.9,0,18.3,18.3,0,0,0-2.55,1.11s.17-.22.57-.51a7.5,7.5,0,0,1,1.88-.95,5.5,5.5,0,0,1,3.13-.14,4.3,4.3,0,0,1,3,2.46,3.28,3.28,0,0,1,.14,2.07,2.61,2.61,0,0,1-1.19,1.55,2.12,2.12,0,0,1-1.76.21,2,2,0,0,1-1.17-1,1.62,1.62,0,0,1-.06-1.27,1.79,1.79,0,0,1,.57-.76C234.07,236.39,234.4,236.46,234.39,236.48Z" style="fill:#455a64"></path><path d="M251.78,214a2.48,2.48,0,0,1,.79,1.52,5.81,5.81,0,0,1-.72,4.06,13.22,13.22,0,0,1-2.56,3.22,4.45,4.45,0,0,1-1.37,1c-.13-.12,1.93-1.77,3.48-4.47a6.22,6.22,0,0,0,.81-3.76C252.07,214.54,251.7,214,251.78,214Z" style="fill:#455a64"></path><path d="M277.66,244.27a10.45,10.45,0,0,1-.09-1.32c0-.83-.07-2-.1-3.41l.19.19c-2.88,0-6.85.07-11.24.07l.26-.26h0v4.71l-.25-.25c3.21,0,6,.07,8,.12l2.37.07a6,6,0,0,1,.89.06,3.51,3.51,0,0,1-.78.06l-2.31.07c-2,0-4.83.11-8.15.12h-.24V242c0-.4,0-.8,0-1.21v-1.21h0c-.05.06.5-.49.26-.26,4.39,0,8.36,0,11.24.08h.19v.18c0,1.5-.06,2.71-.1,3.52A7.9,7.9,0,0,1,277.66,244.27Z" style="fill:#263238"></path><path d="M270.91,239.53a12.07,12.07,0,0,1-.08-1.32c0-.83-.08-2-.1-3.41l.18.19c-2.88,0-6.85.07-11.23.07l.26-.26h0v4.71l-.25-.25c3.21,0,6,.07,8,.12l2.36.07a5.81,5.81,0,0,1,.89.06,3.51,3.51,0,0,1-.78.06l-2.3.07c-2,.05-4.84.11-8.15.12h-.25v-.25c0-.74,0-1.5,0-2.29v-2.42h0l.26-.26c4.38,0,8.35,0,11.23.08h.19v.18c0,1.5-.07,2.71-.1,3.52A6.88,6.88,0,0,1,270.91,239.53Z" style="fill:#263238"></path><path d="M233.07,214.49a10.75,10.75,0,0,1-.09-1.33c0-.82-.07-2-.1-3.4l.19.18c-2.88.05-6.85.08-11.24.08l.26-.26h0v2.41c0,.79,0,1.56,0,2.3l-.25-.25c3.21,0,6,.07,8,.12l2.37.07a6,6,0,0,1,.89.06,3.51,3.51,0,0,1-.78.06l-2.31.07c-2,0-4.83.1-8.15.12h-.24v-2.55c0-.39,0-.8,0-1.2v-1.21h0l.26-.26c4.39,0,8.36,0,11.24.07h.19v.18c0,1.5-.06,2.7-.1,3.52A8.08,8.08,0,0,1,233.07,214.49Z" style="fill:#263238"></path><path d="M237.56,227.22a1.72,1.72,0,0,0-.43-.42.56.56,0,0,0-.57,0c-.29.18-.24.64-.05.94a.57.57,0,0,0,.45.32.87.87,0,0,0-.49.78.6.6,0,0,0,.64.58c.29-.05.47-.33.59-.59a1.44,1.44,0,0,0,.29.53.47.47,0,0,0,.56.08.49.49,0,0,0,.2-.3,1.88,1.88,0,0,0,0-.85c.41-.11.74-.27.69-.6a.59.59,0,0,0-.74-.45,1.22,1.22,0,0,0,.09-.65.57.57,0,0,0-.42-.47.63.63,0,0,0-.64.35,1.86,1.86,0,0,0-.15.77" style="fill:#7E57C2"></path><path d="M237.68,227.7s.06,0,.1-.06h0Z" style="fill:#fff"></path><path d="M238.17,227.75c-.13-.07-.26-.16-.39-.11a.34.34,0,0,0-.2.44.36.36,0,0,0,.48.15C238.27,228.12,238.37,227.85,238.17,227.75Z" style="fill:#fff"></path><path d="M251.4,213.09a1.86,1.86,0,0,0-.42-.42.57.57,0,0,0-.58,0c-.29.18-.23.64-.05.94a.59.59,0,0,0,.45.32.92.92,0,0,0-.49.78.61.61,0,0,0,.65.58c.28-.05.46-.33.58-.59a1.33,1.33,0,0,0,.3.53.46.46,0,0,0,.56.08.52.52,0,0,0,.19-.3,1.88,1.88,0,0,0,0-.85c.41-.11.74-.27.69-.6a.59.59,0,0,0-.74-.45,1.12,1.12,0,0,0,.09-.65.57.57,0,0,0-.41-.47.63.63,0,0,0-.65.35,1.86,1.86,0,0,0-.15.77" style="fill:#7E57C2"></path><path d="M251.52,213.57a.33.33,0,0,1,.1-.06h0Z" style="fill:#fff"></path><path d="M252,213.62c-.13-.07-.26-.16-.39-.11a.33.33,0,1,0,.28.59C252.11,214,252.21,213.72,252,213.62Z" style="fill:#fff"></path><path d="M279.56,213.58a1.71,1.71,0,0,0-.43-.42.56.56,0,0,0-.57,0c-.3.19-.24.65-.06.94a.55.55,0,0,0,.45.32.92.92,0,0,0-.49.79.61.61,0,0,0,.65.57c.28-.05.46-.32.58-.59a1.33,1.33,0,0,0,.3.53.48.48,0,0,0,.56.09.61.61,0,0,0,.2-.3,2,2,0,0,0,0-.85c.4-.12.73-.27.69-.6a.59.59,0,0,0-.75-.45,1.14,1.14,0,0,0,.09-.65.58.58,0,0,0-.41-.48.63.63,0,0,0-.64.36,1.8,1.8,0,0,0-.16.77" style="fill:#7E57C2"></path><path d="M279.67,214.06a.21.21,0,0,1,.1-.06h0Z" style="fill:#fff"></path><path d="M280.16,214.1c-.13-.06-.25-.15-.39-.1a.35.35,0,0,0-.2.43.36.36,0,0,0,.48.16C280.27,214.47,280.37,214.21,280.16,214.1Z" style="fill:#fff"></path><path d="M217,241.7a1.56,1.56,0,0,0-.43-.42.54.54,0,0,0-.57,0c-.3.18-.24.64-.06.94s.26.33.46.32a.88.88,0,0,0-.49.78.6.6,0,0,0,.64.58c.28-.05.46-.33.58-.59a1.46,1.46,0,0,0,.3.53.48.48,0,0,0,.56.09.6.6,0,0,0,.2-.31,1.88,1.88,0,0,0,0-.85c.41-.11.74-.27.69-.59a.59.59,0,0,0-.74-.46,1.2,1.2,0,0,0,.09-.65.57.57,0,0,0-.42-.47.61.61,0,0,0-.64.35,1.86,1.86,0,0,0-.15.77" style="fill:#7E57C2"></path><path d="M217.06,242.17a.53.53,0,0,1,.1-.06h0Z" style="fill:#fff"></path><path d="M217.56,242.22c-.13-.07-.26-.16-.4-.11a.35.35,0,0,0-.19.44.36.36,0,0,0,.48.16C217.66,242.59,217.76,242.32,217.56,242.22Z" style="fill:#fff"></path><path d="M419.93,285.5c-.38-1.73-22-65.21-22-65.21L376.68,285.5Z" style="fill:#7E57C2"></path><rect x="386.86" y="256.23" width="11.24" height="4.73" style="opacity:0.30000000000000004"></rect><path d="M401.88,256.25a12.42,12.42,0,0,1-.08-1.33c0-.82-.08-2-.1-3.4l.18.18c-2.88.05-6.85.08-11.23.08-.24.23.31-.32.26-.26h0v1.2c0,.4,0,.81,0,1.2v2.3l-.24-.25c3.21,0,6,.07,8,.12l2.36.07a5.81,5.81,0,0,1,.89.06,3.51,3.51,0,0,1-.78.06l-2.31.07c-2,.05-4.83.1-8.14.12h-.25v-.25c0-.74,0-1.51,0-2.3v-2.4h0c-.06,0,.49-.5.26-.26,4.38,0,8.35,0,11.23.07h.19v.19c0,1.5-.07,2.7-.1,3.51A7.1,7.1,0,0,1,401.88,256.25Z" style="fill:#263238"></path><rect x="378.32" y="304.3" width="36.99" height="164.55" transform="translate(793.63 773.15) rotate(180)" style="fill:#7E57C2"></rect><rect x="378.32" y="433.54" width="39.98" height="35.32" transform="translate(796.62 902.39) rotate(180)" style="fill:#7E57C2"></rect><rect x="371.38" y="285.5" width="53.17" height="18.8" transform="translate(795.94 589.8) rotate(180)" style="fill:#7E57C2"></rect><rect x="415.31" y="276.25" width="9.25" height="9.25" transform="translate(839.86 561.75) rotate(180)" style="fill:#7E57C2"></rect><rect x="400.89" y="276.25" width="9.25" height="9.25" transform="translate(811.02 561.75) rotate(180)" style="fill:#7E57C2"></rect><rect x="386.47" y="276.25" width="9.25" height="9.25" transform="translate(782.19 561.75) rotate(180)" style="fill:#7E57C2"></rect><rect x="371.37" y="276.25" width="9.12" height="9.25" transform="translate(751.85 561.75) rotate(180)" style="fill:#7E57C2"></rect><g style="opacity:0.8"><rect x="378.32" y="304.3" width="36.99" height="164.55" transform="translate(793.63 773.15) rotate(180)" style="fill:#fff"></rect><rect x="378.32" y="433.54" width="39.98" height="35.32" transform="translate(796.62 902.39) rotate(180)" style="fill:#fff"></rect><rect x="371.38" y="285.5" width="53.17" height="18.8" transform="translate(795.94 589.8) rotate(180)" style="fill:#fff"></rect><rect x="415.31" y="276.25" width="9.25" height="9.25" transform="translate(839.86 561.75) rotate(180)" style="fill:#fff"></rect><rect x="400.89" y="276.25" width="9.25" height="9.25" transform="translate(811.02 561.75) rotate(180)" style="fill:#fff"></rect><rect x="386.47" y="276.25" width="9.25" height="9.25" transform="translate(782.19 561.75) rotate(180)" style="fill:#fff"></rect><rect x="371.37" y="276.25" width="9.12" height="9.25" transform="translate(751.85 561.75) rotate(180)" style="fill:#fff"></rect></g><path d="M392.54,319.85h10.37a0,0,0,0,1,0,0v19.77a4.68,4.68,0,0,1-4.68,4.68h-1a4.68,4.68,0,0,1-4.68-4.68V319.85A0,0,0,0,1,392.54,319.85Z" transform="translate(795.46 664.15) rotate(180)" style="fill:#263238"></path><path d="M392.54,357.14h10.37a0,0,0,0,1,0,0v19.77a4.68,4.68,0,0,1-4.68,4.68h-1a4.68,4.68,0,0,1-4.68-4.68V357.14A0,0,0,0,1,392.54,357.14Z" transform="translate(795.45 738.73) rotate(180)" style="fill:#263238"></path><path d="M392.54,394.43h10.37a0,0,0,0,1,0,0v19.77a4.68,4.68,0,0,1-4.68,4.68h-1a4.68,4.68,0,0,1-4.68-4.68V394.43A0,0,0,0,1,392.54,394.43Z" transform="translate(795.46 813.32) rotate(180)" style="fill:#263238"></path><path d="M400.8,304.26c-.32,1.82.9,4.34,2.22,5.63a19.57,19.57,0,0,0,4.63,3c.32.17.67.39.73.75a1.33,1.33,0,0,1-.21.76,10.44,10.44,0,0,0,3.64,13,9.08,9.08,0,0,0,3.74,13.09V304.3Z" style="fill:#455a64"></path><path d="M424.55,304.26c0,.14-11.84.26-26.46.26s-26.46-.12-26.46-.26,11.84-.26,26.46-.26S424.55,304.12,424.55,304.26Z" style="fill:#263238"></path><path d="M415.88,355.37a1,1,0,0,1,.07.23c0,.19.09.41.16.69a22,22,0,0,1,.42,2.67,28.41,28.41,0,0,1-8.07,22.67c-3.92,4-9.24,7.18-14.22,11.15a38,38,0,0,0-11.08,13.91,48.64,48.64,0,0,0-3.81,14.12c-.52,4.16-.67,7.55-.8,9.9-.06,1.14-.11,2-.14,2.7,0,.28,0,.51-.05.7a.92.92,0,0,1,0,.24,1.1,1.1,0,0,1,0-.24v-.71c0-.66,0-1.56.05-2.7.06-2.35.16-5.75.64-9.93a47.69,47.69,0,0,1,3.74-14.28,38.18,38.18,0,0,1,11.18-14.12c5-4,10.32-7.13,14.21-11.08a27.91,27.91,0,0,0,7.26-12.51,29.07,29.07,0,0,0,.95-9.8c-.1-1.16-.21-2.07-.32-2.67-.05-.28-.08-.51-.11-.7A.55.55,0,0,1,415.88,355.37Z" style="fill:#455a64"></path><path d="M408.57,387.26a21.32,21.32,0,0,0-12.23,3.34,5.09,5.09,0,0,1,1.48-1.22,15.4,15.4,0,0,1,4.24-1.88,15.19,15.19,0,0,1,4.61-.53A5.13,5.13,0,0,1,408.57,387.26Z" style="fill:#455a64"></path><path d="M409.34,371.3s.31.21.42.83a1.88,1.88,0,0,1-3.12,1.67,2.59,2.59,0,0,1-.78-1.95,3.24,3.24,0,0,1,3.1-3.2,2.87,2.87,0,0,1,2.17,1.19,5.59,5.59,0,0,1,1,2,7.05,7.05,0,0,1-.07,3.76,9.46,9.46,0,0,1-1,2.29c-.33.5-.54.75-.57.73a19.55,19.55,0,0,0,1.25-3.11,6.86,6.86,0,0,0,0-3.54,5.15,5.15,0,0,0-.94-1.83,2.36,2.36,0,0,0-1.79-1,2.59,2.59,0,0,0-1.86.88,2.66,2.66,0,0,0-.75,1.8,2.18,2.18,0,0,0,.59,1.63,1.49,1.49,0,0,0,1.4.36,1.6,1.6,0,0,0,1.23-1.69A3.16,3.16,0,0,0,409.34,371.3Z" style="fill:#455a64"></path><path d="M421.94,353.56a11.86,11.86,0,0,0-3.58,2.76,12.26,12.26,0,0,0-1.88,4.11,2.52,2.52,0,0,1,0-1.39,7.35,7.35,0,0,1,4.07-5.13C421.39,353.55,421.93,353.5,421.94,353.56Z" style="fill:#455a64"></path><path d="M381.41,395.89a12.53,12.53,0,0,1,1,11.05,30.56,30.56,0,0,0,.25-5.6A30.22,30.22,0,0,0,381.41,395.89Z" style="fill:#455a64"></path><path d="M423.94,276.21s0,.07.06.23l.12.69a10.94,10.94,0,0,1,0,2.69,14.83,14.83,0,0,1-4.51,8.66c-3,3-7.86,5-13.37,5.53s-11.6-.44-17.86-1.29a62.21,62.21,0,0,0-9.2-.67c-2.93.06-5.87.68-8,2.42a9.24,9.24,0,0,0-3.14,6.7,13.54,13.54,0,0,0,1.28,6.51,21.57,21.57,0,0,0,3,4.66c1.06,1.25,2.06,2.27,2.88,3.08l1.93,1.86.5.49a1,1,0,0,1,.16.18s-.08,0-.2-.14l-.53-.45c-.47-.4-1.15-1-2-1.79a40.36,40.36,0,0,1-3-3.05,21.29,21.29,0,0,1-3.14-4.68,13.72,13.72,0,0,1-1.38-6.69,9.68,9.68,0,0,1,3.27-7c2.2-1.85,5.25-2.49,8.24-2.56a61.61,61.61,0,0,1,9.28.66c6.28.86,12.28,1.86,17.75,1.33s10.22-2.39,13.15-5.32a13.76,13.76,0,0,0,4.61-12Z" style="fill:#455a64"></path><path d="M378.79,295.94a9.88,9.88,0,0,0-3-2,9.73,9.73,0,0,0-3.58-.44c0-.06.37-.28,1.06-.38a5.71,5.71,0,0,1,2.71.34,5.57,5.57,0,0,1,2.24,1.53C378.7,295.49,378.85,295.91,378.79,295.94Z" style="fill:#455a64"></path><path d="M362.91,306a6.92,6.92,0,0,1,4.45.86,7.63,7.63,0,0,1,2.5,2.09c.5.67.69,1.15.63,1.18a14.4,14.4,0,0,0-3.37-2.81C365,306.14,362.89,306.13,362.91,306Z" style="fill:#455a64"></path><path d="M412.19,296.42s-.32.05-.67-.34a1.55,1.55,0,0,1-.36-.85,1.43,1.43,0,0,1,.38-1.18,1.89,1.89,0,0,1,2.89.45,2.38,2.38,0,0,1,.19,1.89,2.72,2.72,0,0,1-1.31,1.54,4.17,4.17,0,0,1-3.73-.06,4,4,0,0,1-.75-.43,5.23,5.23,0,0,1-.58-.57c-.33-.38-.6-.76-.85-1.1a11.8,11.8,0,0,0-1.24-1.53,4.93,4.93,0,0,0-.58-.42s.3,0,.71.26a8.29,8.29,0,0,1,1.4,1.46,5.51,5.51,0,0,0,2.09,1.89,3.68,3.68,0,0,0,3.27,0,2.18,2.18,0,0,0,1.08-1.24,1.94,1.94,0,0,0-.11-1.5,1.5,1.5,0,0,0-2.22-.42,1.31,1.31,0,0,0-.12,1.64C411.93,296.32,412.21,296.38,412.19,296.42Z" style="fill:#455a64"></path><path d="M394.59,299.17c-.15,0-.62-1.71-1.87-3.51s-2.68-2.89-2.59-3a6.8,6.8,0,0,1,3,2.72A6.88,6.88,0,0,1,394.59,299.17Z" style="fill:#455a64"></path><path d="M403.73,288a5.5,5.5,0,0,1-2.71,6,16.75,16.75,0,0,0,1.88-2.78A16.08,16.08,0,0,0,403.73,288Z" style="fill:#455a64"></path><path d="M381.09,395.33a1.71,1.71,0,0,0-.43-.42.54.54,0,0,0-.57,0c-.3.18-.24.64-.06.94a.57.57,0,0,0,.45.32.92.92,0,0,0-.49.78.61.61,0,0,0,.65.58c.28-.05.46-.33.58-.59a1.33,1.33,0,0,0,.3.53.48.48,0,0,0,.56.09.6.6,0,0,0,.2-.31,2,2,0,0,0,0-.85c.4-.11.73-.27.69-.59a.6.6,0,0,0-.75-.46,1.12,1.12,0,0,0,.09-.65.56.56,0,0,0-.41-.47.61.61,0,0,0-.64.35,1.87,1.87,0,0,0-.16.77" style="fill:#7E57C2"></path><path d="M381.2,395.8a.33.33,0,0,1,.1-.06h0Z" style="fill:#fff"></path><path d="M381.69,395.85a.34.34,0,0,0-.39-.11.33.33,0,1,0,.28.6A.35.35,0,0,0,381.69,395.85Z" style="fill:#fff"></path><path d="M409.94,387.71a1.72,1.72,0,0,0-.43-.42.56.56,0,0,0-.57,0c-.29.18-.24.64-.05.94a.57.57,0,0,0,.45.32.88.88,0,0,0-.49.78.6.6,0,0,0,.64.58c.29-.05.47-.33.59-.59a1.44,1.44,0,0,0,.29.53.48.48,0,0,0,.56.09.54.54,0,0,0,.2-.31,1.88,1.88,0,0,0,0-.85c.41-.11.74-.27.69-.6a.59.59,0,0,0-.74-.45,1.2,1.2,0,0,0,.09-.65.57.57,0,0,0-.42-.47.62.62,0,0,0-.64.35,1.86,1.86,0,0,0-.15.77" style="fill:#7E57C2"></path><path d="M410.06,388.19s.06,0,.1-.06h0Z" style="fill:#fff"></path><path d="M410.55,388.24a.34.34,0,1,0-.11.48A.35.35,0,0,0,410.55,388.24Z" style="fill:#fff"></path><path d="M422.26,353a2.14,2.14,0,0,0-.43-.42.56.56,0,0,0-.57,0c-.3.18-.24.64-.06.94a.57.57,0,0,0,.45.32.89.89,0,0,0-.48.78.6.6,0,0,0,.64.58c.28-.05.46-.33.58-.59a1.46,1.46,0,0,0,.3.53.48.48,0,0,0,.56.09.6.6,0,0,0,.2-.31,1.88,1.88,0,0,0,0-.85c.41-.11.73-.27.69-.6a.59.59,0,0,0-.74-.45,1.2,1.2,0,0,0,.09-.65.57.57,0,0,0-.42-.47.61.61,0,0,0-.64.35,1.86,1.86,0,0,0-.15.77" style="fill:#7E57C2"></path><path d="M422.37,353.47a.53.53,0,0,1,.1-.06h0Z" style="fill:#fff"></path><path d="M422.87,353.52a.36.36,0,0,0-.4-.11.35.35,0,0,0-.19.44.34.34,0,1,0,.59-.33Z" style="fill:#fff"></path><path d="M361.74,304.9a2.14,2.14,0,0,0-.43-.42.56.56,0,0,0-.57,0c-.3.18-.24.64-.06.94a.59.59,0,0,0,.45.32.92.92,0,0,0-.49.78.61.61,0,0,0,.65.58c.28-.05.46-.33.58-.59a1.33,1.33,0,0,0,.3.53.48.48,0,0,0,.56.09.6.6,0,0,0,.2-.31,2.22,2.22,0,0,0,0-.85c.4-.11.73-.27.69-.6a.6.6,0,0,0-.75-.45,1.12,1.12,0,0,0,.09-.65.56.56,0,0,0-.41-.47.61.61,0,0,0-.64.35,1.87,1.87,0,0,0-.16.77" style="fill:#7E57C2"></path><path d="M361.85,305.38a.33.33,0,0,1,.1-.06h0Z" style="fill:#fff"></path><path d="M362.34,305.43c-.13-.07-.25-.16-.39-.11a.36.36,0,0,0-.2.44.35.35,0,0,0,.48.15C362.45,305.8,362.55,305.53,362.34,305.43Z" style="fill:#fff"></path><path d="M378.81,295.58a1.9,1.9,0,0,0-.43-.42.56.56,0,0,0-.57,0c-.3.18-.24.64-.06.94a.56.56,0,0,0,.45.31.93.93,0,0,0-.49.79.6.6,0,0,0,.65.57c.28,0,.46-.32.58-.58a1.29,1.29,0,0,0,.3.52.46.46,0,0,0,.56.09.57.57,0,0,0,.2-.3,2,2,0,0,0,0-.85c.4-.11.73-.27.69-.6a.59.59,0,0,0-.75-.45,1.13,1.13,0,0,0,.09-.65.58.58,0,0,0-.41-.48.63.63,0,0,0-.64.36,1.83,1.83,0,0,0-.16.77" style="fill:#7E57C2"></path><path d="M378.92,296.06a.33.33,0,0,1,.1-.06h0Z" style="fill:#fff"></path><path d="M379.41,296.11c-.13-.07-.25-.16-.39-.11a.33.33,0,1,0,.28.59C379.52,296.47,379.62,296.21,379.41,296.11Z" style="fill:#fff"></path><path d="M394.11,298.38a1.53,1.53,0,0,0-.42-.42.58.58,0,0,0-.58,0c-.29.19-.24.65-.05.94a.55.55,0,0,0,.45.32.9.9,0,0,0-.49.79.6.6,0,0,0,.64.57.89.89,0,0,0,.59-.59,1.33,1.33,0,0,0,.3.53.46.46,0,0,0,.55.09.55.55,0,0,0,.2-.3,1.88,1.88,0,0,0,0-.85c.41-.12.74-.27.69-.6a.58.58,0,0,0-.74-.45,1.23,1.23,0,0,0,.09-.65.59.59,0,0,0-.42-.48.63.63,0,0,0-.64.36,1.8,1.8,0,0,0-.15.77" style="fill:#7E57C2"></path><path d="M394.23,298.86a.21.21,0,0,1,.1-.06h0Z" style="fill:#fff"></path><path d="M394.72,298.9c-.13-.06-.26-.15-.39-.1a.34.34,0,0,0-.2.43.36.36,0,0,0,.48.16C394.82,299.27,394.92,299,394.72,298.9Z" style="fill:#fff"></path><path d="M403.72,287.15a1.71,1.71,0,0,0-.43-.42.56.56,0,0,0-.57,0c-.3.19-.24.65-.06.94a.55.55,0,0,0,.45.32.92.92,0,0,0-.49.79.61.61,0,0,0,.65.57c.28-.05.46-.33.58-.59a1.33,1.33,0,0,0,.3.53.48.48,0,0,0,.56.09.61.61,0,0,0,.2-.3,2.09,2.09,0,0,0,0-.86c.4-.11.73-.26.69-.59a.59.59,0,0,0-.75-.45,1.16,1.16,0,0,0,.09-.66.58.58,0,0,0-.41-.47.62.62,0,0,0-.64.36,1.79,1.79,0,0,0-.16.76" style="fill:#7E57C2"></path><path d="M403.83,287.63a.21.21,0,0,1,.1-.06h0Z" style="fill:#fff"></path><path d="M404.32,287.67c-.13-.06-.25-.16-.39-.1a.35.35,0,0,0-.2.43.36.36,0,0,0,.48.16C404.43,288,404.53,287.77,404.32,287.67Z" style="fill:#fff"></path><path d="M418.43,433.51c0,.14-9,.26-20.12.26s-20.12-.12-20.12-.26,9-.27,20.12-.27S418.43,433.36,418.43,433.51Z" style="fill:#263238"></path><path d="M411.81,428.56a8.54,8.54,0,0,1-.09-1.32c0-.83-.08-2-.1-3.41l.19.18c-2.89.05-6.86.08-11.24.08l.26-.26h0v2.41c0,.79,0,1.56,0,2.3l-.25-.25c3.21,0,6,.07,8,.12l2.36.07a6.21,6.21,0,0,1,.9.06,3.68,3.68,0,0,1-.79.06l-2.3.07c-2,.05-4.83.1-8.15.12h-.25v-5h0l.26-.26c4.38,0,8.35,0,11.24.07H412v.18c0,1.5-.07,2.71-.1,3.52A7.9,7.9,0,0,1,411.81,428.56Z" style="fill:#263238"></path><path d="M389.56,365.17a11,11,0,0,1-.09-1.33c0-.82-.07-2-.1-3.41l.19.19c-2.88.05-6.85.07-11.24.07l.26-.26h0v2.42c0,.79,0,1.56,0,2.3l-.25-.25c3.21,0,6,.07,8,.11l2.37.07a4.16,4.16,0,0,1,.89.07,3.51,3.51,0,0,1-.78.06l-2.31.07c-2,0-4.83.1-8.15.11h-.24v-2.55c0-.4,0-.8,0-1.2v-1.22h0l.26-.26c4.39,0,8.36,0,11.24.08h.19v.18c0,1.51-.06,2.71-.1,3.52A8.35,8.35,0,0,1,389.56,365.17Z" style="fill:#263238"></path><path d="M396.43,314.81a12.07,12.07,0,0,1-.08-1.32c0-.83-.08-2-.1-3.41l.18.19c-2.88,0-6.85.07-11.23.07l.26-.26h0v1.21c0,.41,0,.81,0,1.21,0,.79,0,1.56,0,2.29l-.24-.24c3.2,0,6,.06,8,.11l2.36.07a5.81,5.81,0,0,1,.89.06,3.79,3.79,0,0,1-.78.07l-2.31.06c-2,.05-4.83.11-8.14.12H385v-5h0l.26-.26c4.38,0,8.35,0,11.23.08h.19v.18c0,1.51-.07,2.71-.1,3.52A6.88,6.88,0,0,1,396.43,314.81Z" style="fill:#263238"></path><path d="M383.63,360.38a8.14,8.14,0,0,1-.11-1.37c0-.83-.09-2-.11-3.36l.22.22-5.31,0,.26-.26h0v2.47c0,.78,0,1.53,0,2.24l-.23-.23c1.54,0,2.83.07,3.77.11a10.76,10.76,0,0,1,1.54.12,7.4,7.4,0,0,1-1.39.11c-.93,0-2.28.1-3.92.12h-.22v-.23c0-.71,0-1.46,0-2.24v-1.22c0-.21,0-.42,0-.63v-.62h0l.26-.26,5.31,0h.22v.22c0,1.47-.07,2.68-.12,3.5A6.35,6.35,0,0,1,383.63,360.38Z" style="fill:#263238"></path><path d="M424.55,298.82a10.57,10.57,0,0,1-.1-1.37c0-.83-.09-2-.12-3.36l.22.22-5.3,0c-.06,0,.49-.5.26-.26h0v1.25c0,.41,0,.82,0,1.22,0,.78,0,1.53,0,2.24l-.23-.23c1.53,0,2.83.07,3.77.11a10.51,10.51,0,0,1,1.53.12,7.12,7.12,0,0,1-1.39.11c-.92,0-2.27.1-3.91.12H419v-.23c0-.71,0-1.46,0-2.24,0-.4,0-.81,0-1.22v-1.25h0l.26-.26,5.3,0h.23v.22c0,1.47-.08,2.68-.12,3.5A5,5,0,0,1,424.55,298.82Z" style="fill:#263238"></path><path d="M405.8,433.38a10.45,10.45,0,0,1-.09-1.32c0-.83-.07-2-.1-3.41l.19.19c-2.88,0-6.85.07-11.24.07-.23.24.32-.31.26-.26h0v2.42c0,.79,0,1.56,0,2.29l-.25-.24c3.21,0,6,.07,8,.11l2.36.07a6,6,0,0,1,.9.06,2.6,2.6,0,0,1-.78.07l-2.31.07c-2,0-4.83.1-8.15.11h-.25v-2.54c0-.4,0-.8,0-1.21v-1.21h0c-.05.06.5-.49.26-.26,4.39,0,8.36,0,11.24.08H406v.18c0,1.51-.06,2.71-.1,3.52A7.9,7.9,0,0,1,405.8,433.38Z" style="fill:#263238"></path><path d="M404,420a75.37,75.37,0,0,1-12.51,0A75.37,75.37,0,0,1,404,420Z" style="fill:#fff"></path><path d="M395.42,394.11a9.75,9.75,0,0,0-2.9,3,9.91,9.91,0,0,0-.86,4.05c-.06,0-.25-.45-.29-1.25a5.9,5.9,0,0,1,2.84-5.31C394.9,394.15,395.39,394.05,395.42,394.11Z" style="fill:#fff"></path><path d="M403.4,382.26a58.73,58.73,0,0,1-11.25,0,61,61,0,0,1,11.25,0Z" style="fill:#fff"></path><path d="M396.68,355.91a8.08,8.08,0,0,0-4.8,6.62,2.34,2.34,0,0,1-.08-1.31,6.32,6.32,0,0,1,3.61-5C396.15,355.9,396.66,355.85,396.68,355.91Z" style="fill:#fff"></path><path d="M95,285.5c.38-1.73,22-65.21,22-65.21l21.29,65.21Z" style="fill:#7E57C2"></path><rect x="116.81" y="256.23" width="11.24" height="4.73" transform="translate(244.86 517.2) rotate(180)" style="opacity:0.30000000000000004"></rect><path d="M113,256.25a8.16,8.16,0,0,1-.08-1.22c0-.81-.08-2-.1-3.51v-.19H113c2.88,0,6.85-.07,11.24-.07-.24-.24.32.31.26.26h0V254c0,.79,0,1.56,0,2.3v.25h-.25c-3.32,0-6.16-.07-8.15-.12l-2.31-.07a3.63,3.63,0,0,1-.78-.06,6,6,0,0,1,.9-.06l2.36-.07c2-.05,4.77-.1,8-.12l-.25.25c0-.74,0-1.51,0-2.3v-2.4h0l.26.26c-4.39,0-8.36,0-11.24-.08l.19-.18c0,1.42-.07,2.58-.1,3.4A10.75,10.75,0,0,1,113,256.25Z" style="fill:#263238"></path><path d="M115.19,227.74c.13,0-2.93,10.44-6.85,23.21S101.13,274.05,101,274s2.92-10.43,6.84-23.21S115.05,227.7,115.19,227.74Z" style="fill:#fff"></path><rect x="99.6" y="304.3" width="36.99" height="164.55" style="fill:#7E57C2"></rect><rect x="96.61" y="433.54" width="39.98" height="35.32" style="fill:#7E57C2"></rect><rect x="90.35" y="285.5" width="53.17" height="18.8" style="fill:#7E57C2"></rect><rect x="90.35" y="276.25" width="9.25" height="9.25" style="fill:#7E57C2"></rect><rect x="104.77" y="276.25" width="9.25" height="9.25" style="fill:#7E57C2"></rect><rect x="119.19" y="276.25" width="9.25" height="9.25" style="fill:#7E57C2"></rect><rect x="134.41" y="276.25" width="9.12" height="9.25" style="fill:#7E57C2"></rect><g style="opacity:0.8"><rect x="99.6" y="304.3" width="36.99" height="164.55" style="fill:#fff"></rect><rect x="96.61" y="433.54" width="39.98" height="35.32" style="fill:#fff"></rect><rect x="90.35" y="285.5" width="53.17" height="18.8" style="fill:#fff"></rect><rect x="90.35" y="276.25" width="9.25" height="9.25" style="fill:#fff"></rect><rect x="104.77" y="276.25" width="9.25" height="9.25" style="fill:#fff"></rect><rect x="119.19" y="276.25" width="9.25" height="9.25" style="fill:#fff"></rect><rect x="134.41" y="276.25" width="9.12" height="9.25" style="fill:#fff"></rect></g><path d="M116.67,319.85h1a4.68,4.68,0,0,1,4.68,4.68V344.3a0,0,0,0,1,0,0H112a0,0,0,0,1,0,0V324.52A4.68,4.68,0,0,1,116.67,319.85Z" style="fill:#263238"></path><path d="M116.67,357.14h1a4.68,4.68,0,0,1,4.68,4.68v19.77a0,0,0,0,1,0,0H112a0,0,0,0,1,0,0V361.82A4.68,4.68,0,0,1,116.67,357.14Z" style="fill:#263238"></path><path d="M116.67,394.43h1a4.68,4.68,0,0,1,4.68,4.68v19.77a0,0,0,0,1,0,0H112a0,0,0,0,1,0,0V399.11A4.68,4.68,0,0,1,116.67,394.43Z" style="fill:#263238"></path><path d="M114.1,304.26c.33,1.82-.9,4.34-2.22,5.63a19.51,19.51,0,0,1-4.62,3c-.32.17-.67.39-.74.75a1.33,1.33,0,0,0,.21.76,10.43,10.43,0,0,1-3.63,13,9.1,9.1,0,0,1-3.75,13.09V304.3Z" style="fill:#455a64"></path><path d="M90.35,304.26c0-.14,11.85-.26,26.46-.26s26.47.12,26.47.26-11.85.26-26.47.26S90.35,304.4,90.35,304.26Z" style="fill:#263238"></path><path d="M99,355.37a.87.87,0,0,1,0,.24c0,.19-.07.42-.11.7a26.62,26.62,0,0,0-.33,2.67,28.86,28.86,0,0,0,1,9.8,27.73,27.73,0,0,0,7.26,12.51c3.88,3.95,9.17,7.08,14.2,11.08a38.08,38.08,0,0,1,11.18,14.12,47.73,47.73,0,0,1,3.75,14.28c.48,4.18.57,7.58.64,9.93,0,1.14,0,2,0,2.7v.71a.64.64,0,0,1,0,.24.75.75,0,0,1,0-.24c0-.19,0-.42-.05-.7,0-.66-.08-1.56-.14-2.7-.14-2.35-.28-5.74-.81-9.9a48.33,48.33,0,0,0-3.81-14.12,38.09,38.09,0,0,0-11.07-13.91c-5-4-10.3-7.13-14.22-11.15a27.8,27.8,0,0,1-7.28-12.76,28.2,28.2,0,0,1-.8-9.91,24.15,24.15,0,0,1,.42-2.67c.07-.28.12-.5.17-.69A.62.62,0,0,1,99,355.37Z" style="fill:#455a64"></path><path d="M106.33,387.26a5.19,5.19,0,0,1,1.9-.29,15.38,15.38,0,0,1,8.85,2.41,5.24,5.24,0,0,1,1.49,1.22,29.66,29.66,0,0,0-5.87-2.6A29.4,29.4,0,0,0,106.33,387.26Z" style="fill:#455a64"></path><path d="M105.56,371.3a4.46,4.46,0,0,0-.22.85,1.6,1.6,0,0,0,1.23,1.69,1.51,1.51,0,0,0,1.41-.36,2.18,2.18,0,0,0,.58-1.63,2.77,2.77,0,0,0-2.61-2.68,2.34,2.34,0,0,0-1.78,1,5.34,5.34,0,0,0-1,1.83,7,7,0,0,0,0,3.54,17.88,17.88,0,0,0,1.26,3.11s-.25-.23-.57-.73a8.75,8.75,0,0,1-1-2.29,7,7,0,0,1-.07-3.76,5.56,5.56,0,0,1,1-2,2.88,2.88,0,0,1,2.18-1.19,3.24,3.24,0,0,1,3.09,3.2,2.62,2.62,0,0,1-.77,1.95,1.87,1.87,0,0,1-1.79.4,1.89,1.89,0,0,1-1.18-.95,1.86,1.86,0,0,1-.16-1.12C105.25,371.51,105.55,371.28,105.56,371.3Z" style="fill:#455a64"></path><path d="M93,353.56a2.46,2.46,0,0,1,1.35.35A7.4,7.4,0,0,1,98.39,359a2.56,2.56,0,0,1,0,1.39A9.41,9.41,0,0,0,93,353.56Z" style="fill:#455a64"></path><path d="M133.49,395.89a30.22,30.22,0,0,0-1.29,5.45,30.56,30.56,0,0,0,.25,5.6,10.59,10.59,0,0,1-.77-5.65A10.48,10.48,0,0,1,133.49,395.89Z" style="fill:#455a64"></path><path d="M91,276.21a15.36,15.36,0,0,0,0,3.58,14.89,14.89,0,0,0,4.57,8.42c2.93,2.93,7.72,4.87,13.16,5.32s11.46-.47,17.75-1.33a61.39,61.39,0,0,1,9.27-.66c3,.07,6.05.71,8.25,2.56a9.63,9.63,0,0,1,3.26,7,13.84,13.84,0,0,1-1.37,6.69,21.65,21.65,0,0,1-3.14,4.68,40.27,40.27,0,0,1-3,3.05c-.85.8-1.53,1.39-2,1.79l-.54.45c-.12.1-.19.15-.19.14s.05-.07.16-.18l.5-.49,1.92-1.86a42.12,42.12,0,0,0,2.88-3.08,21.21,21.21,0,0,0,3-4.66,13.31,13.31,0,0,0,1.28-6.51,9.21,9.21,0,0,0-3.14-6.7c-2.08-1.74-5-2.36-7.95-2.42a62.08,62.08,0,0,0-9.19.67c-6.27.85-12.32,1.85-17.87,1.29s-10.4-2.5-13.36-5.53a14.85,14.85,0,0,1-4.52-8.66,11.36,11.36,0,0,1,0-2.69l.12-.69C90.94,276.28,91,276.2,91,276.21Z" style="fill:#455a64"></path><path d="M136.11,295.94c-.05,0,.09-.45.55-1a5.55,5.55,0,0,1,2.25-1.53,5.68,5.68,0,0,1,2.7-.34c.7.1,1.08.32,1.06.38a9.73,9.73,0,0,0-3.58.44A10,10,0,0,0,136.11,295.94Z" style="fill:#455a64"></path><path d="M152,306c0,.18-2.05.19-4.22,1.32a14.4,14.4,0,0,0-3.37,2.81s.13-.51.63-1.18a7.63,7.63,0,0,1,2.5-2.09A6.94,6.94,0,0,1,152,306Z" style="fill:#455a64"></path><path d="M102.71,296.42s.27-.1.52-.47a1.33,1.33,0,0,0-.13-1.64,1.49,1.49,0,0,0-2.21.42,1.9,1.9,0,0,0-.12,1.5,2.18,2.18,0,0,0,1.08,1.24,3.7,3.7,0,0,0,3.28,0,5.58,5.58,0,0,0,2.09-1.89,8.29,8.29,0,0,1,1.4-1.46c.4-.29.71-.29.7-.26a5.52,5.52,0,0,0-.57.42,10.33,10.33,0,0,0-1.24,1.53c-.25.34-.52.72-.86,1.1a4.49,4.49,0,0,1-.58.57,4,4,0,0,1-.75.43,4.14,4.14,0,0,1-3.72.06,2.68,2.68,0,0,1-1.31-1.54,2.34,2.34,0,0,1,.18-1.89,1.89,1.89,0,0,1,2.89-.45,1.4,1.4,0,0,1,.38,1.18,1.55,1.55,0,0,1-.35.85C103,296.47,102.7,296.44,102.71,296.42Z" style="fill:#455a64"></path><path d="M120.31,299.17a8.63,8.63,0,0,1,4.46-6.52c.1.12-1.37,1.2-2.59,3S120.47,299.21,120.31,299.17Z" style="fill:#455a64"></path><path d="M111.17,288a17.84,17.84,0,0,0,.83,3.25,17.49,17.49,0,0,0,1.88,2.78,5.54,5.54,0,0,1-2.71-6Z" style="fill:#455a64"></path><path d="M133.82,395.33a1.44,1.44,0,0,1,.43-.42.54.54,0,0,1,.57,0c.29.18.24.64.05.94a.57.57,0,0,1-.45.32.88.88,0,0,1,.49.78.6.6,0,0,1-.64.58c-.29-.05-.47-.33-.59-.59a1.33,1.33,0,0,1-.3.53.46.46,0,0,1-.55.09.54.54,0,0,1-.2-.31,1.88,1.88,0,0,1,0-.85c-.41-.11-.74-.27-.69-.59a.59.59,0,0,1,.74-.46,1.2,1.2,0,0,1-.09-.65.57.57,0,0,1,.42-.47.63.63,0,0,1,.64.35,1.86,1.86,0,0,1,.15.77" style="fill:#7E57C2"></path><path d="M133.7,395.8a.33.33,0,0,0-.1-.06h0Z" style="fill:#fff"></path><path d="M133.21,395.85a.34.34,0,0,1,.59.33.36.36,0,0,1-.48.16A.36.36,0,0,1,133.21,395.85Z" style="fill:#fff"></path><path d="M105,387.71a2.14,2.14,0,0,1,.43-.42.56.56,0,0,1,.57,0c.3.18.24.64.06.94a.59.59,0,0,1-.45.32.92.92,0,0,1,.49.78.61.61,0,0,1-.65.58c-.28-.05-.46-.33-.58-.59a1.33,1.33,0,0,1-.3.53.48.48,0,0,1-.56.09.6.6,0,0,1-.2-.31,1.88,1.88,0,0,1,0-.85c-.41-.11-.73-.27-.69-.6a.59.59,0,0,1,.74-.45,1.31,1.31,0,0,1-.09-.65.58.58,0,0,1,.42-.47.61.61,0,0,1,.64.35,1.87,1.87,0,0,1,.16.77" style="fill:#7E57C2"></path><path d="M104.85,388.19a.53.53,0,0,0-.1-.06h0Z" style="fill:#fff"></path><path d="M104.35,388.24a.36.36,0,0,1,.4-.11.35.35,0,0,1,.19.44.34.34,0,0,1-.47.15A.35.35,0,0,1,104.35,388.24Z" style="fill:#fff"></path><path d="M92.64,353a2.14,2.14,0,0,1,.43-.42.57.57,0,0,1,.58,0c.29.18.23.64,0,.94a.57.57,0,0,1-.45.32.92.92,0,0,1,.49.78.61.61,0,0,1-.65.58c-.28-.05-.46-.33-.58-.59a1.33,1.33,0,0,1-.3.53.48.48,0,0,1-.56.09.6.6,0,0,1-.2-.31,2.22,2.22,0,0,1,0-.85c-.4-.11-.73-.27-.69-.6a.6.6,0,0,1,.75-.45,1.12,1.12,0,0,1-.09-.65.57.57,0,0,1,.41-.47.61.61,0,0,1,.64.35,1.87,1.87,0,0,1,.16.77" style="fill:#7E57C2"></path><path d="M92.53,353.47a.33.33,0,0,0-.1-.06h0Z" style="fill:#fff"></path><path d="M92,353.52a.34.34,0,0,1,.39-.11.36.36,0,0,1,.2.44.35.35,0,0,1-.48.15A.34.34,0,0,1,92,353.52Z" style="fill:#fff"></path><path d="M153.17,304.9a1.72,1.72,0,0,1,.43-.42.56.56,0,0,1,.57,0c.29.18.24.64.05.94a.57.57,0,0,1-.45.32.88.88,0,0,1,.49.78.6.6,0,0,1-.64.58c-.29-.05-.47-.33-.59-.59a1.44,1.44,0,0,1-.29.53.48.48,0,0,1-.56.09.54.54,0,0,1-.2-.31,1.88,1.88,0,0,1,0-.85c-.41-.11-.74-.27-.69-.6a.59.59,0,0,1,.74-.45,1.2,1.2,0,0,1-.09-.65.57.57,0,0,1,.42-.47.63.63,0,0,1,.64.35,1.86,1.86,0,0,1,.15.77" style="fill:#7E57C2"></path><path d="M153.05,305.38s-.06,0-.1-.06h0Z" style="fill:#fff"></path><path d="M152.56,305.43c.13-.07.26-.16.39-.11a.34.34,0,0,1,.2.44.35.35,0,0,1-.48.15C152.46,305.8,152.36,305.53,152.56,305.43Z" style="fill:#fff"></path><path d="M136.1,295.58a1.56,1.56,0,0,1,.43-.42.56.56,0,0,1,.57,0c.29.18.24.64.05.94a.56.56,0,0,1-.45.31.89.89,0,0,1,.49.79.59.59,0,0,1-.64.57c-.29,0-.47-.32-.59-.58a1.4,1.4,0,0,1-.29.52.46.46,0,0,1-.56.09.52.52,0,0,1-.2-.3,1.88,1.88,0,0,1,0-.85c-.41-.11-.74-.27-.69-.6a.58.58,0,0,1,.74-.45,1.22,1.22,0,0,1-.09-.65.59.59,0,0,1,.42-.48.65.65,0,0,1,.64.36,1.83,1.83,0,0,1,.15.77" style="fill:#7E57C2"></path><path d="M136,296.06a.33.33,0,0,0-.1-.06h0Z" style="fill:#fff"></path><path d="M135.49,296.11c.13-.07.26-.16.39-.11a.34.34,0,0,1,.2.44.36.36,0,0,1-.48.15C135.39,296.47,135.29,296.21,135.49,296.11Z" style="fill:#fff"></path><path d="M120.79,298.38a1.56,1.56,0,0,1,.43-.42.56.56,0,0,1,.57,0c.3.19.24.65.06.94a.56.56,0,0,1-.45.32.89.89,0,0,1,.48.79.59.59,0,0,1-.64.57c-.28-.05-.46-.32-.58-.59a1.46,1.46,0,0,1-.3.53.48.48,0,0,1-.56.09.61.61,0,0,1-.2-.3,1.88,1.88,0,0,1,0-.85c-.41-.12-.74-.27-.69-.6a.59.59,0,0,1,.74-.45,1.23,1.23,0,0,1-.09-.65.59.59,0,0,1,.42-.48.62.62,0,0,1,.64.36,1.8,1.8,0,0,1,.15.77" style="fill:#7E57C2"></path><path d="M120.68,298.86a.27.27,0,0,0-.1-.06h0Z" style="fill:#fff"></path><path d="M120.18,298.9c.13-.06.26-.15.4-.1a.34.34,0,0,1,.19.43.35.35,0,0,1-.47.16C120.08,299.27,120,299,120.18,298.9Z" style="fill:#fff"></path><path d="M111.19,287.15a1.44,1.44,0,0,1,.43-.42.56.56,0,0,1,.57,0c.29.19.24.65,0,.94a.55.55,0,0,1-.45.32.88.88,0,0,1,.49.79.59.59,0,0,1-.64.57c-.29-.05-.47-.33-.59-.59a1.33,1.33,0,0,1-.3.53.46.46,0,0,1-.55.09.55.55,0,0,1-.2-.3,1.93,1.93,0,0,1,0-.86c-.41-.11-.74-.26-.69-.59a.58.58,0,0,1,.74-.45,1.25,1.25,0,0,1-.09-.66.6.6,0,0,1,.42-.47.63.63,0,0,1,.64.36,1.78,1.78,0,0,1,.15.76" style="fill:#7E57C2"></path><path d="M111.07,287.63a.21.21,0,0,0-.1-.06h0Z" style="fill:#fff"></path><path d="M110.58,287.67c.13-.06.26-.16.39-.1a.34.34,0,0,1,.2.43.36.36,0,0,1-.48.16C110.48,288,110.38,287.77,110.58,287.67Z" style="fill:#fff"></path><path d="M96.47,433.51c0-.15,9-.27,20.12-.27s20.12.12,20.12.27-9,.26-20.12.26S96.47,433.65,96.47,433.51Z" style="fill:#263238"></path><path d="M103.1,428.56a6.88,6.88,0,0,1-.09-1.21c0-.81-.07-2-.1-3.52v-.18h.19c2.88,0,6.85-.07,11.23-.07l.26.26h0v5h-.25c-3.31,0-6.16-.07-8.14-.12l-2.31-.07a3.51,3.51,0,0,1-.78-.06,5.81,5.81,0,0,1,.89-.06l2.36-.07c2-.05,4.77-.1,8-.12l-.24.25v-2.3c0-.39,0-.79,0-1.2v-1.21h0l.26.26c-4.38,0-8.35,0-11.23-.08l.18-.18c0,1.42-.06,2.58-.1,3.41A12.07,12.07,0,0,1,103.1,428.56Z" style="fill:#263238"></path><path d="M125.34,365.17a8.35,8.35,0,0,1-.08-1.22c0-.81-.08-2-.1-3.52v-.18h.18c2.89-.05,6.86-.08,11.24-.08l.26.26h0v5h-.25c-3.32,0-6.16-.07-8.15-.11l-2.3-.07a3.68,3.68,0,0,1-.79-.06,4.21,4.21,0,0,1,.9-.07l2.36-.07c2,0,4.77-.1,8-.11l-.25.25c0-.74,0-1.51,0-2.3v-2.42h0c-.06-.05.49.5.26.26-4.38,0-8.35,0-11.24-.07l.19-.19c0,1.42-.07,2.59-.1,3.41A11,11,0,0,1,125.34,365.17Z" style="fill:#263238"></path><path d="M118.47,314.81a7.9,7.9,0,0,1-.08-1.21c0-.81-.08-2-.1-3.52v-.18h.19c2.88,0,6.85-.08,11.24-.08l.26.26h0v5h-.25c-3.32,0-6.16-.07-8.15-.12l-2.31-.06a3.93,3.93,0,0,1-.78-.07,6,6,0,0,1,.9-.06l2.36-.07c2-.05,4.77-.1,8-.11l-.25.24c0-.73,0-1.5,0-2.29V310.1h0c-.06-.05.49.5.26.26-4.39,0-8.36,0-11.24-.07l.19-.19c0,1.42-.07,2.58-.1,3.41A10.45,10.45,0,0,1,118.47,314.81Z" style="fill:#263238"></path><path d="M131.28,360.38a5,5,0,0,1-.11-1.23c0-.82-.09-2-.11-3.5v-.22h.23l5.3,0,.26.26h0v1.25c0,.41,0,.82,0,1.22,0,.78,0,1.53,0,2.24v.23h-.23c-1.63,0-3-.08-3.91-.12a7.12,7.12,0,0,1-1.39-.11,10.51,10.51,0,0,1,1.53-.12c.94,0,2.24-.09,3.77-.11l-.23.23c0-.71,0-1.46,0-2.24,0-.4,0-.81,0-1.22v-1.25h0c-.23-.24.32.31.26.26l-5.3,0,.22-.22c0,1.37-.07,2.53-.12,3.36A10.79,10.79,0,0,1,131.28,360.38Z" style="fill:#263238"></path><path d="M90.35,298.82a5.7,5.7,0,0,1-.11-1.23c0-.82-.09-2-.11-3.5v-.22h.23l5.3,0,.26.26h0v1.25c0,.41,0,.82,0,1.22,0,.78,0,1.53,0,2.24v.23h-.23c-1.63,0-3-.08-3.91-.12a7.12,7.12,0,0,1-1.39-.11,10.57,10.57,0,0,1,1.54-.12c.93,0,2.23-.09,3.76-.11l-.23.23c0-.71,0-1.46,0-2.24,0-.4,0-.81,0-1.22v-1.25h0c-.23-.24.32.31.26.26l-5.3,0,.22-.22c0,1.37-.07,2.53-.11,3.36A11.58,11.58,0,0,1,90.35,298.82Z" style="fill:#263238"></path><path d="M109.11,433.38a5.78,5.78,0,0,1-.09-1.21c0-.81-.08-2-.1-3.52v-.18h.19c2.88-.05,6.85-.08,11.23-.08l.26.26h0v5h-.25c-3.31,0-6.16-.07-8.15-.11l-2.3-.07a2.46,2.46,0,0,1-.78-.07,5.81,5.81,0,0,1,.89-.06l2.36-.07c2,0,4.77-.1,8-.11l-.25.24c0-.73,0-1.5,0-2.29v-2.42h0c-.06,0,.49.5.26.26-4.38,0-8.35,0-11.23-.07l.18-.19c0,1.42-.07,2.58-.1,3.41A12.07,12.07,0,0,1,109.11,433.38Z" style="fill:#263238"></path><path d="M110.92,420a37.06,37.06,0,0,1,6.26-.26,37,37,0,0,1,6.25.26,38.28,38.28,0,0,1-6.25.26A38.36,38.36,0,0,1,110.92,420Z" style="fill:#fff"></path><path d="M111.51,382.27a29.34,29.34,0,0,1,5.62-.27,29.43,29.43,0,0,1,5.62.27,31,31,0,0,1-5.62.26A30.93,30.93,0,0,1,111.51,382.27Z" style="fill:#fff"></path><path d="M124.05,345.29a38.22,38.22,0,0,1-6.35.26,38.12,38.12,0,0,1-6.35-.26,39.46,39.46,0,0,1,6.35-.26A39.56,39.56,0,0,1,124.05,345.29Z" style="fill:#fff"></path><path d="M116.74,393.88c.06.17-1.85.48-3.51,1.93a5.63,5.63,0,0,0-1.53,2.28c-.24.68-.26,1.14-.34,1.14s-.18-.47,0-1.24a5,5,0,0,1,1.54-2.57,6.68,6.68,0,0,1,2.64-1.4C116.25,393.82,116.72,393.81,116.74,393.88Z" style="fill:#fff"></path><path d="M118,356a11.93,11.93,0,0,0-4.31,2.23,11.8,11.8,0,0,0-2.58,4.1,2.85,2.85,0,0,1,.25-1.47,7.4,7.4,0,0,1,5.15-4.73A2.85,2.85,0,0,1,118,356Z" style="fill:#fff"></path><path d="M117.7,319.49c0,.09-.54.06-1.37.24a5.83,5.83,0,0,0-4.49,4.22,12.61,12.61,0,0,1-.32,1.35,2.33,2.33,0,0,1,0-1.43,5.48,5.48,0,0,1,4.8-4.51A2.36,2.36,0,0,1,117.7,319.49Z" style="fill:#fff"></path><path d="M136.79,302.29c0,.14-9.11.26-20.35.26s-20.35-.12-20.35-.26,9.11-.26,20.35-.26S136.79,302.15,136.79,302.29Z" style="fill:#fff"></path><path d="M137.21,468.85V357.29H377.8V468.85Z" style="fill:#7E57C2"></path><rect x="137.21" y="346.96" width="10.34" height="10.34" style="fill:#7E57C2"></rect><rect x="153.65" y="346.96" width="10.34" height="10.34" style="fill:#7E57C2"></rect><rect x="170.1" y="346.96" width="10.34" height="10.34" style="fill:#7E57C2"></rect><rect x="186.55" y="346.96" width="10.34" height="10.34" style="fill:#7E57C2"></rect><rect x="202.99" y="346.96" width="10.34" height="10.34" style="fill:#7E57C2"></rect><rect x="219.44" y="346.96" width="10.34" height="10.34" style="fill:#7E57C2"></rect><rect x="235.89" y="346.96" width="10.34" height="10.34" style="fill:#7E57C2"></rect><rect x="252.33" y="346.96" width="10.34" height="10.34" style="fill:#7E57C2"></rect><rect x="268.78" y="346.96" width="10.34" height="10.34" style="fill:#7E57C2"></rect><rect x="285.23" y="346.96" width="10.34" height="10.34" style="fill:#7E57C2"></rect><rect x="301.67" y="346.96" width="10.34" height="10.34" style="fill:#7E57C2"></rect><rect x="318.12" y="346.96" width="10.34" height="10.34" style="fill:#7E57C2"></rect><rect x="334.57" y="346.96" width="10.34" height="10.34" style="fill:#7E57C2"></rect><rect x="351.01" y="346.96" width="10.34" height="10.34" style="fill:#7E57C2"></rect><rect x="367.46" y="346.96" width="10.34" height="10.34" style="fill:#7E57C2"></rect><g style="opacity:0.8"><path d="M137.21,468.85V357.29H377.8V468.85Z" style="fill:#fff"></path><rect x="137.21" y="346.96" width="10.34" height="10.34" style="fill:#fff"></rect><rect x="153.65" y="346.96" width="10.34" height="10.34" style="fill:#fff"></rect><rect x="170.1" y="346.96" width="10.34" height="10.34" style="fill:#fff"></rect><rect x="186.55" y="346.96" width="10.34" height="10.34" style="fill:#fff"></rect><rect x="202.99" y="346.96" width="10.34" height="10.34" style="fill:#fff"></rect><rect x="219.44" y="346.96" width="10.34" height="10.34" style="fill:#fff"></rect><rect x="235.89" y="346.96" width="10.34" height="10.34" style="fill:#fff"></rect><rect x="252.33" y="346.96" width="10.34" height="10.34" style="fill:#fff"></rect><rect x="268.78" y="346.96" width="10.34" height="10.34" style="fill:#fff"></rect><rect x="285.23" y="346.96" width="10.34" height="10.34" style="fill:#fff"></rect><rect x="301.67" y="346.96" width="10.34" height="10.34" style="fill:#fff"></rect><rect x="318.12" y="346.96" width="10.34" height="10.34" style="fill:#fff"></rect><rect x="334.57" y="346.96" width="10.34" height="10.34" style="fill:#fff"></rect><rect x="351.01" y="346.96" width="10.34" height="10.34" style="fill:#fff"></rect><rect x="367.46" y="346.96" width="10.34" height="10.34" style="fill:#fff"></rect></g><path d="M184.19,378.64h1.5a6.89,6.89,0,0,1,6.89,6.89v43.93a0,0,0,0,1,0,0H177.3a0,0,0,0,1,0,0V385.53A6.89,6.89,0,0,1,184.19,378.64Z" style="fill:#263238"></path><path d="M210.36,378.64h1.5a6.89,6.89,0,0,1,6.89,6.89v43.93a0,0,0,0,1,0,0H203.46a0,0,0,0,1,0,0V385.53A6.89,6.89,0,0,1,210.36,378.64Z" style="fill:#263238"></path><path d="M158,378.64h1.5a6.89,6.89,0,0,1,6.89,6.89v43.93a0,0,0,0,1,0,0H151.13a0,0,0,0,1,0,0V385.53A6.89,6.89,0,0,1,158,378.64Z" style="fill:#263238"></path><path d="M332,378.64h1.5a6.89,6.89,0,0,1,6.89,6.89v43.93a0,0,0,0,1,0,0H325.1a0,0,0,0,1,0,0V385.53a6.89,6.89,0,0,1,6.89-6.89Z" style="fill:#263238"></path><path d="M359.6,378.64h1.5a6.89,6.89,0,0,1,6.89,6.89v43.93a0,0,0,0,1,0,0H352.71a0,0,0,0,1,0,0V385.53A6.89,6.89,0,0,1,359.6,378.64Z" style="fill:#263238"></path><path d="M302.74,378.64h1.5a6.89,6.89,0,0,1,6.89,6.89v43.93a0,0,0,0,1,0,0H295.84a0,0,0,0,1,0,0V385.53A6.89,6.89,0,0,1,302.74,378.64Z" style="fill:#263238"></path><path d="M215.87,464a3.2,3.2,0,0,0-5.42-2.52c-.81-3.6-6-5.27-8.76-2.8a6.59,6.59,0,0,0-12.6,3.69,8.82,8.82,0,0,0-12.8,6.86L224.2,469C223.85,465.24,219.21,462.35,215.87,464Z" style="fill:#455a64"></path><path d="M184.89,458.63a15,15,0,0,1-1.52-1.09,1.38,1.38,0,0,1-.39-.41,1.49,1.49,0,0,1-.14-.54,16.09,16.09,0,0,1-.13-2.4c.49,0,.84.47,1.12.87l.53.74a3.15,3.15,0,0,1,.48.83,9.4,9.4,0,0,1,.1,1.92" style="fill:#455a64"></path><path d="M212.43,448.89a3.73,3.73,0,0,0-1-1,1.32,1.32,0,0,0-1.34-.07c-.7.44-.56,1.51-.13,2.21a1.29,1.29,0,0,0,1,.75,2.1,2.1,0,0,0-1.14,1.84,1.41,1.41,0,0,0,1.51,1.35c.66-.11,1.09-.77,1.37-1.38a3.17,3.17,0,0,0,.7,1.24,1.1,1.1,0,0,0,1.31.21,1.38,1.38,0,0,0,.47-.72,4.47,4.47,0,0,0,0-2c1-.27,1.73-.63,1.62-1.4a1.38,1.38,0,0,0-1.74-1.06,2.89,2.89,0,0,0,.21-1.53,1.4,1.4,0,0,0-1-1.12,1.48,1.48,0,0,0-1.5.84,4.43,4.43,0,0,0-.37,1.8" style="fill:#7E57C2"></path><path d="M137.21,452.57a5.78,5.78,0,0,1-.09-1.21c0-.81-.08-2-.1-3.52v-.18h.19c2.88-.05,6.85-.08,11.23-.08l.26.26h0v5h-.25c-3.31,0-6.16-.07-8.15-.12l-2.3-.06a3.79,3.79,0,0,1-.78-.07,5.81,5.81,0,0,1,.89-.06l2.36-.07c2-.05,4.77-.1,8-.12l-.25.25v-4.71h0l.26.26c-4.38,0-8.35,0-11.23-.07l.18-.19c0,1.42-.07,2.58-.1,3.41A12.07,12.07,0,0,1,137.21,452.57Z" style="fill:#263238"></path><path d="M143.21,457.4a8.16,8.16,0,0,1-.08-1.22c0-.81-.08-2-.1-3.51v-.19h.18c2.88-.05,6.86-.08,11.24-.08-.23-.23.32.32.26.27h0v2.42c0,.79,0,1.56,0,2.3v.25h-.25c-3.32,0-6.16-.07-8.15-.12l-2.3-.07a3.68,3.68,0,0,1-.79-.06,6.81,6.81,0,0,1,.9-.07l2.36-.06c2,0,4.77-.11,8-.12l-.25.25v-4.72h0l.26.26c-4.38,0-8.36,0-11.24-.08l.19-.18c0,1.42-.07,2.58-.1,3.4A11,11,0,0,1,143.21,457.4Z" style="fill:#263238"></path><path d="M234.51,374.9a8.16,8.16,0,0,1-.08-1.22c0-.81-.08-2-.1-3.51V370h.19c2.88-.05,6.85-.07,11.23-.07-.23-.24.32.31.26.26h0v2.4c0,.79,0,1.56,0,2.3v.25h-.25c-3.31,0-6.16-.07-8.15-.12l-2.3-.07a3.68,3.68,0,0,1-.79-.06,6.21,6.21,0,0,1,.9-.06l2.36-.07c2,0,4.77-.1,8-.12l-.25.25c0-.74,0-1.51,0-2.3v-2.4h0l.26.26c-4.38,0-8.35,0-11.23-.08l.18-.18c0,1.42-.07,2.58-.1,3.4A8.77,8.77,0,0,1,234.51,374.9Z" style="fill:#263238"></path><path d="M240.52,379.72a7.9,7.9,0,0,1-.08-1.21c0-.81-.08-2-.1-3.52v-.18h.19c2.88-.05,6.85-.08,11.24-.08l.26.26h0v2.42c0,.79,0,1.55,0,2.29V380h-.25c-3.32,0-6.16-.07-8.15-.12l-2.31-.07a3.63,3.63,0,0,1-.78-.06,6,6,0,0,1,.9-.06l2.36-.07c2,0,4.77-.1,8-.12l-.25.25c0-.74,0-1.5,0-2.29V375h0l.26.26c-4.39,0-8.36,0-11.24-.07l.19-.19c0,1.42-.07,2.58-.1,3.41A10.45,10.45,0,0,1,240.52,379.72Z" style="fill:#263238"></path><path d="M306.86,447.24a5.9,5.9,0,0,1-.09-1.21c0-.82-.08-2-.1-3.52v-.18h.19c2.88,0,6.85-.07,11.23-.07-.23-.24.32.31.26.26h0v2.41c0,.79,0,1.56,0,2.3v.25h-.25c-3.31,0-6.16-.07-8.15-.12l-2.3-.07a3.4,3.4,0,0,1-.78-.06,5.81,5.81,0,0,1,.89-.06l2.36-.07c2-.05,4.77-.1,8-.12l-.25.25c0-.74,0-1.51,0-2.3v-2.41h0l.26.26c-4.38,0-8.35,0-11.23-.08l.18-.18c0,1.42-.07,2.58-.1,3.4A12.42,12.42,0,0,1,306.86,447.24Z" style="fill:#263238"></path><path d="M312.86,452.06a7.9,7.9,0,0,1-.08-1.21c0-.81-.08-2-.1-3.52v-.18h.19c2.88,0,6.85-.08,11.24-.08l.26.26h0v2.42c0,.79,0,1.55,0,2.29v.25h-.25c-3.32,0-6.16-.07-8.15-.12l-2.3-.07a3.68,3.68,0,0,1-.79-.06,6,6,0,0,1,.9-.06l2.36-.07c2-.05,4.77-.1,8-.12l-.25.25c0-.74,0-1.5,0-2.29v-2.42h0l.26.26c-4.39,0-8.36,0-11.24-.07l.19-.19c0,1.42-.07,2.58-.1,3.41A10.45,10.45,0,0,1,312.86,452.06Z" style="fill:#263238"></path><path d="M168.47,430.61a82,82,0,0,1-9.17.26,82.29,82.29,0,0,1-9.18-.26,79.49,79.49,0,0,1,9.18-.26A79.24,79.24,0,0,1,168.47,430.61Z" style="fill:#fff"></path><path d="M194.29,430.77a77.9,77.9,0,0,1-8.93.26,77.9,77.9,0,0,1-8.93-.26,75.26,75.26,0,0,1,8.93-.26A75.26,75.26,0,0,1,194.29,430.77Z" style="fill:#fff"></path><path d="M220.44,430.77a76.6,76.6,0,0,1-8.85.26,76.46,76.46,0,0,1-8.85-.26,73.86,73.86,0,0,1,8.85-.26A74,74,0,0,1,220.44,430.77Z" style="fill:#fff"></path><path d="M158.59,377.77a10.63,10.63,0,0,0-2.88.43,7.92,7.92,0,0,0-2.68,1.59,9.33,9.33,0,0,0-2.21,3.12,15.1,15.1,0,0,0-1.08,6.91c.11,1.82.29,2.95.21,3s-.12-.26-.23-.77a18.38,18.38,0,0,1-.34-2.16,14.1,14.1,0,0,1,1-7.15,9.49,9.49,0,0,1,2.37-3.27,7.86,7.86,0,0,1,2.89-1.58,6.07,6.07,0,0,1,2.2-.24A2,2,0,0,1,158.59,377.77Z" style="fill:#fff"></path><path d="M184.88,376.79c0,.08-.87.18-2.18.69a10.31,10.31,0,0,0-6.53,8.13c-.22,1.39-.12,2.28-.21,2.29a5.4,5.4,0,0,1-.16-2.34,9.79,9.79,0,0,1,6.77-8.42A4.91,4.91,0,0,1,184.88,376.79Z" style="fill:#fff"></path><path d="M210.85,377.75c0,.08-.8.18-2,.63a10.86,10.86,0,0,0-6.74,7c-.39,1.24-.47,2-.55,2a4.77,4.77,0,0,1,.2-2.14,10.25,10.25,0,0,1,2.52-4.54,10.12,10.12,0,0,1,4.45-2.68A4.78,4.78,0,0,1,210.85,377.75Z" style="fill:#fff"></path><path d="M251.43,383.29c0,.1-1.64.53-4,1.9a21,21,0,0,0-10.61,17.58,43.06,43.06,0,0,0,.2,4.47,4.62,4.62,0,0,1-.3-1.18,18.68,18.68,0,0,1-.27-3.29,20.38,20.38,0,0,1,10.8-17.9,18.14,18.14,0,0,1,3-1.3A4.59,4.59,0,0,1,251.43,383.29Z" style="fill:#fff"></path><path d="M299.18,377.06a14.82,14.82,0,0,0-3.44,4.36,15.12,15.12,0,0,0-1.13,5.43,3.78,3.78,0,0,1-.24-1.67,9.54,9.54,0,0,1,.9-4,9.74,9.74,0,0,1,2.47-3.26A3.65,3.65,0,0,1,299.18,377.06Z" style="fill:#fff"></path><path d="M312.23,430.52a72.72,72.72,0,0,1-8.78.26,72.72,72.72,0,0,1-8.78-.26,75.28,75.28,0,0,1,8.78-.26A75.28,75.28,0,0,1,312.23,430.52Z" style="fill:#fff"></path><path d="M343.26,430.73a92,92,0,0,1-9.7.26,91.8,91.8,0,0,1-9.7-.26,88.68,88.68,0,0,1,9.7-.26A88.83,88.83,0,0,1,343.26,430.73Z" style="fill:#fff"></path><path d="M333.86,376.71c0,.09-1,.06-2.56.5a10.15,10.15,0,0,0-7.43,9c-.14,1.6.09,2.59,0,2.61s-.12-.23-.22-.69a8.53,8.53,0,0,1-.14-1.95,9.87,9.87,0,0,1,7.7-9.34,8,8,0,0,1,1.94-.23A1.6,1.6,0,0,1,333.86,376.71Z" style="fill:#fff"></path><path d="M357.1,378.39c0,.08-.62.41-1.53,1.14a11,11,0,0,0-4,7.83c-.06,1.16.06,1.89,0,1.91a4.47,4.47,0,0,1-.34-1.91,9.83,9.83,0,0,1,1.09-4.57,9.68,9.68,0,0,1,3.06-3.55A4.24,4.24,0,0,1,357.1,378.39Z" style="fill:#fff"></path><path d="M370.4,431.14a91.68,91.68,0,0,1-9.69.26,91.8,91.8,0,0,1-9.7-.26,88.68,88.68,0,0,1,9.7-.26A88.57,88.57,0,0,1,370.4,431.14Z" style="fill:#fff"></path><path d="M256.38,385h3.87A17.72,17.72,0,0,1,278,402.75v66.1a0,0,0,0,1,0,0h-39.3a0,0,0,0,1,0,0v-66.1A17.72,17.72,0,0,1,256.38,385Z" style="fill:#263238"></path><path d="M244.84,469.34c-.14,0-.26-17.74-.26-39.62s.12-39.61.26-39.61.26,17.73.26,39.61S245,469.34,244.84,469.34Z" style="fill:#455a64"></path><path d="M251.63,469.09c-.14,0-.26-18.45-.26-41.21s.12-41.21.26-41.21.26,18.45.26,41.21S251.77,469.09,251.63,469.09Z" style="fill:#455a64"></path><path d="M258.42,468.15a.64.64,0,0,1,0,.24c0,.2,0,.44,0,.74h-.11c-.12-4.1-.2-21.21-.2-41.69,0-11.77,0-22.42.07-30.19,0-3.82.07-6.94.09-9.15,0-1,0-1.87,0-2.48a4.93,4.93,0,0,1,.06-.87,8.47,8.47,0,0,1,.05.87c0,.61,0,1.44,0,2.48,0,2.21.05,5.33.08,9.15,0,7.77,0,18.42.08,30.19,0,20.48-.09,37.59-.21,41.69h-.11c0-.3,0-.54,0-.74A.75.75,0,0,1,258.42,468.15Z" style="fill:#455a64"></path><path d="M265.2,468.35c-.14,0-.26-18.37-.26-41s.12-41.05.26-41.05.26,18.38.26,41.05S265.35,468.35,265.2,468.35Z" style="fill:#455a64"></path><path d="M272,390.58c.14,0,.26,17.29.26,38.62s-.12,38.63-.26,38.63-.26-17.29-.26-38.63S271.85,390.58,272,390.58Z" style="fill:#455a64"></path><path d="M278.52,452.12c0,.14-9,.26-20.21.26s-20.2-.12-20.2-.26,9-.26,20.2-.26S278.52,452,278.52,452.12Z" style="fill:#455a64"></path><path d="M278.52,431.14c0,.14-9,.26-20.21.26s-20.2-.12-20.2-.26,9-.26,20.2-.26S278.52,431,278.52,431.14Z" style="fill:#455a64"></path><path d="M278.52,410.16c0,.14-9,.26-20.21.26s-20.2-.12-20.2-.26,9-.26,20.2-.26S278.52,410,278.52,410.16Z" style="fill:#455a64"></path><path d="M270.4,389.17a22.4,22.4,0,0,1-3.54.19c-2.18.05-5.2.08-8.54.08s-6.35,0-8.54-.08a22.33,22.33,0,0,1-3.53-.19,25.05,25.05,0,0,1,3.53-.18c2.19-.05,5.21-.08,8.54-.08s6.36,0,8.54.08A25.13,25.13,0,0,1,270.4,389.17Z" style="fill:#455a64"></path><path d="M259.65,253.57a34.11,34.11,0,0,1-5.9.26,34,34,0,0,1-5.89-.26,32.88,32.88,0,0,1,5.89-.26A33,33,0,0,1,259.65,253.57Z" style="fill:#fff"></path><path d="M136.81,348.33c.15,0,.26,26.57.26,59.33S137,467,136.81,467s-.26-26.56-.26-59.33S136.67,348.33,136.81,348.33Z" style="fill:#263238"></path><path d="M378.13,343c.14,0,.26,27.86.26,62.22s-.12,62.22-.26,62.22-.26-27.86-.26-62.22S378,343,378.13,343Z" style="fill:#263238"></path></g></svg>
