<svg xmlns="http://www.w3.org/2000/svg" viewBox="0 0 500 500"><g id="freepik--Floor--inject-43"><polygon points="38.13 386.04 91.1 385.79 144.06 385.71 250 385.54 355.94 385.7 408.9 385.79 461.87 386.04 408.9 386.28 355.94 386.37 250 386.54 144.06 386.37 91.1 386.28 38.13 386.04" style="fill:#263238"></polygon></g><g id="freepik--Moon--inject-43"><circle cx="182.84" cy="65.68" r="28.18" style="fill:#7E57C2"></circle><circle cx="182.84" cy="65.68" r="28.18" style="fill:#fff;opacity:0.5"></circle><path d="M168.31,78.29a2.5,2.5,0,0,1,.81,1.81,2.76,2.76,0,0,1-.8,2,2.48,2.48,0,0,1-2.06.7,2.92,2.92,0,0,1-1.78-.84,9.55,9.55,0,0,0,1.76-.12,2.22,2.22,0,0,0,1.2-.61,2.78,2.78,0,0,0,.72-1.22A5.1,5.1,0,0,0,168.31,78.29Z" style="opacity:0.1"></path><path d="M164.82,81a1.61,1.61,0,0,1-.7-1.24,1.9,1.9,0,0,1,.56-1.48,1.74,1.74,0,0,1,1.54-.5,1.89,1.89,0,0,1,1.21.73,8.27,8.27,0,0,0-1.19.24,1.51,1.51,0,0,0-.69.39,2.31,2.31,0,0,0-.47.71A4.36,4.36,0,0,0,164.82,81Z" style="opacity:0.1"></path><path d="M202.75,51.76a2.52,2.52,0,0,1-.61,1.88,2.73,2.73,0,0,1-1.92,1,2.45,2.45,0,0,1-2-.84,2.93,2.93,0,0,1-.76-1.81A8.81,8.81,0,0,0,198.84,53a2.21,2.21,0,0,0,1.31.36,2.85,2.85,0,0,0,1.34-.45A5.22,5.22,0,0,0,202.75,51.76Z" style="opacity:0.1"></path><path d="M198.32,51.48a1.6,1.6,0,0,1,.3-1.39,2,2,0,0,1,1.4-.74,1.77,1.77,0,0,1,1.48.65,1.84,1.84,0,0,1,.42,1.35,10.86,10.86,0,0,0-1-.61,1.51,1.51,0,0,0-.78-.16,2.28,2.28,0,0,0-.83.22A4.28,4.28,0,0,0,198.32,51.48Z" style="opacity:0.1"></path><g style="opacity:0.1"><path d="M199.28,66.82a4.78,4.78,0,0,1,3.52,2.56,5.3,5.3,0,1,0-8.27,4.89,4.83,4.83,0,0,1,4.75-7.45Z"></path></g><path d="M204.84,68.83a6.82,6.82,0,0,1-.1,4.14,8.05,8.05,0,0,1-2.36,3.53,5.86,5.86,0,0,1-4,1.49,6.26,6.26,0,0,1-3.86-1.51,8.47,8.47,0,0,0,3.85.69,7.06,7.06,0,0,0,.92-.15,5,5,0,0,0,.87-.31,6.1,6.1,0,0,0,1.56-1c.24-.21.47-.43.7-.66s.43-.47.61-.74a8.18,8.18,0,0,0,1-1.64A9.47,9.47,0,0,0,204.84,68.83Z" style="opacity:0.1"></path><path d="M169.22,50.39a2.09,2.09,0,0,1,1.46,1.23,2.32,2.32,0,1,0-3.76,1.88A2,2,0,0,1,166.7,52,2.1,2.1,0,0,1,169.22,50.39Z" style="opacity:0.1"></path><path d="M171.59,51.45a2.85,2.85,0,0,1-.12,1.82,3.42,3.42,0,0,1-1.15,1.51,2.57,2.57,0,0,1-1.85.52,2.7,2.7,0,0,1-1.64-.83,4,4,0,0,0,1.66.35,2.48,2.48,0,0,0,1.46-.53A4.2,4.2,0,0,0,171.59,51.45Z" style="opacity:0.1"></path><path d="M178.28,83.06a3,3,0,0,1,2.34,1.36,3.3,3.3,0,1,0-4.8,3.55,3,3,0,0,1,2.46-4.91Z" style="opacity:0.1"></path><path d="M181.85,84a4.22,4.22,0,0,1,.19,2.56,5,5,0,0,1-1.23,2.33A3.62,3.62,0,0,1,178.42,90a3.93,3.93,0,0,1-2.49-.67,5.2,5.2,0,0,0,2.43.2,3.65,3.65,0,0,0,2-1.12,5.72,5.72,0,0,0,1.22-2A5.81,5.81,0,0,0,181.85,84Z" style="opacity:0.1"></path></g><g id="freepik--Bats--inject-43"><path d="M136.25,47.59s-.59,11.06-6.39,16.47c-.68.63-4.1-3.94-4.1-3.94l-.19,2.11a3.13,3.13,0,0,0-3.38,1.55l-1.85-1.87s1.35,5.59.76,6.67S108,66.45,104.28,62c-.38-.46-3.28,7.38-10.12,10.74,0,0,6.54-.83,9.61,3.77,0,0,7.57-5.28,12.67,2.77,0,0,6.27-6.54,14.19.21,0,0-1.38-8.43,8.79-11,0,0-2.1-9,6.66-12.54,0,0-.66-7.66,5.46-11.8A38.64,38.64,0,0,1,136.25,47.59Z" style="fill:#263238"></path><path d="M431.82,54s-5,6.35-10.7,7.15c-.66.1-.8-4.06-.8-4.06l-1,1.18a2.26,2.26,0,0,0-2.65-.49l-.33-1.89s-1.53,3.9-2.33,4.3-6.94-6.76-7.3-10.93c0-.44-5,3-10.52,2.18,0,0,4.25,2.23,4.15,6.26,0,0,6.73,0,6.41,7,0,0,6.47-1.29,8.37,6,0,0,2.7-5.6,9.84-2.88,0,0,2.5-6.25,9.22-4.7,0,0,2.8-4.85,8.18-4.76A28,28,0,0,1,431.82,54Z" style="fill:#263238"></path><path d="M441.61,139.67s-.81,5-3.72,7.21c-.34.25-1.68-2-1.68-2l-.19,1a1.43,1.43,0,0,0-1.62.54l-.75-.95s.35,2.62,0,3.08-5.88-1.61-7.35-3.8c-.15-.23-1.86,3.21-5.14,4.41,0,0,3-.06,4.2,2.19a4,4,0,0,1,5.65,1.87s3.17-2.67,6.46.79c0,0-.22-3.92,4.55-4.6a5,5,0,0,1,3.64-5.39,6.29,6.29,0,0,1,3.07-5.12A17.66,17.66,0,0,1,441.61,139.67Z" style="fill:#263238"></path><path d="M303.52,86.19s-.81,5-3.72,7.2c-.34.26-1.68-2-1.68-2l-.19.95a1.41,1.41,0,0,0-1.61.54l-.75-.94s.34,2.61,0,3.08-5.88-1.61-7.35-3.8c-.15-.23-1.85,3.2-5.14,4.4,0,0,3-.06,4.2,2.19a4,4,0,0,1,5.65,1.88s3.18-2.68,6.46.78c0,0-.22-3.91,4.55-4.59a5,5,0,0,1,3.65-5.4,6.27,6.27,0,0,1,3.06-5.12A17.77,17.77,0,0,1,303.52,86.19Z" style="fill:#263238"></path><path d="M73.2,166.13s-3.7,3.48-7.34,3.43c-.43,0-.11-2.6-.11-2.6l-.74.64A1.43,1.43,0,0,0,63.4,167l0-1.21s-1.32,2.28-1.86,2.45-3.68-4.86-3.5-7.5c0-.27-3.43,1.41-6.77.36,0,0,2.44,1.79,2,4.29a4,4,0,0,1,3.32,4.94s4.15-.18,4.64,4.56c0,0,2.22-3.23,6.41-.86a5,5,0,0,1,6.18-2,6.29,6.29,0,0,1,5.55-2.18A17.68,17.68,0,0,1,73.2,166.13Z" style="fill:#263238"></path></g><g id="freepik--Shadow--inject-43"><ellipse cx="250" cy="448.84" rx="206.63" ry="28.45" style="fill:#ebebeb"></ellipse></g><g id="freepik--character-2--inject-43"><path d="M244.29,88.62s11.89,1.69,14.13,3.19,10.05,8.92,10.05,8.92,7.47-25.09,7.43-27.7-1.59-15.13-.82-17.22,5.48-25.47,4.95-25.17S263.74,51.86,262.8,54s-2.12,9.43-3,10.37S244.29,88.62,244.29,88.62Z" style="fill:#455a64"></path><path d="M268.47,100.73s-7.81-7.42-10.05-8.92-14.13-3.19-14.13-3.19S246,86,248.2,82.39l23.59,6.93C270.07,95.35,268.47,100.73,268.47,100.73Z" style="fill:#263238"></path><ellipse cx="253.6" cy="106.1" rx="18.22" ry="27.26" transform="translate(44.17 284.17) rotate(-63.08)" style="fill:#455a64"></ellipse><path d="M241.49,95.84c-8.08,7.61-5.39,18.19-8.68,24.1-2,3.61-8.81,7.59-10,11.72-2,6.77,3.59,9,2.47,12.66-1.58,5.22-8.34,5.06-9.26,13.54S224.43,175,246,176.65s33.15-6.83,33.67-14-6.71-9.3-7.38-14.63c-.43-3.41,3.91-5.94,3.92-12.24s-6.05-8.12-7.09-13.43,1.28-18.37-6.61-24.72S245.48,92.08,241.49,95.84Z" style="fill:#263238"></path><path d="M242.46,96a18.15,18.15,0,0,0-5.3,6.74,39.89,39.89,0,0,0-2.78,8.76,24.27,24.27,0,0,1-1.5,5.25,13.24,13.24,0,0,1-2.76,3.75c-2.25,2.24-5,4-7,6.47s-3.34,5.49-2.44,8.59c.48,1.68,1.63,3,2.36,4.59s1,3.34-.2,4.64c-1,1.1-2.58,1.65-3.77,2.57a13.64,13.64,0,0,0-3,3.22,11,11,0,0,0-1.7,8.55c1.5,6.8,7.92,10.48,13.8,12.72l2.47.92c.13.05.23-.14.1-.2-5.91-2.45-12.77-5.34-15.24-11.92a10.27,10.27,0,0,1,.7-8.88,13,13,0,0,1,3-3.42c1.14-.93,2.48-1.52,3.64-2.4a4.05,4.05,0,0,0,1.7-3.68,10,10,0,0,0-1.75-4.33,8.31,8.31,0,0,1-1.53-4.56,9,9,0,0,1,1.57-4.46c1.72-2.7,4.35-4.51,6.68-6.59a14.9,14.9,0,0,0,5-7.6c.39-1.59.61-3.21.94-4.81a41.16,41.16,0,0,1,1.14-4.4,20.85,20.85,0,0,1,4.28-7.84,11.62,11.62,0,0,1,1.73-1.56C242.61,96.06,242.53,95.94,242.46,96Z" style="fill:#263238"></path><path d="M280.48,157.35a8.4,8.4,0,0,0-1.6-3.15c-.78-.95-1.71-1.73-2.57-2.6a6.22,6.22,0,0,1-1.86-2.91,6,6,0,0,1,.81-4,31.33,31.33,0,0,0,1.79-3.91,14.13,14.13,0,0,0,.68-4.14,14.42,14.42,0,0,0-2.44-8.11c-.78-1.2-1.65-2.34-2.43-3.54a17.84,17.84,0,0,1-2.05-4.21c-1.09-3.28-1.42-6.77-2.32-10.11a53.44,53.44,0,0,0-3.84-9.86c0-.08-.15,0-.11.07a46.58,46.58,0,0,1,3.36,8.92c.79,2.92,1.15,5.92,1.76,8.88a23,23,0,0,0,1.24,4.25,23.62,23.62,0,0,0,2,3.62c1.53,2.37,3.12,4.71,3.62,7.57a13.77,13.77,0,0,1-1.11,8.3c-1.05,2.23-2.56,4.7-1.48,7.23.91,2.14,3,3.37,4.38,5.12a8.87,8.87,0,0,1,1.7,6.91c-.95,6.21-6.88,9.49-12.53,10a.14.14,0,0,0,0,.28c4.91-.23,10.18-2.63,12.33-7.43A10.92,10.92,0,0,0,280.48,157.35Z" style="fill:#263238"></path><path d="M247.78,141.43c-7.45,8.86-29.64,35.48-38.56,34.57-6.46-.66-19.77-20.53-24.17-31-3.23-7.74,18.52-21.15,21.62-17.3,4.37,5.42,5.64,20.55,8.05,21.37,1.68.57,7.24-4.05,25.75-13.57C250,130.58,252.23,136.14,247.78,141.43Z" style="fill:#ffc4c0"></path><path d="M186.5,146.57c-1.82-2.62-10.74-17-12-21s-4-15.77-1-17,4,2.12,4,2.12-.36-5.15,2.74-6.14,4.6,4.32,4.6,4.32,0-5.32,3.18-6.09,3.78,4.83,3.78,4.83-.22-4.86,2.66-4.4c3.46.56,2.84,9.57,4.54,13.88.38,1,9.22,19.31,9.22,19.31Z" style="fill:#ffc4c0"></path><path d="M191.81,107.14c-.44,6.63.51,9.61,3.63,15.35.06.12-.09.23-.17.12-3.56-5.35-5.3-8.91-3.78-15.51C191.56,106.78,191.83,106.83,191.81,107.14Z" style="fill:#263238"></path><path d="M185,108.36c.14,6.92,1.15,10.16,4,16.42,0,.09-.1.16-.15.08-3.28-5.91-4.93-9.5-4.17-16.44C184.64,108.1,185,108,185,108.36Z" style="fill:#263238"></path><path d="M177.73,111c.62,6.69,1.57,10.29,5.09,16,.09.13-.1.26-.2.14-4.16-5.49-5.38-10-5.09-16.12C177.54,110.64,177.69,110.6,177.73,111Z" style="fill:#263238"></path><path d="M210.11,140.16s2-8.07,2.16-11.81-4.58-17.85-7.69-17c-4,1.09-2.89,9.77-1.8,14,0,0-9.27,2.51-9.82,8.91S210.11,140.16,210.11,140.16Z" style="fill:#ffc4c0"></path><path d="M203.58,112c-2.94,3.63-1.14,9-.38,13.16a.38.38,0,0,1-.42.47c-3.82,1.31-8.82,4.27-10,8.37a.1.1,0,0,1-.19,0c.65-4.57,5.33-7.87,9.6-9-.84-4.23-2.41-9.72,1.35-13A0,0,0,1,1,203.58,112Z" style="fill:#263238"></path><path d="M211.66,138.6l-24.22,13.29s.05,7.57,1.41,9.48S203.6,177,210.08,176.86s29.08-23.54,35.69-32,6.5-15.53-8.15-9S216,148.16,215.4,147.66,211.66,138.6,211.66,138.6Z" style="fill:#a6a6a6"></path><path d="M206.05,146.73c-2,1.05-3.94,2.11-5.89,3.2-3.9,2.18-7.75,4.45-11.57,6.77a.13.13,0,0,0,.12.22c4-2,7.93-4.12,11.84-6.3,1.95-1.08,3.88-2.2,5.81-3.33s3.8-2.36,5.74-3.48a.08.08,0,0,0-.08-.13C210.05,144.74,208,145.67,206.05,146.73Z" style="fill:#263238"></path><path d="M219.46,154.56c-.36-.44-.75-.86-1.14-1.26a.36.36,0,0,1,0-.09c-.82-1.89-1.7-3.74-2.67-5.56,0-.08-.17,0-.14.07.73,2,1.47,3.93,2.26,5.88s1.68,3.74,2.54,5.61c0,0,.1,0,.08,0-.57-1.84-1.13-3.66-1.86-5.44.28.31.54.63.8.95.47.62.9,1.27,1.35,1.9.05.06.14,0,.1-.06A9.51,9.51,0,0,0,219.46,154.56Z" style="fill:#263238"></path><path d="M199.67,409c.15,0,.24-.1.25-.14A1.53,1.53,0,0,0,199.67,409Z" style="fill:#7E57C2"></path><path d="M180.41,426.62c1.42.43,27.73-.11,46.87-1,4.43-.2,8.48-.42,11.75-.65,4.5-.31,7.52-.63,8-1,.83-.56,1.52-25.4,1.23-28.32l-40.09,1,0,7.64s-23.49,11.28-25.86,13.27S178.23,426,180.41,426.62Z" style="fill:#455a64"></path><path d="M181.81,424.1c10.4-.54,52.41-1.72,62.73-1.47.09,0,.09.06,0,.07-10.3.76-52.31,1.61-62.73,1.57C181.59,424.27,181.59,424.11,181.81,424.1Z" style="fill:#263238"></path><path d="M207.23,402.13c4.07-.88,9.1-.38,12.31,2.45.12.11,0,.28-.17.25a57.11,57.11,0,0,0-12.11-2.18A.26.26,0,0,1,207.23,402.13Z" style="fill:#263238"></path><path d="M204.32,404c4.08-.87,9.1-.38,12.31,2.45.13.11,0,.29-.17.25a57.11,57.11,0,0,0-12.11-2.18A.26.26,0,0,1,204.32,404Z" style="fill:#263238"></path><path d="M201.41,405.85c4.08-.87,9.1-.38,12.31,2.45.13.11,0,.29-.16.25a58,58,0,0,0-12.12-2.18A.26.26,0,0,1,201.41,405.85Z" style="fill:#263238"></path><path d="M198.5,407.72c4.08-.88,9.11-.39,12.32,2.45.12.11,0,.28-.17.24a57.83,57.83,0,0,0-12.12-2.18A.26.26,0,0,1,198.5,407.72Z" style="fill:#263238"></path><path d="M225.52,425.73l1.76-.08c4.43-.2,8.48-.43,11.74-.65,4.51-.32,7.53-.64,8-.95s1.11-13,1.26-21.32Z" style="opacity:0.1"></path><path d="M256.57,410.71c.14,0,.22-.1.23-.14Z" style="fill:#7E57C2"></path><path d="M239.56,429.86c1.44.33,27.65-2,46.69-4.22,4.4-.51,8.43-1,11.67-1.45,4.47-.63,7.46-1.16,7.92-1.52.79-.62-.24-25.44-.73-28.34l-39.92,3.82.54,7.63s-22.65,12.88-24.88,15S237.33,429.33,239.56,429.86Z" style="fill:#455a64"></path><path d="M240.78,427.24c10.34-1.25,52.16-5.34,62.48-5.8.08,0,.09.05,0,.06-10.22,1.47-52.07,5.23-62.47,5.91C240.57,427.43,240.56,427.27,240.78,427.24Z" style="fill:#263238"></path><path d="M264.62,403.56c4-1.15,9.05-1,12.45,1.6.13.1,0,.28-.15.26a57.87,57.87,0,0,0-12.24-1.34A.26.26,0,0,1,264.62,403.56Z" style="fill:#263238"></path><path d="M261.84,405.62c4-1.15,9.06-1,12.45,1.6.14.1,0,.28-.15.25a57.06,57.06,0,0,0-12.23-1.33A.27.27,0,0,1,261.84,405.62Z" style="fill:#263238"></path><path d="M259.07,407.68c4-1.15,9.05-1,12.45,1.6.13.1,0,.28-.15.25a57.06,57.06,0,0,0-12.23-1.33A.27.27,0,0,1,259.07,407.68Z" style="fill:#263238"></path><path d="M256.3,409.74c4-1.15,9.05-1,12.45,1.59.13.11,0,.29-.15.26a57.8,57.8,0,0,0-12.24-1.34A.26.26,0,0,1,256.3,409.74Z" style="fill:#263238"></path><path d="M279.24,188.68c-1.76.81-48.28,1-49.21.58l2.51-21a26.13,26.13,0,0,1-3-11.21c0-5.81,13.29-21.7,14.29-22.55,4-3.43,8.11-3.89,11.95-2.41h0c4.49,2,9.51,10.42,18.1,32.37A90.27,90.27,0,0,1,279.24,188.68Z" style="fill:#a6a6a6"></path><path d="M237.45,141.87c-1.15,1.72-2.41,3.39-3.6,5.09.5-1.22,1-2.45,1.55-3.65,0,0,0,0,0,0a26,26,0,0,0-2.13,4.53,37.25,37.25,0,0,0-2.42,4,16.58,16.58,0,0,0-1.74,5.34,13.74,13.74,0,0,0,.53,5.59,36.48,36.48,0,0,0,2.52,6c.13.26.49,0,.38-.21-1.41-3.42-3-7-2.64-10.79s2.23-7.1,4.09-10.27a51.1,51.1,0,0,1,3.61-5.58C237.63,141.87,237.5,141.79,237.45,141.87Z" style="fill:#263238"></path><path d="M256.24,141.83c6.73,9.42,31.34,29.73,40.31,29.53,6.49-.15,27.49-19.66,33-26.38,5.32-6.47-17.05-21.13-20.44-17.55-4.79,5.06-15,19.36-17.46,20-1.73.44-12.11-5-29.6-13.18C252.39,129.69,252.22,136.21,256.24,141.83Z" style="fill:#ffc4c0"></path><path d="M326.8,147.73c2.45-2,14.87-13.48,17.13-17s8-14.15,5.49-16.15-4.46,1-4.46,1,1.73-4.87-1-6.66-5.59,3-5.59,3,1.41-5.13-1.44-6.72-4.92,3.65-4.92,3.65,1.5-4.63-1.39-5c-3.49-.39-5.29,8.46-8.08,12.17-.63.84-14,16.15-14,16.15Z" style="fill:#ffc4c0"></path><path d="M332.19,108.31c-1.34,6.51-3.05,9.12-7.59,13.83-.09.09,0,.25.13.16,4.86-4.21,7.48-7.18,7.78-13.94C332.53,108,332.26,108,332.19,108.31Z" style="fill:#263238"></path><path d="M338.47,111.31c-2,6.63-3.82,9.48-8.21,14.77-.06.07.06.18.13.11,4.74-4.82,7.29-7.84,8.4-14.73C338.84,111.15,338.56,111,338.47,111.31Z" style="fill:#263238"></path><path d="M344.73,115.8c-2.39,6.29-4.26,9.5-9.18,14.08a.12.12,0,0,0,.16.19c5.47-4.18,7.84-8.17,9.2-14.17C345,115.49,344.88,115.41,344.73,115.8Z" style="fill:#263238"></path><path d="M305.75,135.26s.18-8.32,1.06-12,9.18-16,11.95-14.34c3.57,2.11.19,10.18-2,13.92,0,0,8.27,4.89,7.09,11.2S305.75,135.26,305.75,135.26Z" style="fill:#ffc4c0"></path><path d="M319.55,109.86c1.87,4.28-1.3,9-3.14,12.78a.39.39,0,0,0,.28.57c3.33,2.28,7.37,6.46,7.4,10.72a.1.1,0,0,0,.19,0c.59-4.58-3-9-6.85-11.28,1.95-3.84,4.92-8.72,2.16-12.83A0,0,0,0,0,319.55,109.86Z" style="fill:#263238"></path><path d="M258.46,146c7.78,10.13,23,21.83,32.19,25.69,7.54,3.16,26.75-7.4,29.7-9.31,2.19-1.41,5.12-7.56,5.12-7.56L305,130.86s-2.42-.33-5.49,2.64c-1.87,1.81-8.22,13-8.65,12.91s-16.69-7.43-24.56-11.23C256.52,130.45,245.78,129.49,258.46,146Z" style="fill:#a6a6a6"></path><path d="M313.2,151.55c-1.39-1.74-2.78-3.49-4.21-5.21-2.85-3.44-5.78-6.82-8.75-10.16a.12.12,0,0,0-.19.16c2.72,3.54,5.48,7.06,8.32,10.51,1.42,1.72,2.87,3.42,4.33,5.12s3,3.3,4.46,5a.08.08,0,0,0,.12-.1C315.88,155.13,314.59,153.3,313.2,151.55Z" style="fill:#263238"></path><path d="M292.08,144.82a43.68,43.68,0,0,0-4.59,7.36c-.44.44-.85.94-1.25,1.42-.56.67-1.1,1.36-1.61,2.06-.05.08.07.17.12.1.52-.7,1.06-1.38,1.63-2,.24-.28.49-.54.75-.81a45.87,45.87,0,0,0-2.22,5.64c0,.08.1.13.14.05,2.23-4.64,4.63-9.22,7.12-13.72C292.2,144.83,292.12,144.77,292.08,144.82Z" style="fill:#263238"></path><path d="M266.71,154.55c-.74-.77-1.5-1.52-2.25-2.29-1.49-1.52-3-3-4.43-4.61-.06-.06-.17,0-.12.09a55.53,55.53,0,0,0,4.08,4.84c-.27-.15-.54-.29-.8-.46-.53-.33-1-.73-1.54-1.07a.08.08,0,0,0-.09.12,6.24,6.24,0,0,0,1.47,1.19c.26.16.53.32.81.46a4.68,4.68,0,0,0,.45.2l.22.09c.58.6,1.18,1.19,1.8,1.74.77.7,4.53,4.13,5.41,4.69a.08.08,0,0,0,.1-.11C271.18,158.64,267.42,155.28,266.71,154.55Z" style="fill:#263238"></path><path d="M254.85,133.94c-.37.9-5.81,6.28-10.06,5.39-1.38-.28-.14-7.91-.14-7.91l0-.58-.51-8.18,10.22-4.47,1.46-.58s0,2.25,0,5c0,.13,0,.26,0,.4s0,.31,0,.46c0,.41,0,.84,0,1.27s0,.63,0,1,0,.67,0,1A52.53,52.53,0,0,1,254.85,133.94Z" style="fill:#ffc4c0"></path><path d="M255.74,122.65a16.42,16.42,0,0,1-11.13,8.19l-.51-8.18,10.22-4.47,1.46-.58S255.78,119.86,255.74,122.65Z" style="fill:#263238"></path><path d="M234.9,107.52c-4.56,13.63,3.09,17.9,6,18.88,2.67.89,11.87,3.58,17.82-9.5s1-19.52-4.95-21.88S239.46,93.89,234.9,107.52Z" style="fill:#ffc4c0"></path><path d="M239.27,106.12a8.31,8.31,0,0,0,1,0,1.62,1.62,0,0,0,1-.15.5.5,0,0,0,.16-.6,1.25,1.25,0,0,0-1.14-.6,1.85,1.85,0,0,0-1.29.34A.54.54,0,0,0,239.27,106.12Z" style="fill:#263238"></path><path d="M248.48,109.75c-.31-.13-.59-.29-.89-.44a1.66,1.66,0,0,1-.82-.63.52.52,0,0,1,.16-.6,1.25,1.25,0,0,1,1.28,0,1.87,1.87,0,0,1,1,.93A.55.55,0,0,1,248.48,109.75Z" style="fill:#263238"></path><path d="M243.47,119.47c-.28.18-.57.44-.92.4a2.52,2.52,0,0,1-1-.44,0,0,0,0,0-.05,0,1.32,1.32,0,0,0,1.12.76,1,1,0,0,0,.92-.7C243.58,119.47,243.51,119.44,243.47,119.47Z" style="fill:#263238"></path><path d="M240.37,115s-.55,1.37-.72,2c0,.07.14.14.36.21h0a3.29,3.29,0,0,0,3.39-.41.07.07,0,0,0-.07-.11,5,5,0,0,1-3.12.09c0-.2,1-2.31.93-2.34a6,6,0,0,0-1.6-.05c1.07-2.88,2.6-5.56,3.63-8.45a.1.1,0,0,0-.17-.08,49.17,49.17,0,0,0-4.29,8.93C238.57,115.23,240.08,115.08,240.37,115Z" style="fill:#263238"></path><path d="M240.14,117a3.92,3.92,0,0,0,1.14,1.65,1.78,1.78,0,0,0,1,.4c.81,0,1.05-.64,1.1-1.27a4.32,4.32,0,0,0,0-1A5.15,5.15,0,0,1,240.14,117Z" style="fill:#263238"></path><path d="M241.28,118.69a1.78,1.78,0,0,0,1,.4c.81,0,1.05-.64,1.1-1.27A1.85,1.85,0,0,0,241.28,118.69Z" style="fill:#ff9abb"></path><path d="M240.39,109.88s-.08,0-.09.06c-.21.92-.61,1.93-1.51,2,0,0,0,0,0,0C239.82,112.13,240.34,110.78,240.39,109.88Z" style="fill:#263238"></path><path d="M238.46,109.84a1.46,1.46,0,0,1-.3.16.63.63,0,0,1-.52,0c-.5-.27-.51-.9-.32-1.45,0,0,0-.05.05,0,.11.36.25.75.57.82a1.14,1.14,0,0,0,.68-.15A3.2,3.2,0,0,0,238.46,109.84Z" style="fill:#263238"></path><path d="M240.1,111.08a1.49,1.49,0,0,1-.5.6,1.07,1.07,0,0,1-.84.12,1,1,0,0,1-.62-.59,1.54,1.54,0,0,1-.07-.76,2.11,2.11,0,0,1,.09-.45,2,2,0,0,1,.46-.84,3.2,3.2,0,0,0-.16.68,3.26,3.26,0,0,0,0,.62c0,.43.15.82.47.89s.64-.09.89-.45a6.62,6.62,0,0,0,.6-1.19A3,3,0,0,1,240.1,111.08Z" style="fill:#263238"></path><path d="M245.69,111.44s.07.06.06.09c-.2.92-.27,2,.51,2.46a0,0,0,0,1,0,.05C245.25,113.71,245.36,112.28,245.69,111.44Z" style="fill:#263238"></path><path d="M247.46,112.22a1.11,1.11,0,0,0,.2.27.63.63,0,0,0,.49.19c.57,0,.84-.6.91-1.18,0,0,0-.07-.05,0-.25.28-.53.57-.86.5s-.38-.25-.55-.42A3.16,3.16,0,0,1,247.46,112.22Z" style="fill:#263238"></path><path d="M245.45,112.65a1.39,1.39,0,0,0,.2.75,1,1,0,0,0,.7.47,1,1,0,0,0,.82-.27,1.8,1.8,0,0,0,.39-.66,2.42,2.42,0,0,0,.1-.45,2,2,0,0,0-.06-.95,3.16,3.16,0,0,1-.14.68,4.17,4.17,0,0,1-.24.58c-.19.38-.48.68-.8.61s-.54-.37-.61-.79a7.37,7.37,0,0,1-.05-1.34A3,3,0,0,0,245.45,112.65Z" style="fill:#263238"></path><path d="M258.56,117.66a6,6,0,0,1-2.44-5.35,15.61,15.61,0,0,1-5.34-6.1c.05.31.36,2.54.56,3.68-8.71-3.28-10.28-10.66-10.28-10.66a15.51,15.51,0,0,0-4.93,5s.9-5.54,4.4-8.74a9,9,0,0,1,8.86-2.22,12.93,12.93,0,0,1,11.76,6C265.88,106.71,258.56,117.66,258.56,117.66Z" style="fill:#263238"></path><path d="M244.76,107.19a17,17,0,0,0,4.32,2.51s0,0,0,0a14.37,14.37,0,0,1-5.9-5.16,13.9,13.9,0,0,1-1.47-3.06,9.49,9.49,0,0,1-.59-3.65c0-.09-.13-.1-.14,0a11,11,0,0,0,.09,3.67,10,10,0,0,0,1.48,3.34,11.09,11.09,0,0,0,2.21,2.38" style="fill:#263238"></path><path d="M256.23,117.22s4.1-3.63,5.82-2.07-2.1,7.34-4.63,7.64a2.42,2.42,0,0,1-2.86-2Z" style="fill:#ffc4c0"></path><path d="M260.91,116.78a0,0,0,0,1,0,.07,6.13,6.13,0,0,0-4,3,1.34,1.34,0,0,1,2,.11s0,.1-.07.08a1.51,1.51,0,0,0-1.72.12,7.57,7.57,0,0,0-1.08,1.11c-.11.13-.35,0-.26-.17l0,0C256.32,119,258.63,116.45,260.91,116.78Z" style="fill:#263238"></path><path d="M230.07,189.3S209.3,259.82,207.53,276c-2.53,23.1-6.32,121.93-6.32,121.93s21,5.43,25.33,6.21,29.59-3.38,30.92-3.38,31.43-.67,37.25-1.33,20-6.82,20-6.82-17-103.75-18.54-108.91.8-39.61-4.21-64.2c-2.91-14.33-12.67-30.83-12.67-30.83Z" style="fill:#263238"></path><path d="M257.53,349.45c-1.83-7.71-3.79-15.38-5.69-23.06q-1.46-5.82-2.92-11.64c-.94-3.71-1.95-7.42-2.74-11.17A53.53,53.53,0,0,1,244.92,292c0-4,.33-8,.53-11.93.47-8.89.83-17.79,1.28-26.68,0-.32-.48-.3-.5,0-.56,8-1.17,16-1.75,24-.3,4-.59,8-.81,11.95A57.76,57.76,0,0,0,244,301a115.55,115.55,0,0,0,2.54,11.35c1,3.87,1.94,7.75,2.94,11.63q2.94,11.49,5.92,23c1.12,4.36,2.3,8.69,3.5,13s2.35,8.67,3.7,13c.05.17.29.09.26-.08C261.31,365,259.38,357.23,257.53,349.45Z" style="fill:#37474f"></path><path d="M247,330.49c-2.06-6.51-4.48-12.87-7.1-19.17-1.45-3.5-3-6.94-4.61-10.38-.15-.33-.72-.07-.59.27,2.52,6.27,4.81,12.64,7.11,19s4.53,12.77,6.71,19.19c1.23,3.62,2.34,7.29,3.62,10.89a.1.1,0,0,0,.2-.06A179.73,179.73,0,0,0,247,330.49Z" style="fill:#37474f"></path></g><g id="freepik--character-3--inject-43"><path d="M409.35,133.32s-7.27-9.55-9.67-10.78S387,118.11,387,118.11s18.27-18.75,20.57-20,14-6,15.44-7.68,19.56-17.19,19.56-16.58-10.59,24.56-12,26.41-7.2,6.45-7.59,7.67S409.35,133.32,409.35,133.32Z" style="fill:#263238"></path><path d="M387,118.1s10.29,3.21,12.69,4.43,9.67,10.79,9.67,10.79l3.53-6.45-17.54-17.23C390.91,114.08,387,118.1,387,118.1Z" style="fill:#37474f"></path><ellipse cx="391.43" cy="134.58" rx="18.22" ry="27.26" transform="matrix(0.59, -0.81, 0.81, 0.59, 53.18, 373.15)" style="fill:#263238"></ellipse><path d="M400.66,228s-11.33,101.61-11.57,102.9c0,.17-1.08,77.34-1.08,77.34H350s-1.15-64.59.42-79.67C352.41,309.34,365,228,365,228Z" style="fill:#f7a9a0"></path><path d="M322.86,450.67c2.08.69,61.48.32,63.73-1.13.86-.54,1.31-9.2,1.56-19.68v-.32c.06-2.16.1-4.39.12-6.64,0-.31,0-.62,0-.93.19-15.12,0-32.21,0-32.21H349.73l-.14,32.06,0,1.21.2,6.32,0,.65s-22.67,10.31-25,12.17S320.78,450,322.86,450.67Z" style="fill:#f7a9a0"></path><path d="M339.92,433.92c.14,0,.22-.08.23-.12Z" style="fill:#7E57C2"></path><path d="M321.7,451.05c1.37.45,27.07.44,45.78,0,4.33-.11,8.29-.25,11.49-.4,4.4-.22,7.35-.47,7.83-.78.83-.53,2-24.77,1.76-27.63l-39.16.23-.14,7.47s-23.16,10.55-25.51,12.44S319.58,450.35,321.7,451.05Z" style="fill:#263238"></path><path d="M323.11,448.62c10.17-.32,51.21-.65,61.29-.19.08,0,.08.06,0,.06-10.07.54-51.12.54-61.29.3C322.9,448.78,322.9,448.63,323.11,448.62Z" style="fill:#455a64"></path><path d="M348.37,427.67c4-.78,8.9-.2,12,2.63.12.11,0,.28-.17.24a56.19,56.19,0,0,0-11.78-2.37A.25.25,0,0,1,348.37,427.67Z" style="fill:#455a64"></path><path d="M345.49,429.43c4-.78,8.9-.2,12,2.63.12.11,0,.28-.17.24a56.28,56.28,0,0,0-11.79-2.37A.25.25,0,0,1,345.49,429.43Z" style="fill:#455a64"></path><path d="M342.62,431.19c4-.78,8.89-.19,12,2.64.12.1,0,.27-.17.23a57,57,0,0,0-11.78-2.37A.25.25,0,0,1,342.62,431.19Z" style="fill:#455a64"></path><path d="M339.74,433c4-.78,8.9-.19,12,2.64.12.11,0,.27-.17.23a56.83,56.83,0,0,0-11.78-2.37A.25.25,0,0,1,339.74,433Z" style="fill:#455a64"></path><path d="M400.66,228s-11.32,101.61-11.57,102.9c0,.07-.16,10.61-.34,23.9L364.91,228.68c.07-.45.11-.69.11-.69Z" style="fill:#263238"></path><path d="M365,228s11.91,24.43,16.74,36.14c0,0-13.69,72.74-12.78,81.84,1.51,15.08,23.12,64.75,23.12,64.75l36.71-12.47s-19-48.27-19.72-53.78c-.45-3.66,12.7-74,13.42-75.44,8.81-17.29-1.61-41-1.61-41Z" style="fill:#f7a9a0"></path><path d="M384.41,463.27c2.19-.14,57.12-22.73,58.66-24.92.6-.82-2.22-9-5.92-18.83l-.12-.3c-.76-2-1.55-4.1-2.38-6.2-.11-.29-.23-.58-.33-.87-5.49-14.09-11.49-28.58-11.49-28.58l-36.57,13.26,12.13,29.68.49,1.1,2.55,5.79.26.59s-17.16,18.06-18.6,20.64S382.23,463.42,384.41,463.27Z" style="fill:#f7a9a0"></path><path d="M394,441.35c.11-.1.17-.16.16-.2Z" style="fill:#7E57C2"></path><path d="M383.48,464.06c1.44-.1,25.26-9.74,42.44-17.17,4-1.73,7.59-3.33,10.5-4.67,4-1.85,6.64-3.19,7-3.66.56-.8-7.44-23.71-8.72-26.28l-36.22,14.89,2.66,7s-17.51,18.45-19,21.09S381.25,464.2,383.48,464.06Z" style="fill:#263238"></path><path d="M383.88,461.27c9.3-4.1,47.24-19.78,56.75-23.13.08,0,.1,0,0,.06-9.13,4.27-47.19,19.64-56.71,23.23C383.74,461.5,383.68,461.36,383.88,461.27Z" style="fill:#455a64"></path><path d="M399.45,432.39c3.41-2.22,8.17-3.52,12.08-2,.16,0,.07.27-.06.28a56,56,0,0,0-11.82,2.22A.25.25,0,0,1,399.45,432.39Z" style="fill:#455a64"></path><path d="M397.44,435.1c3.41-2.22,8.17-3.52,12.09-2,.15.05.07.27-.07.28a56,56,0,0,0-11.82,2.22A.25.25,0,0,1,397.44,435.1Z" style="fill:#455a64"></path><path d="M395.43,437.81c3.42-2.22,8.18-3.52,12.09-2,.15.05.07.27-.07.28a55.93,55.93,0,0,0-11.81,2.22A.26.26,0,0,1,395.43,437.81Z" style="fill:#455a64"></path><path d="M393.42,440.52c3.42-2.22,8.18-3.52,12.09-2,.15,0,.07.27-.07.28A56.05,56.05,0,0,0,393.63,441,.26.26,0,0,1,393.42,440.52Z" style="fill:#455a64"></path><path d="M365,228s-17.38,91.34-18.19,103.31-6.05,86.07-3.91,88.35,46.45.73,46.45.73,6.51,6,7.95,5.48c2.37-.81,44.14-13.58,49.46-22.21,1.05-1.7-25.5-59.88-25.88-62.7s5.1-68.34,5.27-70.17,2.66-13.3.83-24.11A66.43,66.43,0,0,0,420.9,228Z" style="fill:#37474f"></path><path d="M372.52,383.41c-2.18-6.5-4.27-13-6.42-19.52a149.27,149.27,0,0,1-5.24-18.77,82.29,82.29,0,0,1-.93-19.77c.38-7.49,1.18-15,1.09-22.47a.12.12,0,0,0-.24,0c-.21,13.37-3.38,26.66-2,40.05.67,6.56,2.62,12.92,4.79,19.12,2.24,6.39,4.56,12.76,6.87,19.12,1.32,3.61,2.59,7.22,3.92,10.82s2.8,7.33,4.17,11c.05.13.24.07.2-.05C376.66,396.42,374.69,389.89,372.52,383.41Z" style="fill:#263238"></path><path d="M359.79,368.88c-.37-2.07-.79-4.13-1.18-6.19-.79-4.12-1.61-8.23-2.39-12.35-.44-2.34-.92-4.68-1.4-7-.06-.29-.57-.21-.52.09,1.21,8.24,2.86,16.42,4.66,24.56a68.7,68.7,0,0,0,1.71,6.93c0,.08.17.06.16,0C360.62,372.87,360.14,370.87,359.79,368.88Z" style="fill:#263238"></path><path d="M383.27,219.09a38.39,38.39,0,0,0,8.35,4.49c-5.11-7.73-6.55-26.72-5.74-24.11,3.86,12.51,12.27,25.57,14.95,25.87h0c7.12,0,13.23-3.21,18.16-7.53l0,0c-6.44-8.63-8.34-27.88-7.84-26.77,5.34,11.93,14.35,18,15.76,17.75h0c4.61-6.76,6.74-13.13,5.92-13.62-5.93-3.54-11.82-14.14-17.33-25.44h0c-5.44-11.15-9.82-28.34-16.81-38-6.39-8.8-17.24-9-22.73-3.14C361.58,143.93,379.55,216.48,383.27,219.09Z" style="fill:#b73e35"></path><path d="M377,127.64a12.17,12.17,0,0,0-3.13,3.94,33.06,33.06,0,0,0-2.09,4.87A59.51,59.51,0,0,0,369.49,147c-1,7.2.25,20.85.92,28.06a149.65,149.65,0,0,0,3.83,21.29c.43,1.74.94,3.45,1.41,5.18l1.53,5.12,1.7,5.05,1.83,5-1.57-5.1-1.48-5.13-1.39-5.16c-.42-1.74-.88-3.45-1.26-5.2a161.89,161.89,0,0,1-3.59-21.17c-.76-7.13-1.94-20.66-1.18-27.8a60.58,60.58,0,0,1,2-10.5,32.77,32.77,0,0,1,1.86-4.9,18.64,18.64,0,0,1,1.29-2.22A8.42,8.42,0,0,1,377,127.64Z" style="fill:#b73e35"></path><path d="M433.28,193.09c-1.93-2.15-3.74-4.44-5.48-6.8s-3.42-4.77-5-7.27-3.08-5.07-4.46-7.73-2.67-5.4-4-8.1c-2.73-5.38-6.52-17.07-9.52-22.27-1.51-2.58-3.06-5.14-4.75-7.57a38.88,38.88,0,0,0-2.72-3.47,9.76,9.76,0,0,0-3.27-2.67,10.82,10.82,0,0,1,3.08,2.89,42.12,42.12,0,0,1,2.51,3.61c1.6,2.49,3.07,5.09,4.5,7.73,2.84,5.27,6.63,16.94,9.29,22.36,1.37,2.69,2.69,5.39,4.11,8.07a82.28,82.28,0,0,0,4.62,7.71A85.18,85.18,0,0,0,433.28,193.09Z" style="fill:#b73e35"></path><path d="M385.93,178.06c-19.26,0-36.95-2.25-42.74-5.54-7.23-4.11-23.14-29.4-24.26-46-.24-3.54,25.85-1.5,26.69.85,2.47,6.91,8.47,24.1,9.56,24.64,2.07,1,18.81,9.32,29.79,12C397.07,167,397.87,178.06,385.93,178.06Z" style="fill:#f7a9a0"></path><path d="M323,115.15c-.56,1.61-1.4,1.32-2.39-1.53s-2.47-15-6.66-14.11-1.84,18,.16,22.59S321,133.5,321,133.5C321.24,130.09,322.54,121.85,323,115.15Z" style="fill:#f7a9a0"></path><path d="M346.2,132.29c.24-9.64,1.13-21.64-4.15-31.15a5.38,5.38,0,0,0-2.57-2.42c-2.29-4.31-5-4.52-5-4.52-3.37-3.36-6.18-3.19-6.18-3.19s-2.75-5-6.06-3.87c-3.72,1.28.86,8.09,1.1,13.38.53,12.11-2.11,29.47-2.3,33Z" style="fill:#f7a9a0"></path><path d="M332.8,112.82a79.82,79.82,0,0,0-1.06-10.58,78.67,78.67,0,0,0-3.5-11.11.09.09,0,0,1,.17-.08A41.24,41.24,0,0,1,333,112.81C333,113,332.81,113,332.8,112.82Z" style="fill:#263238"></path><path d="M340.16,113.56c-.41-3.45-1.18-9.52-5.8-19.31,0,0,0-.07.06,0a37,37,0,0,1,5.9,19.33C340.33,113.76,340.19,113.79,340.16,113.56Z" style="fill:#263238"></path><path d="M344.12,113.89c-.93-5.85-2.25-9.42-4.65-15.14,0,0,0-.07.06,0,3.41,6.22,3.94,8.86,4.8,15.16C344.35,114.1,344.16,114.11,344.12,113.89Z" style="fill:#263238"></path><path d="M382.78,178.67c-3.66,0-32.79-.52-41.95-5.65s-20.5-23.28-21.52-25.82.94-10.53.94-10.53l26.54-6.94a10.44,10.44,0,0,1,4.33,3.5c1.45,2.31,3.77,18.44,4.06,18.8s19.38,7.56,30.43,11.38S401.56,178.69,382.78,178.67Z" style="fill:#dbdbdb"></path><path d="M341.88,137.18c-2.18.49-4.35,1-6.53,1.51-4.34,1.06-8.65,2.21-13,3.42a.13.13,0,0,0,.06.25c4.38-.9,8.75-1.85,13.09-2.9,2.17-.52,4.33-1.09,6.5-1.65s4.29-1.26,6.45-1.82a.08.08,0,1,0,0-.15C346.27,136.33,344.07,136.69,341.88,137.18Z" style="fill:#263238"></path><path d="M382.78,178.67c-2.16,0-13.24-.19-23.82-1.4L384,162.86l1.57.55C396.55,167.19,401.56,178.69,382.78,178.67Z" style="fill:#a6a6a6"></path><path d="M367.37,203.51,365,228.09l55.92-.1s-11-48.6-24.25-62c-6.63-6.7-14.09-5.91-18.69-.9-1.16,1.27-12.65,17.69-13.91,25C363,196.59,367.37,203.51,367.37,203.51Z" style="fill:#dbdbdb"></path><path d="M390.53,165.08c-.3.92-5.3,6.6-9.56,6-1.38-.19-.69-7.8-.69-7.8l-.08-.58-1.08-8,9.78-5.14,1.4-.67s.15,2.22.31,5l0,.4,0,.45c0,.41.06.83.07,1.25s0,.63,0,1l0,1A52.29,52.29,0,0,1,390.53,165.08Z" style="fill:#f7a9a0"></path><path d="M390.61,153.87a16.23,16.23,0,0,1-10.41,8.86l-1.08-8,9.78-5.14,1.4-.67S390.45,151.11,390.61,153.87Z" style="fill:#263238"></path><path d="M369,140.19c-4,13.65,3.72,17.59,6.67,18.45,2.67.78,11.87,3.1,17.26-10.06s.31-19.35-5.7-21.46S373,126.54,369,140.19Z" style="fill:#f7a9a0"></path><path d="M372.13,137c.33.05.65.05,1,.07a1.55,1.55,0,0,0,1-.11.5.5,0,0,0,.17-.59,1.24,1.24,0,0,0-1.1-.63,1.86,1.86,0,0,0-1.3.3A.54.54,0,0,0,372.13,137Z" style="fill:#b73e35"></path><path d="M381.08,139.7c-.31-.14-.57-.31-.86-.47a1.59,1.59,0,0,1-.8-.64.54.54,0,0,1,.18-.6,1.29,1.29,0,0,1,1.27.07,1.91,1.91,0,0,1,.93.95A.55.55,0,0,1,381.08,139.7Z" style="fill:#b73e35"></path><path d="M378.25,142.61s.06.06.05.1c-.33.91-.55,2,.19,2.59,0,0,0,.06,0,0C377.49,144.88,377.8,143.42,378.25,142.61Z" style="fill:#263238"></path><path d="M379.38,141.9c1.52.37.69,3.38-.72,3S378.11,141.6,379.38,141.9Z" style="fill:#263238"></path><path d="M379.93,142.23c.22.24.39.61.7.73s.72-.1,1.05-.33c0,0,.05,0,0,0-.15.58-.54,1.12-1.18,1s-.85-.7-.84-1.32C379.71,142.26,379.84,142.13,379.93,142.23Z" style="fill:#263238"></path><path d="M372.93,140.94s-.08,0-.09.06c-.22.95-.64,2-1.57,2.07,0,0,0,.05,0,.06C372.34,143.26,372.87,141.87,372.93,140.94Z" style="fill:#263238"></path><path d="M372.36,139.74c-1.48-.52-2.4,2.47-1,2.95S373.59,140.17,372.36,139.74Z" style="fill:#263238"></path><path d="M371.68,139.74c-.29.09-.61.3-.9.23s-.47-.48-.59-.85c0,0,0,0-.05,0a1.18,1.18,0,0,0,.32,1.5c.47.25,1-.12,1.3-.65C371.82,139.89,371.79,139.71,371.68,139.74Z" style="fill:#263238"></path><path d="M376.27,150.06a1.44,1.44,0,0,1-.92.37,2.39,2.39,0,0,1-1-.47,0,0,0,0,0-.05,0,1.29,1.29,0,0,0,1.08.79,1,1,0,0,0,.93-.67C376.38,150.07,376.31,150,376.27,150.06Z" style="fill:#263238"></path><path d="M373.36,145.57s-.6,1.33-.79,2c0,.06.13.14.35.21,0,0,0,0,0,0a3.21,3.21,0,0,0,3.36-.29c.07-.05,0-.14-.07-.11a4.91,4.91,0,0,1-3.08,0c0-.2,1.09-2.25,1-2.29a5.71,5.71,0,0,0-1.58-.1c1.15-2.81,2.75-5.42,3.87-8.24,0-.1-.11-.17-.16-.09a49,49,0,0,0-4.55,8.7C371.57,145.71,373.06,145.61,373.36,145.57Z" style="fill:#263238"></path><path d="M373.06,147.33a4,4,0,0,0,1,1.74,1.78,1.78,0,0,0,1,.47c.81.11,1.1-.55,1.2-1.17a4.41,4.41,0,0,0,0-1A5.15,5.15,0,0,1,373.06,147.33Z" style="fill:#263238"></path><path d="M374.06,149.07a1.78,1.78,0,0,0,1,.47c.81.11,1.1-.55,1.2-1.17A1.84,1.84,0,0,0,374.06,149.07Z" style="fill:#ff9abb"></path><path d="M391.72,148.42c-1.48-.49-4.27-5.64-2.45-12.9,0,0-1.18,6.63-.95,7.71s-1.55-2.9-.17-8.77a24.61,24.61,0,0,1-6.8,1.5c-3,0-4.64-.45-4.78-.7s4.25-.44,5.68-1.41c0,0-8.23,1.44-11.67.79-.4-.07,1.29-8.22,7.42-10.23s13.39,3.89,15,6.63c0,0,2.51,1.07,4.3,5.69S393.3,149,391.72,148.42Z" style="fill:#b73e35"></path><path d="M391.17,148.06s3.92-3.74,5.68-2.25-1.81,7.33-4.3,7.73a2.41,2.41,0,0,1-2.9-1.91Z" style="fill:#f7a9a0"></path><path d="M395.78,147.46a0,0,0,0,1,0,.06,6.12,6.12,0,0,0-3.83,3.11,1.33,1.33,0,0,1,2,0s0,.1-.06.08a1.48,1.48,0,0,0-1.7.18,7.36,7.36,0,0,0-1,1.14c-.11.13-.36,0-.27-.16l0,0C391.32,149.8,393.52,147.22,395.78,147.46Z" style="fill:#263238"></path><path d="M313.67,188.22s-8.57-6.75-14.38-10.91c-3.24-2.32-9.15-5.79-12.31-6.41-4.72-.91-25.08-1.74-25.38,3.19-.28,4.47,17.3,2.95,17.3,2.95s-17.87,0-17.22,5.4S282,183.52,282,183.52s-18.36.37-16.8,5.87c1.18,4.16,19.18,1.22,19.18,1.22s-15.78.42-14.75,4.75c1.14,4.78,17.93,3.11,17.93,3.11C292,209,298.44,212.22,303.3,213.94,304.47,214.36,313.67,188.22,313.67,188.22Z" style="fill:#f7a9a0"></path><path d="M285.2,176.88c-2.1-.08-4.23-.17-6.33-.07s-4.19.29-6.27.59a36.25,36.25,0,0,0-8,1.94c4.7-1.35,12.2-1.85,14.3-2s4.19-.32,6.28-.43C285.26,177,285.25,176.89,285.2,176.88Z" style="fill:#263238"></path><path d="M285.72,184.46c-2.69,0-5.35-.08-8,.06s-5.19.48-7.85.8c-.2,0-.12.13.08.11,2.67-.21,5.15-.2,7.82-.37s5.33-.46,8-.54A0,0,0,1,0,285.72,184.46Z" style="fill:#263238"></path><path d="M287.33,190.87a60.33,60.33,0,0,0-12.28,1c-.2,0-.08.16.13.14,4.07-.42,7.27-.78,12.15-1C287.4,191,287.42,190.88,287.33,190.87Z" style="fill:#263238"></path><path d="M392,187c8.62-10.73.26-14.09-8.52-9.57s-32.07,13.41-34.24,13.7S317.4,187.5,312,186.88s-13.26,24.57-11.41,26c3.59,2.68,43.29,5.28,52.25,3.2C364.69,213.27,386.64,193.76,392,187Z" style="fill:#f7a9a0"></path><path d="M392.39,188.54c-8.19,10.66-25.19,23.09-34.87,27.15-7.94,3.33-33,4.88-35.72,4.84s-9.36-4.92-9.36-4.92L314.78,187a29.87,29.87,0,0,1,5.83-1.81c2.69-.46,28,4.79,28.48,4.65s24.16-9.31,32.55-13.06C391.25,172.52,405.74,171.16,392.39,188.54Z" style="fill:#dbdbdb"></path><path d="M319.09,207.85c.25-2.22.5-4.44.71-6.66.42-4.45.74-8.91,1-13.37a.13.13,0,0,0-.25,0q-.89,6.64-1.54,13.31c-.22,2.23-.39,4.45-.57,6.68s-.21,4.47-.39,6.7a.08.08,0,0,0,.16,0C318.45,212.28,318.84,210.07,319.09,207.85Z" style="fill:#263238"></path><path d="M392.15,189.44a.09.09,0,1,0-.13-.12c-1.5,1.56-3.15,3-4.74,4.43s-3.08,2.93-4.65,4.37c-3.19,2.92-6.53,5.68-10,8.32-1,.75-2,1.46-3,2.22s-1.92,1.59-2.93,2.26a.08.08,0,1,0,.08.13c.89-.59,1.87-1.08,2.78-1.65s1.8-1.2,2.68-1.83c1.79-1.27,3.54-2.6,5.26-4,2.12-1.69,4.21-3.44,6.23-5.27a81.81,81.81,0,0,0,6.77-4.72c.1-.08,0-.24-.1-.17-1.76,1.12-3.51,2.29-5.2,3.54.69-.65,1.36-1.3,2-2C389,193.25,390.53,191.29,392.15,189.44Z" style="fill:#263238"></path><path d="M381.86,176.41c-1.26.5-2.57.89-3.83,1.38l-.37.15a18.28,18.28,0,0,0,2-1.7c.06-.06,0-.18-.1-.12-1,.77-1.92,1.52-2.92,2.23-.82.35-1.63.7-2.44,1.07-1.21.55-2.42,1.12-3.63,1.69s-2.59,1.42-3.94,2a.08.08,0,1,0,.06.15c1.29-.61,2.7-1,4-1.53s2.59-1.07,3.88-1.62,2.4-1,3.58-1.62,2.45-1.34,3.71-1.95C382,176.49,381.92,176.38,381.86,176.41Z" style="fill:#263238"></path></g><g id="freepik--character-1--inject-43"><path d="M115,145.72s7.27-9.56,9.67-10.79,12.69-4.43,12.69-4.43-18.27-18.75-20.58-20-14-6-15.43-7.68S81.8,85.65,81.8,86.26s10.59,24.57,12,26.41,7.2,6.45,7.6,7.68S115,145.72,115,145.72Z" style="fill:#37474f"></path><path d="M137.38,130.5s-10.29,3.21-12.69,4.43S115,145.72,115,145.72l-3.53-6.45L129,122C133.46,126.48,137.38,130.5,137.38,130.5Z" style="fill:#263238"></path><ellipse cx="132.94" cy="146.98" rx="27.26" ry="18.22" transform="translate(-60.88 105.64) rotate(-35.83)" style="fill:#37474f"></ellipse><path d="M120.17,237.28s11.32,101.61,11.57,102.9c0,.17,1.07,77.35,1.07,77.35h38s1.15-64.6-.43-79.67c-2-19.23-14.61-100.58-14.61-100.58Z" style="fill:#d3766a"></path><path d="M161.55,275,132.27,377.25c-.26-18.75-.51-37-.53-37.06-.24-1.29-11.56-102.91-11.56-102.91H155.8S158.48,254.52,161.55,275Z" style="fill:#263238"></path><path d="M198,460c-2.08.68-61.48.31-63.73-1.14-.86-.54-1.31-9.2-1.56-19.67v-.33c-.06-2.16-.1-4.38-.12-6.64,0-.31,0-.62,0-.93-.18-15.12,0-32.21,0-32.21H171.1l.14,32.06,0,1.21-.2,6.32,0,.65s22.67,10.31,25,12.17S200.05,459.29,198,460Z" style="fill:#d3766a"></path><path d="M180.91,443.21c-.14,0-.22-.08-.23-.11Z" style="fill:#7E57C2"></path><path d="M199.13,460.35c-1.38.45-27.08.44-45.79,0-4.32-.11-8.28-.24-11.48-.39-4.4-.22-7.35-.47-7.83-.78-.83-.54-2-24.78-1.76-27.63l39.16.23.14,7.46s23.15,10.55,25.51,12.44S201.25,459.65,199.13,460.35Z" style="fill:#37474f"></path><path d="M197.72,457.91c-10.17-.32-51.21-.64-61.29-.19-.08,0-.08.06,0,.07,10.07.53,51.11.53,61.29.29C197.93,458.08,197.93,457.92,197.72,457.91Z" style="fill:#263238"></path><path d="M172.46,437c-4-.77-8.9-.19-12,2.64-.12.11,0,.28.16.23a56.26,56.26,0,0,1,11.79-2.36A.26.26,0,0,0,172.46,437Z" style="fill:#263238"></path><path d="M175.34,438.72c-4-.77-8.9-.19-12,2.64-.12.11,0,.28.17.24a55.65,55.65,0,0,1,11.79-2.37A.26.26,0,0,0,175.34,438.72Z" style="fill:#263238"></path><path d="M178.21,440.48c-4-.77-8.89-.19-12,2.64-.12.11,0,.28.17.24A56.19,56.19,0,0,1,178.19,441,.26.26,0,0,0,178.21,440.48Z" style="fill:#263238"></path><path d="M181.09,442.24c-4-.77-8.9-.19-12,2.64-.12.11,0,.28.16.24a56.28,56.28,0,0,1,11.79-2.37A.26.26,0,0,0,181.09,442.24Z" style="fill:#263238"></path><path d="M155.81,237.28s-6.59,16.13-14,26.38c0,0-3.87,73.91-6.91,82.54-5,14.29-37.75,57.45-37.75,57.45L64.39,382.87s29.89-42.41,31.85-47.6c1.3-3.45,5.89-62.86,5.21-64.29-8.16-17.1-1.52-33.7-1.52-33.7Z" style="fill:#d3766a"></path><path d="M92.17,456.54C90.08,455.89,42,421,41.06,418.47c-.39-.94,4.29-8.24,10.2-16.89l.18-.27c1.22-1.79,2.48-3.62,3.78-5.46.18-.25.35-.51.52-.77C64.41,382.69,73.66,370,73.66,370l32.41,21.52-18.8,26-.73,1-3.85,5-.39.52s12.41,21.6,13.2,24.45S94.26,457.2,92.17,456.54Z" style="fill:#d3766a"></path><path d="M88.07,433c-.08-.11-.12-.19-.11-.23Z" style="fill:#7E57C2"></path><path d="M92.9,457.53c-1.38-.44-22.26-15.43-37.19-26.71-3.46-2.61-6.6-5-9.1-7-3.45-2.74-5.7-4.67-5.91-5.19-.36-.92,12.82-21.3,14.67-23.49l31.69,23-4.24,6.15s12.67,22.07,13.48,25S95,458.19,92.9,457.53Z" style="fill:#37474f"></path><path d="M93.16,454.73c-8.07-6.19-41.23-30.38-49.68-35.88-.07-.05-.1,0,0,0,7.87,6.3,41.22,30.23,49.63,36C93.24,455,93.34,454.86,93.16,454.73Z" style="fill:#263238"></path><path d="M84.86,423c-2.8-3-7.12-5.34-11.27-4.84-.16,0-.13.25,0,.29a56.22,56.22,0,0,1,11,4.95A.26.26,0,0,0,84.86,423Z" style="fill:#263238"></path><path d="M86.17,426.09c-2.8-3-7.12-5.35-11.27-4.84-.16,0-.13.25,0,.29a56.22,56.22,0,0,1,11,4.95A.26.26,0,0,0,86.17,426.09Z" style="fill:#263238"></path><path d="M87.48,429.19c-2.8-3-7.12-5.34-11.27-4.83-.16,0-.13.24,0,.29a55.92,55.92,0,0,1,11,4.94A.26.26,0,0,0,87.48,429.19Z" style="fill:#263238"></path><path d="M88.79,432.3c-2.8-3-7.12-5.34-11.27-4.84-.16,0-.13.25,0,.3a55.92,55.92,0,0,1,11,4.94A.26.26,0,0,0,88.79,432.3Z" style="fill:#263238"></path><path d="M99.93,237.28h55.88s10.42,47.48,13.62,61.45,6.11,131.5,6.11,131.5-28.3,0-34.67-.16c-4.89-.13-15.41-5.1-20.69-6.22-5.68-1.2-22.9-3-31.66-8.72-5.61-3.66-34.62-25.32-34.62-25.32s34.7-61.07,36.26-64.48.89-38.79,1.77-61.41C92.23,256.39,99.93,237.28,99.93,237.28Z" style="fill:#263238"></path><path d="M149.91,313.45c-1.81,6.51-3.68,13-5.51,19.51-.86,3.1-1.68,6.22-2.74,9.26a52,52,0,0,1-3.94,8.66c-1.57,2.76-3.37,5.39-5.13,8l-5.69,8.5c-3.78,5.67-7.48,11.39-11.17,17.12-4.14,6.42-8.35,12.8-12.32,19.33-.08.14.14.31.24.17,4.07-5.5,8-11.16,11.88-16.77s7.79-11.22,11.66-16.85c2-2.84,3.87-5.72,5.81-8.58,1.83-2.71,3.69-5.41,5.4-8.21a50.12,50.12,0,0,0,4.22-8.53,86.24,86.24,0,0,0,2.71-9.22c1.85-7.4,3.5-14.84,5.27-22.25A.36.36,0,0,0,149.91,313.45Z" style="fill:#37474f"></path><path d="M142.16,355.8c-2.25,5.27-4.56,10.52-6.78,15.8s-4.22,10.42-6.23,15.67c-1.08,2.82-2.12,5.64-3.16,8.47,0-.22,0-.43,0-.65a.08.08,0,0,0-.16,0,11.39,11.39,0,0,1,0,1.3c0,.14.22.19.27.07q3.56-7.83,6.91-15.73c2.21-5.22,4.28-10.48,6.39-15.74,1.19-3,2.27-6,3.44-9C142.9,355.69,142.31,355.46,142.16,355.8Z" style="fill:#37474f"></path><path d="M159,216.46l-7.5-.27a23,23,0,0,1-1.57-13.91c.19-1.07-2.74,5-2.25,13.78-7.92-.29-20.69-.88-30.11-1.31,0-3.68-.09-7.1-.09-7.1a41,41,0,0,1-2,7c-1.29,0-2.55-.12-3.76-.18a142.35,142.35,0,0,0,.24-15.67,50,50,0,0,1-5.59,15.4c-6-.34-9.9-.67-9.63-.94,9.66-9.81,3.4-16.18,6.52-25.14,3.74-10.75,13.27-11.92,13.48-20.14.19-6.7-.31-29.38,9.54-29.5,0,0,8.27-9.51,18.8-4.73,13,5.91,6.69,37.35,7.35,41.59.93,6.07,3.65,8.35,5.37,15.3s-1.67,11.43-2.3,16.1S160.46,216.54,159,216.46Z" style="fill:#263238"></path><path d="M96.58,211.78a23.7,23.7,0,0,0,3.25-5.68,12.27,12.27,0,0,0,.35-6.27,64.85,64.85,0,0,1-.7-6.67,17.28,17.28,0,0,1,1.07-6.83,15.23,15.23,0,0,1,4-5.71,40.16,40.16,0,0,1,5.39-4.05,25,25,0,0,0,5-4.11,12.06,12.06,0,0,0,2.75-5.83,11.2,11.2,0,0,1-2.12,6.33,22.44,22.44,0,0,1-4.87,4.67,51.77,51.77,0,0,0-5,4.15,14.69,14.69,0,0,0-3.44,5.17,17.37,17.37,0,0,0-1,6.19c0,2.15.27,4.32.42,6.55a21.68,21.68,0,0,1,0,3.42,9.71,9.71,0,0,1-1,3.35A19.21,19.21,0,0,1,96.58,211.78Z" style="fill:#263238"></path><path d="M152.24,145.45a31.68,31.68,0,0,1,1.6,7.77c.27,2.64-.24,15-.14,17.6l.19,3.93a19.25,19.25,0,0,0,.5,3.77,20.68,20.68,0,0,0,3.46,6.76,29,29,0,0,1,2.09,3.51,18.46,18.46,0,0,1,1.38,3.9,26.6,26.6,0,0,1,.47,4.05,16.67,16.67,0,0,1-.34,4.1c-.28,1.35-.71,2.62-1.08,3.87a20.62,20.62,0,0,0-.73,3.79,7.92,7.92,0,0,0,3.1,6.75,8.08,8.08,0,0,1-3.94-6.77,19.53,19.53,0,0,1,.46-4c.27-1.32.65-2.58.83-3.83a20.33,20.33,0,0,0-.41-7.57,18.36,18.36,0,0,0-1.3-3.52,26.55,26.55,0,0,0-2-3.3,37.85,37.85,0,0,1-2.13-3.45,15.68,15.68,0,0,1-1.47-3.88,20.33,20.33,0,0,1-.43-4.07c0-1.33,0-2.66,0-4,0-2.63.71-14.95.65-17.57A36.77,36.77,0,0,0,152.24,145.45Z" style="fill:#263238"></path><path d="M139.66,184.27c10.82,5.08,31.63,11.76,37.44,8.48,7.23-4.09,23.2-29.35,24.36-45.93.25-3.53-25.85-1.55-26.69.79-2.49,6.91-8.52,24.09-9.62,24.63-2.07,1-16.31,1.42-25.11,1.25C127.59,173.25,128.86,179.2,139.66,184.27Z" style="fill:#d3766a"></path><path d="M198.85,135.09c.41,1.65,1.28,1.45,2.52-1.3s3.84-14.7,7.93-13.44.19,18.05-2.24,22.47-7.89,10.73-7.89,10.73C199.27,150.12,198.73,141.8,198.85,135.09Z" style="fill:#d3766a"></path><path d="M174.21,150c.65-9.62.87-21.64,7-30.63a5.4,5.4,0,0,1,2.78-2.18c2.68-4.08,5.41-4,5.41-4,3.66-3,6.44-2.61,6.44-2.61s3.2-4.75,6.4-3.29c3.58,1.62-1.61,8-2.33,13.22-1.64,12-.61,29.54-.74,33.06Z" style="fill:#d3766a"></path><path d="M189.35,131.87a77,77,0,0,1,2-10.44,78.93,78.93,0,0,1,4.51-10.74.1.1,0,0,0-.17-.09,41.14,41.14,0,0,0-6.53,21.24C189.18,132,189.32,132,189.35,131.87Z" style="fill:#263238"></path><path d="M182,131.93c.73-3.4,2.05-9.37,7.55-18.7,0,0,0-.07-.05,0a36.94,36.94,0,0,0-7.66,18.71C181.76,132.11,181.9,132.16,182,131.93Z" style="fill:#263238"></path><path d="M178,131.89c1.46-5.74,3.1-9.17,6-14.65,0,0,0-.06-.05,0-4,5.88-4.75,8.46-6.18,14.66C177.72,132.08,177.92,132.11,178,131.89Z" style="fill:#263238"></path><path d="M137.12,184.36c4.09,2.1,32.22,14.17,41.4,9.06s21-22.14,22-24.68-.91-10.53-.91-10.53l-26.52-7a10.41,10.41,0,0,0-4.34,3.48c-1.46,2.32-3.93,16.57-4.23,16.93s-15.44,1.16-24.64,1.34S123.71,177.48,137.12,184.36Z" style="fill:#ebebeb"></path><path d="M191.28,161.69c-2.13-.65-4.27-1.3-6.42-1.91-4.3-1.21-8.63-2.33-13-3.4a.13.13,0,0,0-.07.24c4.25,1.38,8.52,2.7,12.82,3.93,2.15.62,4.31,1.19,6.47,1.76s4.35,1,6.51,1.6a.08.08,0,0,0,0-.15C195.52,163.11,193.42,162.34,191.28,161.69Z" style="fill:#263238"></path><path d="M174.5,194.56c-11.53,1.23-33.78-8.35-37.38-10.2-12.47-6.4-7.3-10.61.88-11.3Z" style="fill:#c7c7c7"></path><path d="M153.46,212.8l2.39,24.58-55.92-.1s11-48.6,24.25-62c6.62-6.69,14.09-5.91,18.69-.9,1.16,1.27,12.65,17.7,13.91,25C157.87,205.89,153.46,212.8,153.46,212.8Z" style="fill:#ebebeb"></path><path d="M132,175.06c.38.89,5.89,6.08,10.07,5.11,1.37-.32,0-7.84,0-7.84l0-.58.31-8.1-10.21-4.19-1.46-.54s.05,2.22.16,5c0,.13,0,.26,0,.39s0,.31,0,.45c0,.42,0,.84,0,1.26s0,.63.06,1l.06,1A52.14,52.14,0,0,0,132,175.06Z" style="fill:#d3766a"></path><path d="M130.85,163.91a16.22,16.22,0,0,0,11.2,7.84l.31-8.1-10.21-4.19-1.46-.54S130.74,161.14,130.85,163.91Z" style="fill:#263238"></path><path d="M152.56,150.66c2.7,14-5.36,17.17-8.37,17.75-2.74.52-12.11,2-16.24-11.65s1.51-19.29,7.7-20.82S149.86,136.69,152.56,150.66Z" style="fill:#d3766a"></path><path d="M149.76,147.2c-.34,0-.65,0-1,0a1.59,1.59,0,0,1-1-.21.5.5,0,0,1-.11-.61,1.25,1.25,0,0,1,1.16-.52,1.82,1.82,0,0,1,1.26.42A.54.54,0,0,1,149.76,147.2Z" style="fill:#263238"></path><path d="M140.59,149a8,8,0,0,0,.91-.38,1.64,1.64,0,0,0,.85-.56.52.52,0,0,0-.12-.61,1.23,1.23,0,0,0-1.27,0,1.82,1.82,0,0,0-1,.86A.53.53,0,0,0,140.59,149Z" style="fill:#263238"></path><path d="M143.14,152.2s-.07.06-.06.1c.24.94.35,2-.44,2.55,0,0,0,.07,0,.06C143.68,154.53,143.51,153.05,143.14,152.2Z" style="fill:#263238"></path><path d="M142.08,151.39c-1.55.22-1,3.3.43,3.1S143.37,151.21,142.08,151.39Z" style="fill:#263238"></path><path d="M141.5,151.66c-.24.23-.45.58-.77.67s-.7-.17-1-.43c0,0-.06,0,0,0,.09.59.43,1.16,1.08,1.13s.91-.62,1-1.24C141.72,151.72,141.6,151.57,141.5,151.66Z" style="fill:#263238"></path><path d="M148.59,151s.08,0,.09.07c.13,1,.44,2,1.36,2.21,0,0,0,.05,0,.05C149,153.41,148.56,152,148.59,151Z" style="fill:#263238"></path><path d="M149.27,149.9c1.52-.38,2.16,2.68.76,3S148,150.21,149.27,149.9Z" style="fill:#263238"></path><path d="M150,150c.28.12.58.36.87.32s.52-.43.67-.8c0,0,0,0,0,0,.14.58.08,1.23-.46,1.46s-1-.21-1.24-.77C149.79,150.1,149.84,149.92,150,150Z" style="fill:#263238"></path><path d="M144.4,159.81c.26.19.53.47.89.45a2.48,2.48,0,0,0,1-.37,0,0,0,0,1,.05,0,1.32,1.32,0,0,1-1.16.68,1,1,0,0,1-.86-.75C144.3,159.81,144.37,159.78,144.4,159.81Z" style="fill:#263238"></path><path d="M147.73,155.61a20.46,20.46,0,0,1,.59,2c0,.07-.14.13-.37.18,0,0,0,0,0,0a3.24,3.24,0,0,1-3.32-.6.07.07,0,0,1,.08-.11,4.91,4.91,0,0,0,3.07.28c0-.2-.88-2.35-.78-2.37a5.76,5.76,0,0,1,1.59,0c-.89-2.91-2.23-5.66-3.07-8.57a.09.09,0,0,1,.16-.07,49.21,49.21,0,0,1,3.71,9.08C149.5,155.91,148,155.67,147.73,155.61Z" style="fill:#263238"></path><path d="M147.86,157.39A4,4,0,0,1,146.7,159a1.86,1.86,0,0,1-1,.38c-.8,0-1-.65-1.07-1.28a4,4,0,0,1,.06-1A5.1,5.1,0,0,0,147.86,157.39Z" style="fill:#263238"></path><path d="M146.7,159a1.86,1.86,0,0,1-1,.38c-.8,0-1-.65-1.07-1.28A1.84,1.84,0,0,1,146.7,159Z" style="fill:#ff9abb"></path><path d="M128.41,156.2c3.4-.59,2.38-5.93,2.38-5.93s3.78-1.06,2.92-7.31a9.56,9.56,0,0,0,7.89,3.2c1.14,0-3.09-2.21-3.09-2.21s5.17,3.19,13.11.15c.56-.21-1.65-8.95-8.64-10.72a15,15,0,0,0-16.37,6.08s-3.69,3.19-3.39,7.76S127.09,156.43,128.41,156.2Z" style="fill:#263238"></path><path d="M129.76,156.42s-3.55-4.1-5.44-2.79,1.11,7.47,3.55,8.1a2.4,2.4,0,0,0,3.07-1.62Z" style="fill:#d3766a"></path><path d="M125.22,155.38a0,0,0,0,0,0,.06,6.09,6.09,0,0,1,3.52,3.46,1.32,1.32,0,0,0-2-.15s0,.09,0,.08a1.47,1.47,0,0,1,1.67.34,6.92,6.92,0,0,1,.92,1.23c.09.14.35,0,.27-.13v0C129.45,158.13,127.5,155.35,125.22,155.38Z" style="fill:#263238"></path><path d="M200.33,194s3.68-10.27,6.41-16.87c1.52-3.68,4.69-9.77,7-12,3.52-3.29,20.34-14.77,23.22-10.75,2.6,3.64-13.11,11.67-13.11,11.67s15.13-9.51,17.46-4.55-16.63,11.67-16.63,11.67,15.77-9.42,17.36-3.93c1.2,4.15-15.62,11.2-15.62,11.2s13.6-8,15-3.79c1.57,4.66-13.55,12.14-13.55,12.14,1.8,11.32-2,17.44-5.17,21.48C222,211.26,200.33,194,200.33,194Z" style="fill:#d3766a"></path><path d="M218.47,169.26c1.73-1.18,3.48-2.39,5.32-3.41s3.71-2,5.63-2.83a36.09,36.09,0,0,1,7.8-2.58c-4.7,1.34-11.33,4.9-13.17,5.93s-3.71,1.94-5.55,3C218.46,169.36,218.42,169.29,218.47,169.26Z" style="fill:#263238"></path><path d="M222,176c2.28-1.41,4.5-2.9,6.84-4.21s4.67-2.34,7.09-3.48c.18-.09.17,0,0,.14-2.37,1.23-4.46,2.56-6.82,3.82s-4.76,2.44-7.06,3.79A0,0,0,1,1,222,176Z" style="fill:#263238"></path><path d="M224.07,182.26a59.75,59.75,0,0,1,11-5.64c.19-.08.15.09,0,.18-3.68,1.8-6.58,3.19-10.84,5.58C224.08,182.41,224,182.31,224.07,182.26Z" style="fill:#263238"></path><path d="M128,192.87c-10.14-11.61-.39-14.65,8.74-10.89,6.76,2.78,36.13,12.38,38.28,12.81s31.29-8.6,36.76-8.85,12.21,22.28,10.93,24.2-44.09,11.92-52.89,9.24C158.19,215.82,135.49,201.41,128,192.87Z" style="fill:#d3766a"></path><path d="M126.69,192.37c5.09,6.41,30.49,23.61,40.24,27.52,7.26,2.91,30.28,2.71,33,2.13s8.22-6.63,8.22-6.63l-7.7-27S196.69,186,194,186s-18.38,7.15-18.84,7.11-29.08-8-38.49-11.82C128.09,177.9,117,180.19,126.69,192.37Z" style="fill:#ebebeb"></path><path d="M153.35,212.43a19.69,19.69,0,0,0-2.54-1.89c-.91-.65-1.84-1.28-2.76-1.92-1.87-1.31-3.77-2.57-5.66-3.86-3.71-2.55-7.39-5.17-11.13-7.68,0,0-.09,0,0,.07,2.76,2.36,5.68,4.57,8.63,6.71-.74-.32-1.45-.7-2.16-1.06-1-.5-2-1.05-2.92-1.62-.09-.06-.17.09-.08.15a25.13,25.13,0,0,0,2.91,1.74c.89.45,1.83.78,2.76,1.15l1.58,1.14c1.83,1.29,3.66,2.58,5.55,3.78,1,.6,1.89,1.2,2.85,1.78a18.92,18.92,0,0,0,2.95,1.64C153.36,212.59,153.4,212.48,153.35,212.43Z" style="fill:#263238"></path><path d="M183.89,189.7c-1.3.5-2.6,1-3.9,1.55s-2.3,1.07-3.5,1.46a6.55,6.55,0,0,1-4.1-.21l-3.76-1.21c-5.25-1.67-10.49-3.35-15.76-4.95l-.16-.05-.11-.06-.9-.49c-.61-.33-1.21-.67-1.83-1-.05,0-.08,0,0,.07a16.84,16.84,0,0,0,1.8,1.12l.14.07q-3.92-1.15-7.84-2.21c-.06,0-.08.06,0,.08,5.3,2,10.65,3.69,16,5.41l8,2.55c1.37.43,2.75.87,4.13,1.28a7.62,7.62,0,0,0,3.6.43,16.81,16.81,0,0,0,3.93-1.57c1.46-.68,2.89-1.41,4.32-2.14C184,189.8,184,189.67,183.89,189.7Z" style="fill:#263238"></path><path d="M201.22,209.78c-.55-2.16-1.11-4.32-1.71-6.48-1.19-4.3-2.48-8.58-3.82-12.85a.13.13,0,0,0-.25.07c1,4.35,2.12,8.68,3.3,13,.6,2.16,1.23,4.3,1.86,6.44s1.39,4.25,2,6.4c0,.09.18.05.15,0C202.21,214.14,201.78,212,201.22,209.78Z" style="fill:#263238"></path></g><g id="freepik--Bonfire--inject-43"><path d="M266.46,418.68s-45.62-6.67-48.35-4.91-5.22,15.06.29,18.3,47.31-2.66,47.31-2.66S270.24,425.42,266.46,418.68Z" style="fill:#7E57C2"></path><path d="M266.46,418.68s-45.62-6.67-48.35-4.91-5.22,15.06.29,18.3,47.31-2.66,47.31-2.66S270.24,425.42,266.46,418.68Z" style="opacity:0.49"></path><path d="M218.33,414.28c1.39-.31,3.61,4.26,3.1,9.34-.49,4.84-2.31,8.07-3.06,8s-3.31-2.92-2.88-9.16C215.8,417.89,217.18,414.54,218.33,414.28Z" style="fill:#fff;opacity:0.2"></path><g style="opacity:0.2"><path d="M223.12,415.55a66.65,66.65,0,0,1,7.87-.09c1.32.06,2.63.18,3.95.34.66.09,1.32.21,2,.37s1.21.32,1.86.43c2.51.44,5.13.61,7.72.84s5.2.42,7.82.67a76.59,76.59,0,0,1-7.87.32,51.3,51.3,0,0,1-7.89-.59,19.91,19.91,0,0,1-1.95-.47c-.6-.17-1.23-.27-1.86-.39-1.27-.23-2.56-.37-3.85-.54Z"></path><path d="M228.3,418q2.79.39,5.52.92c1.83.33,3.65.73,5.44,1a35.27,35.27,0,0,0,5.45.07c1.86-.08,3.72-.13,5.6-.14a39.85,39.85,0,0,1-5.51,1.12,22.53,22.53,0,0,1-5.7.2,40.06,40.06,0,0,1-5.51-1.25A47.51,47.51,0,0,1,228.3,418Z"></path><path d="M250.7,422.27a15.7,15.7,0,0,1,8.21-3,10,10,0,0,1,4.49.74,5.92,5.92,0,0,1,2,1.35,3.23,3.23,0,0,1,.72,1.13,1.09,1.09,0,0,1,.08.48,1.37,1.37,0,0,1-.07.34.85.85,0,0,1-.1.19,2.9,2.9,0,0,1-.41.56,7.81,7.81,0,0,1-4.13,2.2,5.12,5.12,0,0,1-2.42-.18,11.25,11.25,0,0,1-2.06-.94,3.62,3.62,0,0,1-1.71-1.76,1,1,0,0,1,.12-.83,1.22,1.22,0,0,1,.58-.46,4.42,4.42,0,0,1,1.14-.28,9.23,9.23,0,0,1,2.23,0,3.92,3.92,0,0,1,2,.77,6.41,6.41,0,0,0-4.17-.18,4.32,4.32,0,0,0-.94.31c-.28.17-.32.25-.25.42a3,3,0,0,0,1.41,1.13,13.82,13.82,0,0,0,1.94.74,3.74,3.74,0,0,0,1.88.06,6.68,6.68,0,0,0,3.4-1.88,1.73,1.73,0,0,0,.24-.3l0-.05a.11.11,0,0,0,0,.08s0,0,0-.05a2,2,0,0,0-.45-.68,5,5,0,0,0-1.57-1.11,10.22,10.22,0,0,0-4-.86,14.62,14.62,0,0,0-4.18.56A22.09,22.09,0,0,0,250.7,422.27Z"></path><path d="M265.87,426.68a16,16,0,0,1-5.66,1.83,14.13,14.13,0,0,1-3,.05,13.38,13.38,0,0,1-3-.72,40.5,40.5,0,0,1-5.33-2.6,18.88,18.88,0,0,0-5.45-1.91,12.64,12.64,0,0,1,5.86,1c1.85.76,3.54,1.68,5.35,2.3a13.6,13.6,0,0,0,5.52.88A27.18,27.18,0,0,0,265.87,426.68Z"></path><path d="M221.43,430.58c2.35,0,4.7,0,7,.07a47.34,47.34,0,0,0,6.88-.25,27.85,27.85,0,0,1,7.11-.37,55,55,0,0,1,7,.76l-7,.22a39.21,39.21,0,0,0-6.88.63,31.65,31.65,0,0,1-7.15,0A56.5,56.5,0,0,1,221.43,430.58Z"></path><path d="M253.07,429.08c-1.94-.48-3.88-1-5.83-1.39-1-.21-1.94-.41-2.92-.55a7.34,7.34,0,0,0-2.84.07c-1.93.37-3.9.8-5.88,1.15-1,.17-2,.3-3,.38a10.64,10.64,0,0,1-3.17-.12,24.27,24.27,0,0,1-3-.88,6.89,6.89,0,0,1-2.8-1.69,2,2,0,0,1-.46-.92,1.72,1.72,0,0,1,.13-1.08,2.56,2.56,0,0,1,1.48-1.18,10.34,10.34,0,0,1,3.11-.52,16.59,16.59,0,0,1,3.07.15,6.81,6.81,0,0,1,3,1,1.1,1.1,0,0,1,.53.82.86.86,0,0,1-.65.73,6.59,6.59,0,0,1-1.52.33,20.34,20.34,0,0,1-3,.07c1-.09,2-.22,3-.4s2.38-.6,1.34-1.05a6.43,6.43,0,0,0-2.71-.7,15.82,15.82,0,0,0-2.92,0,10.73,10.73,0,0,0-2.77.58c-.39.17-.75.4-.82.61a.68.68,0,0,0,.18.77,6.32,6.32,0,0,0,2.32,1.31,26.4,26.4,0,0,0,2.8.8,18.26,18.26,0,0,0,5.73-.21c2-.27,3.91-.68,5.93-.93a9.9,9.9,0,0,1,1.56-.1,8.75,8.75,0,0,1,1.56.21c1,.2,2,.45,2.93.74C249.31,427.7,251.21,428.33,253.07,429.08Z"></path><path d="M240.19,423.44c-2.68-.45-5.25-1.16-7.82-1.85l-3.84-1a18.09,18.09,0,0,0-3.9-.68,8.81,8.81,0,0,1,4.08-.29,29.35,29.35,0,0,1,4,.8A31.5,31.5,0,0,1,240.19,423.44Z"></path></g><path d="M260.15,418.39s45.69-6.17,48.41-4.38,5.05,15.12-.5,18.29-47.28-3.17-47.28-3.17S256.29,425.09,260.15,418.39Z" style="fill:#7E57C2"></path><path d="M260.15,418.39s45.69-6.17,48.41-4.38,5.05,15.12-.5,18.29-47.28-3.17-47.28-3.17S256.29,425.09,260.15,418.39Z" style="opacity:0.49"></path><path d="M308.32,414.52c-1.37-.33-3.65,4.22-3.19,9.31.43,4.84,2.21,8.09,3,8s3.34-2.89,3-9.13C310.82,418.16,309.48,414.79,308.32,414.52Z" style="fill:#fff;opacity:0.2"></path><g style="opacity:0.2"><path d="M261.8,427.8l7.83.43c1.3,0,2.6.12,3.88.11.64,0,1.29,0,1.9-.07a18.11,18.11,0,0,1,2-.14,51.55,51.55,0,0,1,7.89.74,75.27,75.27,0,0,1,7.7,1.63c-2.62-.2-5.23-.41-7.82-.65s-5.2-.47-7.75-.46a18.21,18.21,0,0,0-1.91.11,17.12,17.12,0,0,1-2,0c-1.33,0-2.65-.16-3.95-.32A65.57,65.57,0,0,1,261.8,427.8Z"></path><path d="M266.55,427.66A46.63,46.63,0,0,1,272,426.2a38.42,38.42,0,0,1,5.59-.82,22.62,22.62,0,0,1,5.67.64,41,41,0,0,1,5.4,1.55q-2.81-.24-5.56-.58a34.89,34.89,0,0,0-5.44-.35c-1.81.09-3.66.35-5.5.53S268.42,427.54,266.55,427.66Z"></path><path d="M289.21,425.14a22.41,22.41,0,0,0,3.92,1.81,14.13,14.13,0,0,0,4.12.88,10.1,10.1,0,0,0,4-.54,5.23,5.23,0,0,0,1.65-1,2,2,0,0,0,.49-.65c0-.05,0-.06,0-.05a.11.11,0,0,0,0,.08l0-.05a1.41,1.41,0,0,0-.22-.32,6.69,6.69,0,0,0-3.24-2.14,4,4,0,0,0-1.88-.09,13.29,13.29,0,0,0-2,.59,3.05,3.05,0,0,0-1.5,1c-.09.17-.05.26.21.44a4,4,0,0,0,.92.39,6.41,6.41,0,0,0,4.17.15,4,4,0,0,1-2.1.6,9.27,9.27,0,0,1-2.23-.15,4.39,4.39,0,0,1-1.11-.37,1.23,1.23,0,0,1-.55-.5,1,1,0,0,1-.06-.84,3.66,3.66,0,0,1,1.85-1.62,10.88,10.88,0,0,1,2.13-.78,5.12,5.12,0,0,1,2.43,0,7.73,7.73,0,0,1,3.94,2.52,2.87,2.87,0,0,1,.37.59,2.07,2.07,0,0,1,.08.2,1.32,1.32,0,0,1,0,.34,1.3,1.3,0,0,1-.11.47,3.27,3.27,0,0,1-.82,1.07,5.79,5.79,0,0,1-2.07,1.2,10,10,0,0,1-4.54.38A15.79,15.79,0,0,1,289.21,425.14Z"></path><path d="M304.69,421.92a27.87,27.87,0,0,0-5.66-1.29,13.64,13.64,0,0,0-5.58.45c-1.84.48-3.6,1.26-5.51,1.88a12.7,12.7,0,0,1-5.92.55A18.48,18.48,0,0,0,287.6,422a40.09,40.09,0,0,1,5.52-2.17,13.79,13.79,0,0,1,3-.49,14,14,0,0,1,3,.29A16.09,16.09,0,0,1,304.69,421.92Z"></path><path d="M277.36,417.55a58.68,58.68,0,0,1,7-1.08,31.63,31.63,0,0,1,7.15,0,39.4,39.4,0,0,0,6.89.6l7,.19a57,57,0,0,1-7,.8,28.32,28.32,0,0,1-7.11-.35,48.78,48.78,0,0,0-6.88-.23C282.06,417.5,279.71,417.53,277.36,417.55Z"></path><path d="M292.11,418.53c-1.91.6-3.85,1.09-5.81,1.54-1,.2-2,.38-3,.51a10,10,0,0,1-1.57.08,10.92,10.92,0,0,1-1.55-.22c-2-.4-3.89-1-5.83-1.39a18.34,18.34,0,0,0-5.69-.66,24.14,24.14,0,0,0-2.86.59,6.24,6.24,0,0,0-2.42,1.12.67.67,0,0,0-.24.75c.05.21.39.47.78.68a11.07,11.07,0,0,0,2.71.79,15.74,15.74,0,0,0,2.91.25,6.48,6.48,0,0,0,2.75-.49c1.07-.37-.41-.9-1.25-1.15s-1.93-.46-2.92-.63a19.08,19.08,0,0,1,3,.31,6,6,0,0,1,1.49.44.89.89,0,0,1,.6.78,1.13,1.13,0,0,1-.59.78,6.91,6.91,0,0,1-3.05.76,16.67,16.67,0,0,1-3.08-.09,10.27,10.27,0,0,1-3.05-.76,2.6,2.6,0,0,1-1.39-1.29,1.73,1.73,0,0,1-.05-1.08,2,2,0,0,1,.53-.89,7.05,7.05,0,0,1,2.93-1.47,24.49,24.49,0,0,1,3-.65,11.49,11.49,0,0,1,3.17.13c1,.16,2,.37,3,.62,2,.5,3.88,1.08,5.78,1.61a7.54,7.54,0,0,0,2.83.29c1-.06,2-.19,2.95-.33C288.17,419.22,290.14,418.86,292.11,418.53Z"></path><path d="M278.83,423.15a31.76,31.76,0,0,1-7.7,2.48,28.71,28.71,0,0,1-4.05.48,9,9,0,0,1-4-.6,18.47,18.47,0,0,0,3.94-.38l3.91-.74C273.5,423.9,276.12,423.39,278.83,423.15Z"></path><path d="M291,428.11c2.08.67,4,1.33,6.06,1.8a28.06,28.06,0,0,0,3,.56c1,.15,2.06.17,3.17.25a8.61,8.61,0,0,1-3.21.74,12.1,12.1,0,0,1-3.29-.33,13.48,13.48,0,0,1-3.09-1.14A10.62,10.62,0,0,1,291,428.11Z"></path></g><path d="M263.67,422.47s-54.11,12.16-56.42,15.32.63,19.16,8.21,20.42,52-23.37,52-23.37S270.83,428.41,263.67,422.47Z" style="fill:#7E57C2"></path><path d="M263.67,422.47s-54.11,12.16-56.42,15.32.63,19.16,8.21,20.42,52-23.37,52-23.37S270.83,428.41,263.67,422.47Z" style="opacity:0.4"></path><path d="M207.72,438.26c1.42-.94,5.88,3.23,7.5,9.16,1.54,5.65.89,10.05,0,10.27s-5-1.86-7.18-9.05C206.43,443.41,206.54,439.05,207.72,438.26Z" style="fill:#fff;opacity:0.2"></path><g style="opacity:0.2"><path d="M213.64,437.63a87.49,87.49,0,0,1,8.84-3.39c1.5-.51,3-.93,4.58-1.31a22.27,22.27,0,0,1,2.38-.43c.85-.1,1.5-.16,2.29-.32,3-.59,6-1.54,9-2.4l9-2.73c-2.84,1.37-5.77,2.55-8.73,3.65a63.39,63.39,0,0,1-9.11,2.72c-.76.15-1.68.23-2.39.31s-1.5.22-2.26.37c-1.53.29-3,.7-4.56,1.07s-3,.8-4.55,1.23Z"></path><path d="M220.51,438.13c2.21-.46,4.41-.87,6.62-1.24s4.41-.73,6.54-1.25a39.87,39.87,0,0,0,6.17-2.3q3.06-1.35,6.17-2.66a53.7,53.7,0,0,1-5.74,3.55,27.57,27.57,0,0,1-6.31,2.64,49.68,49.68,0,0,1-6.7,1A63.27,63.27,0,0,1,220.51,438.13Z"></path><path d="M247.51,433.29a19.32,19.32,0,0,1,8-6.84,12.16,12.16,0,0,1,5.32-1.08,7.11,7.11,0,0,1,2.76.66,3.7,3.7,0,0,1,1.26.93,1.39,1.39,0,0,1,.27.46,2.38,2.38,0,0,1,.06.37,1.66,1.66,0,0,1,0,.24,3.47,3.47,0,0,1-.22.78,9.14,9.14,0,0,1-3.63,4.19,5.82,5.82,0,0,1-2.74.83,13,13,0,0,1-2.71-.15,4.24,4.24,0,0,1-2.62-1.19,1.06,1.06,0,0,1-.22-.92,1.44,1.44,0,0,1,.44-.73,5.41,5.41,0,0,1,1.14-.81,10.92,10.92,0,0,1,2.49-.95,4.67,4.67,0,0,1,2.62-.05,5.06,5.06,0,0,0-2.52.37,10.34,10.34,0,0,0-2.27,1.16c-.68.44-1.48,1.13-1,1.45a3.74,3.74,0,0,0,2.12.71,17.66,17.66,0,0,0,2.52,0,4.76,4.76,0,0,0,2.19-.76,8,8,0,0,0,3.06-3.63,2,2,0,0,0,.15-.48l0-.08a0,0,0,0,0,0,.05.34.34,0,0,0-.06-.09,2.56,2.56,0,0,0-.84-.6,6.14,6.14,0,0,0-2.28-.58,12.17,12.17,0,0,0-4.89.79,16.93,16.93,0,0,0-4.45,2.47A25.89,25.89,0,0,0,247.51,433.29Z"></path><path d="M266.46,431.71a19.7,19.7,0,0,1-5.62,4.4,16.53,16.53,0,0,1-3.38,1.34,16.82,16.82,0,0,1-3.64.47,53,53,0,0,1-7.09-.59,21.41,21.41,0,0,0-6.95.3,15.66,15.66,0,0,1,7-1.29c2.4.08,4.7.39,7,.31a16.33,16.33,0,0,0,3.37-.35,20,20,0,0,0,3.25-1.08A30.84,30.84,0,0,0,266.46,431.71Z"></path><path d="M218.22,455.24l8-2.85a55.77,55.77,0,0,0,7.65-3.24,34,34,0,0,1,7.8-3.49,72.7,72.7,0,0,1,8.17-2.26L242,446.57a46,46,0,0,0-7.49,3.66,38.5,38.5,0,0,1-8,3.08A75.53,75.53,0,0,1,218.22,455.24Z"></path><path d="M253.12,439.92c-2.39.27-4.79.51-7.15.89-1.19.17-2.37.36-3.53.62a9,9,0,0,0-3.19,1.29c-2,1.25-4.06,2.56-6.14,3.79-1.05.61-2.12,1.2-3.22,1.74a13.27,13.27,0,0,1-3.58,1.22,29.77,29.77,0,0,1-3.67.28,8.44,8.44,0,0,1-3.81-.69,2.29,2.29,0,0,1-.87-.78,2.06,2.06,0,0,1-.3-1.19,3,3,0,0,1,1.11-1.88,12.46,12.46,0,0,1,3.23-1.93,20.37,20.37,0,0,1,3.49-1.15,8.28,8.28,0,0,1,3.75-.19,1.29,1.29,0,0,1,.91.65,1,1,0,0,1-.41,1.06,7.28,7.28,0,0,1-1.55,1,25.69,25.69,0,0,1-3.34,1.41,34.27,34.27,0,0,0,3.17-1.7,7.1,7.1,0,0,0,1.38-1.06c.2-.2.31-.46.24-.52a.82.82,0,0,0-.57-.26,7.8,7.8,0,0,0-3.38.36,19.29,19.29,0,0,0-3.29,1.27,13.65,13.65,0,0,0-2.9,1.85,2.06,2.06,0,0,0-.72,1.12,1,1,0,0,0,.61.92,7.6,7.6,0,0,0,3.24.48,29.92,29.92,0,0,0,3.51-.32,21.46,21.46,0,0,0,6.39-2.7c2.09-1.17,4.09-2.49,6.24-3.64a12.07,12.07,0,0,1,1.7-.79,11.08,11.08,0,0,1,1.81-.44c1.21-.21,2.41-.35,3.61-.45C248.3,440,250.71,439.91,253.12,439.92Z"></path><path d="M236.22,439.13c-3.21.55-6.41.84-9.59,1.16q-2.4.24-4.77.51a19.71,19.71,0,0,0-4.66,1,11.19,11.19,0,0,1,4.48-2,36.13,36.13,0,0,1,4.82-.79A43.28,43.28,0,0,1,236.22,439.13Z"></path></g><path d="M261.49,422.47s54.11,12.16,56.42,15.32-.63,19.16-8.21,20.42-52-23.37-52-23.37S254.33,428.41,261.49,422.47Z" style="fill:#7E57C2"></path><path d="M261.49,422.47s54.11,12.16,56.42,15.32-.63,19.16-8.21,20.42-52-23.37-52-23.37S254.33,428.41,261.49,422.47Z" style="opacity:0.4"></path><path d="M317.44,438.26c-1.42-.94-5.88,3.23-7.5,9.16-1.54,5.65-.89,10.05,0,10.27s5-1.86,7.19-9.05C318.73,443.41,318.63,439.05,317.44,438.26Z" style="fill:#fff;opacity:0.2"></path><g style="opacity:0.2"><path d="M259.41,433.76l4.31,1.94c1.42.66,2.85,1.31,4.29,1.92s2.88,1.24,4.34,1.77c.73.26,1.45.53,2.18.72s1.58.41,2.31.68a62.55,62.55,0,0,1,8.57,4.11c2.76,1.55,5.46,3.17,8.06,5l-8.5-4.11c-2.84-1.32-5.66-2.73-8.56-3.78-.74-.28-1.38-.45-2.21-.68a21.16,21.16,0,0,1-2.28-.8c-1.48-.61-2.92-1.27-4.32-2A85.39,85.39,0,0,1,259.41,433.76Z"></path><path d="M264.82,435.6a65.49,65.49,0,0,1,6.71.71,51.32,51.32,0,0,1,6.63,1.45,28.14,28.14,0,0,1,6.11,3.05,57.27,57.27,0,0,1,5.5,3.93c-2-1-4-2-6-3.07a40,40,0,0,0-6-2.71c-2.09-.65-4.28-1.14-6.44-1.68S267,436.2,264.82,435.6Z"></path><path d="M291.44,442.24a26.07,26.07,0,0,0,3.62,3.73,17.33,17.33,0,0,0,4.27,2.76,12.33,12.33,0,0,0,4.83,1.11,6.37,6.37,0,0,0,2.32-.42,2.6,2.6,0,0,0,.87-.55.22.22,0,0,0,.07-.08,0,0,0,0,0,0,0v-.08a3.42,3.42,0,0,0-.12-.49,8.12,8.12,0,0,0-2.82-3.82,4.67,4.67,0,0,0-2.13-.9,16.28,16.28,0,0,0-2.51-.16,3.74,3.74,0,0,0-2.17.56c-.44.29.31,1,1,1.52a11.24,11.24,0,0,0,2.19,1.31,5.12,5.12,0,0,0,2.49.54,4.67,4.67,0,0,1-2.61-.23,11.13,11.13,0,0,1-2.43-1.12,5.44,5.44,0,0,1-1.07-.88,1.42,1.42,0,0,1-.39-.75,1.08,1.08,0,0,1,.27-.91,4.29,4.29,0,0,1,2.7-1,13,13,0,0,1,2.72,0,5.87,5.87,0,0,1,2.67,1,9.15,9.15,0,0,1,3.34,4.43,3.31,3.31,0,0,1,.17.79c0,.08,0,.14,0,.24a2.49,2.49,0,0,1-.09.37,1.41,1.41,0,0,1-.3.44,3.68,3.68,0,0,1-1.32.84,7.18,7.18,0,0,1-2.8.47,12.05,12.05,0,0,1-5.23-1.43A19.25,19.25,0,0,1,291.44,442.24Z"></path><path d="M310.24,445.09a31.23,31.23,0,0,0-5.8-3.91,20,20,0,0,0-3.16-1.29,16.09,16.09,0,0,0-3.35-.59c-2.29-.22-4.61-.07-7-.15a15.7,15.7,0,0,1-6.91-1.76,21.41,21.41,0,0,0,6.91.77,51,51,0,0,1,7.12-.11,16.61,16.61,0,0,1,3.6.7,17.13,17.13,0,0,1,3.29,1.57A20,20,0,0,1,310.24,445.09Z"></path><path d="M281.25,428.72a77.76,77.76,0,0,1,8.28,1.8,39.24,39.24,0,0,1,8.05,3,46.46,46.46,0,0,0,7.54,3.56l7.88,3a72.81,72.81,0,0,1-8.21-2.14,34.12,34.12,0,0,1-7.84-3.37,55.85,55.85,0,0,0-7.7-3.13Z"></path><path d="M297.48,436c-2.41-.15-4.8-.43-7.19-.76-1.2-.19-2.39-.4-3.58-.69a12.65,12.65,0,0,1-1.78-.57,11.7,11.7,0,0,1-1.64-.9c-2.07-1.29-4-2.74-6-4a21.21,21.21,0,0,0-6.2-3.14,31.86,31.86,0,0,0-3.48-.55,7.59,7.59,0,0,0-3.27.27,1,1,0,0,0-.66.87,2.08,2.08,0,0,0,.65,1.17,13.61,13.61,0,0,0,2.76,2,20.68,20.68,0,0,0,3.2,1.49,7.81,7.81,0,0,0,3.35.58.85.85,0,0,0,.58-.22c.07-.06,0-.32-.2-.53a7.23,7.23,0,0,0-1.3-1.15,31.84,31.84,0,0,0-3.05-1.91,23.27,23.27,0,0,1,3.23,1.63,7.12,7.12,0,0,1,1.48,1.12,1,1,0,0,1,.34,1.08,1.31,1.31,0,0,1-1,.59,8.12,8.12,0,0,1-3.72-.44,19.06,19.06,0,0,1-3.41-1.39,12.28,12.28,0,0,1-3.09-2.13,3,3,0,0,1-1-1.95,2,2,0,0,1,.38-1.17,2.32,2.32,0,0,1,.92-.72,8.47,8.47,0,0,1,3.84-.43,29.42,29.42,0,0,1,3.65.52,13,13,0,0,1,3.48,1.46c1.07.61,2.1,1.27,3.1,1.95,2,1.37,3.94,2.81,5.87,4.19a8.86,8.86,0,0,0,3.1,1.51c1.14.34,2.31.6,3.48.85C292.74,435.17,295.11,435.57,297.48,436Z"></path><path d="M280.57,435.65a42.66,42.66,0,0,1-9.71-.56A35.73,35.73,0,0,1,266.1,434a11.3,11.3,0,0,1-4.34-2.27,19.91,19.91,0,0,0,4.59,1.32c1.56.29,3.14.57,4.72.83C274.22,434.39,277.4,434.89,280.57,435.65Z"></path><path d="M292.23,446.34a61.77,61.77,0,0,0,6,4.67,30.7,30.7,0,0,0,3.23,1.9,37.43,37.43,0,0,0,3.51,1.51,11,11,0,0,1-3.89-.6,15.26,15.26,0,0,1-3.55-1.76,17.84,17.84,0,0,1-3-2.54A13.83,13.83,0,0,1,292.23,446.34Z"></path></g><circle cx="216.24" cy="299.95" r="1.76" style="fill:#7E57C2"></circle><path d="M236.91,224.14a1.76,1.76,0,1,1-1.76-1.77A1.76,1.76,0,0,1,236.91,224.14Z" style="fill:#7E57C2"></path><path d="M304.4,288.42a1.76,1.76,0,1,1,.32-2.47A1.76,1.76,0,0,1,304.4,288.42Z" style="fill:#7E57C2"></path><path d="M320.22,396.24a1.77,1.77,0,1,1-1.77-1.76A1.76,1.76,0,0,1,320.22,396.24Z" style="fill:#7E57C2"></path><circle cx="208.11" cy="384.27" r="1.76" style="fill:#7E57C2"></circle><path d="M220.39,311.49A2.39,2.39,0,1,1,218,309.1,2.39,2.39,0,0,1,220.39,311.49Z" style="fill:#7E57C2"></path><path d="M294.81,268.64a2.39,2.39,0,1,1,.43-3.34A2.39,2.39,0,0,1,294.81,268.64Z" style="fill:#7E57C2"></path><path d="M315.7,357a2.39,2.39,0,1,1-2.39-2.39A2.39,2.39,0,0,1,315.7,357Z" style="fill:#7E57C2"></path><path d="M224.18,308.07a1,1,0,1,1-1-1A1,1,0,0,1,224.18,308.07Z" style="fill:#7E57C2"></path><path d="M215.37,341.56a1,1,0,1,1-2.07,0,1,1,0,0,1,2.07,0Z" style="fill:#7E57C2"></path><path d="M201.86,374.79a1,1,0,1,1-1-1A1,1,0,0,1,201.86,374.79Z" style="fill:#7E57C2"></path><path d="M319.16,349.63a1,1,0,0,1-2.07,0,1,1,0,1,1,2.07,0Z" style="fill:#7E57C2"></path><path d="M210.18,275.31a1,1,0,0,1-2.07,0,1,1,0,1,1,2.07,0Z" style="fill:#7E57C2"></path><path d="M257.83,265.72a1,1,0,0,1-2.07,0,1,1,0,1,1,2.07,0Z" style="fill:#7E57C2"></path><path d="M265.61,250.13a1,1,0,1,1-1-1A1,1,0,0,1,265.61,250.13Z" style="fill:#7E57C2"></path><path d="M312.17,410.09c-.34-3.55-3.16-9.7-3.72-12.36s3.11-10.53,2.39-13.75-7-10.58-7-10.58.54,8.14,0,9.14-2.34,2.88-2.78,2.55,3.32-16.13,2.71-21-11.64-23.34-10.25-20.4,4.77,15.52,4.43,18-5.32,12.64-6.48,17.3,1.83,12.13,1.66,13.13-4.82,0-7-2.33,1.66-14.3,2.82-17.46-3.15-19.62-4.77-21.78-17.34-5.32-18.17-7.31,6.15-10,5.49-11.81-7.65-5.49-9.57-7.81,0-12.14,0-12.14-11.05,17.79-11.55,23,3,9.13,3.38,10.63-4.05,14.13-5.71,15.63-5.48,3.32-9.24,5.65-5.58,9.64-5.58,9.64c-.35-3.16,3.18-10.31,3.46-12.47s-7.59-17.62-7.3-19.78,5.86-9.15,6.25-12.14-11.83-15.8-11.83-15.8,5.62,14.63,4.29,18.64S212,363.2,212.29,368.19s4,20.12,3.84,22.61-5.5,15.13-4.61,18.63,14.08,15.46,16.82,17.28,8.73-.83,11.22,0,19.85,5,19.85,5l6.94-.11s26.53-3.43,33.9-8.09C302.9,421.82,312.5,413.63,312.17,410.09ZM228,385.7s3.77,5.27,2.6,9.37-2.38,5.93-2.32,8,.83,7.26.83,7.26c-.34-.28-3.85-7.36-4.1-10.59C224.65,395.51,228,385.7,228,385.7Zm2.38,38C228,422.45,220.83,416,220.05,413s.83-12.09.83-12.09,1.79,9,2.92,10.92,7.39,4.66,9.5,6.6,6.37,5.59,6.37,5.59S232.69,424.89,230.36,423.67Zm62.24-10.09c-1.27,5.43-8.64,8.87-8.64,8.87s1.44-5.32,2.77-7.37,3.16-6,3-9.15-3.4-9.06-3.64-9.5C286.5,397.07,293.84,408.31,292.6,413.58Z" style="fill:#7E57C2"></path><path d="M236.21,319s-7.63-5.43-7.86-9.53,4.77-12.64,4.27-16a22.69,22.69,0,0,0-2.19-6.43s8.08,5.54,8,10.08-4.81,11.75-4.36,14S236.21,319,236.21,319Z" style="fill:#7E57C2"></path><path d="M281.79,343.91s-1.77-5.41-1.52-7.54,2.8-5,2.8-5a5.93,5.93,0,0,1,1,5.6C283.1,340.47,281.79,343.91,281.79,343.91Z" style="fill:#7E57C2"></path><path d="M300.67,343a30.56,30.56,0,0,1-4.37-11.58c-.58-5.25,2.2-11.86,3.16-13.56s5-4,5-4-2.74,4.33-2.83,6.28,1.37,8,1.58,10.39S300.67,343,300.67,343Z" style="fill:#7E57C2"></path><path d="M251.12,311.49s-5.74-7.82-4.66-12.89,5.53-11.68,7.23-13.39,5.91-5.73,7.65-8.48,1.83-12.72,0-15.21a15.38,15.38,0,0,0-5-4,15.83,15.83,0,0,1,12.81,6.6c5,7,11.39,34.08,8.39,40.24s-11.39,12.22-11.39,12.22,2.25-10.73,1.5-13.39-8.73,0-10.72,1.62S251.12,311.49,251.12,311.49Z" style="fill:#7E57C2"></path><path d="M237.93,349.81s-3.52-3.66-2.77-6.82,5.23-7.89,5.48-9.39-1-7.58-1-7.58,4.53,8.58,3.54,11.24a65,65,0,0,0-1.92,6.65s2-1.33,2.42-2.41a28.62,28.62,0,0,0,.83-2.91s3.41,4.24,2.32,7.23-7,8.73-7,8.73a19.56,19.56,0,0,0,.08-2.74C239.81,350.81,239.18,351.38,237.93,349.81Z" style="fill:#7E57C2"></path><g style="opacity:0.4"><path d="M262.32,431.59s-20.78-7.48-25.41-18.11c-2.91-6.68,4.93-20.32,5.59-22.49s-.2-10.47.9-13.8,15.81-12,17.1-14.33-2.57-11.44-2.57-11.44,11.18,9.05,12.84,14.17-5,15.09-4.9,16.92,3.9,7.25,3.9,7.25,3-3.76,3.06-7.25-1.62-5.3-1.26-7.72,4.87-7.07,4.87-7.07-2.35,4.17-1.18,7.07,6.82,8.56,6,13-7.48,14.81-6.9,17.63a13.43,13.43,0,0,0,2.09,4.85,47.07,47.07,0,0,0,2.39-7c.58-2.81,1.2-6.55,1.2-6.55s3.41,18.46-.1,23.65S262.32,431.59,262.32,431.59Z" style="fill:#fff"></path><path d="M256.8,303c-.17-.33-2.41-5.36-2.49-8.1s4.9-6.4,7.15-8.48,7.06-8.81,6.65-12.3-.94-6.16-.94-6.16,6.92,19.79,6.51,26a18.08,18.08,0,0,1-4.08,10.22s-1.32-6-4.24-5.82C261.46,298.63,256.8,303,256.8,303Z" style="fill:#fff"></path><path d="M234.41,316.23S230,312.07,230,309.3s4.38-10.48,4.38-10.48-1.86,9-2.19,10.81S234.41,316.23,234.41,316.23Z" style="fill:#fff"></path><path d="M285.75,425.08s9-5.62,10.67-7.09,4.13-9.42,4-11-3.08-8.62-3.08-10.56,5.9-8.84,5.9-8.84-1.91,6.54-1.58,8.13,8,10.74,7.55,14.15-7.8,9.57-9.9,10.95S285.75,425.08,285.75,425.08Z" style="fill:#fff"></path><path d="M222.12,388.72s-6-15.52-5.44-19.62,7.5-19.62,7.5-19.62-.5,13.24-1.06,15.32,1.06,8.4,1.06,8.4a52.42,52.42,0,0,0,2.53-6.2c.38-1.67-1.19-8.1-1.19-8.1s4.35,11.49,3.35,15.89S222.12,388.72,222.12,388.72Z" style="fill:#fff"></path></g></g></svg>