<svg xmlns="http://www.w3.org/2000/svg" viewBox="0 0 500 500"><g id="freepik--background-complete--inject-6"><rect x="416.78" y="398.49" width="33.12" height="0.25" style="fill:#ebebeb"></rect><rect x="322.53" y="401.21" width="8.69" height="0.25" style="fill:#ebebeb"></rect><rect x="396.59" y="389.21" width="19.19" height="0.25" style="fill:#ebebeb"></rect><rect x="52.46" y="390.89" width="43.19" height="0.25" style="fill:#ebebeb"></rect><rect x="104.56" y="390.89" width="6.33" height="0.25" style="fill:#ebebeb"></rect><rect x="131.47" y="395.11" width="93.68" height="0.25" style="fill:#ebebeb"></rect><path d="M237,337.8H43.91a5.71,5.71,0,0,1-5.7-5.71V60.66A5.71,5.71,0,0,1,43.91,55H237a5.71,5.71,0,0,1,5.71,5.71V332.09A5.71,5.71,0,0,1,237,337.8ZM43.91,55.2a5.46,5.46,0,0,0-5.45,5.46V332.09a5.46,5.46,0,0,0,5.45,5.46H237a5.47,5.47,0,0,0,5.46-5.46V60.66A5.47,5.47,0,0,0,237,55.2Z" style="fill:#ebebeb"></path><path d="M452.59,336.53H259.49a5.71,5.71,0,0,1-5.71-5.71V59.39a5.71,5.71,0,0,1,5.71-5.71h193.1a5.71,5.71,0,0,1,5.71,5.71V330.82A5.71,5.71,0,0,1,452.59,336.53ZM259.49,53.93A5.47,5.47,0,0,0,254,59.39V330.82a5.47,5.47,0,0,0,5.46,5.46h193.1a5.47,5.47,0,0,0,5.46-5.46V59.39a5.47,5.47,0,0,0-5.46-5.46Z" style="fill:#ebebeb"></path><rect y="382.4" width="500" height="0.25" style="fill:#ebebeb"></rect><circle cx="250" cy="234.7" r="175.15" style="fill:#fafafa"></circle><circle cx="250" cy="234.7" r="147.87" style="fill:#f0f0f0"></circle><path d="M354.71,212.07c-2.79-.64-6,1.37-8.45-.08-3.07-1.82-2.85-7.64-6.4-8-6.17-.67-8.64,8.45-12.39,8.75-3.51.28-5.68-4.44-9.19-4.78-4.36-.42-6.93,5.58-11.28,6.09-2.4.29-4.71-1.16-7.13-1.05a5.61,5.61,0,0,0-5.17,5.76h68.38S358.45,212.93,354.71,212.07Z" style="fill:#fff"></path><path d="M183.88,163.19c-3.17-1.84-6-1.19-9.12-.62s-3.43-3.57-7.08-5.35c-5.1-2.49-8.2,2.87-9.51,5.06s-4.59,1-7.83,1.57c-4.49.81-4.64,5.49-4.64,5.49h41.68S187.3,165.17,183.88,163.19Z" style="fill:#fff"></path><path d="M177.71,207.57c1.77-.4,3.78.87,5.34,0,1.95-1.15,1.81-4.83,4-5.07,3.9-.42,5.46,5.35,7.84,5.54,2.22.17,3.59-2.81,5.81-3,2.76-.26,4.38,3.53,7.14,3.86,1.51.18,3-.74,4.5-.67a3.56,3.56,0,0,1,3.28,3.64H172.42S175.34,208.12,177.71,207.57Z" style="fill:#fff"></path><path d="M370.52,120.81a18.89,18.89,0,0,0-11.47-2.46,9.44,9.44,0,0,0-1.28-1.47c-1.88-1.81-4.11-3.48-6.71-3.77-1.5-.17-4.56.68-7.07,2-1.81-2.36-3.86-5.12-7.37-6.84-10.68-5.21-17.17,6-19.9,10.58s-9.62,2.07-16.4,3.29c-9.39,1.69-9.71,11.49-9.71,11.49h87.24S377.67,125,370.52,120.81Z" style="fill:#fff"></path></g><g id="freepik--Shadow--inject-6"><ellipse id="freepik--path--inject-6" cx="250" cy="416.24" rx="193.89" ry="11.32" style="fill:#f5f5f5"></ellipse></g><g id="freepik--Bush--inject-6"><path d="M420.64,393.58s-10.23,2.18-15.85,14.09" style="fill:none;stroke:#407BFF;stroke-linecap:round;stroke-miterlimit:10"></path><path d="M420.64,393.58s-10.23,2.18-15.85,14.09" style="fill:none;stroke:#fff;stroke-linecap:round;stroke-miterlimit:10;opacity:0.6000000000000001"></path><path d="M394.66,370.32s-.42,24.36-9,29.89" style="fill:none;stroke:#407BFF;stroke-linecap:round;stroke-miterlimit:10"></path><path d="M394.66,370.32s-.42,24.36-9,29.89" style="fill:none;stroke:#fff;stroke-linecap:round;stroke-miterlimit:10;opacity:0.4"></path><path d="M398.77,399.28c5.67-11.13,8.62-40.89-8.08-6.65,0,0,1.62-46.87-9.26-9.54l0,21.87,16,0Z" style="fill:#407BFF"></path><path d="M398.77,399.28c5.67-11.13,8.62-40.89-8.08-6.65,0,0,1.62-46.87-9.26-9.54l0,21.87,16,0Z" style="fill:#fff;opacity:0.4"></path><path d="M382.76,415.24c38.14-.08,64-24.33,24.74-12.73,0,0,17.37-36.87-13.2-1,0,0,2.95-46.84-15.76,2l2.35,11.79Z" style="fill:#407BFF"></path><path d="M382.76,415.24c38.14-.08,64-24.33,24.74-12.73,0,0,17.37-36.87-13.2-1,0,0,2.95-46.84-15.76,2l2.35,11.79Z" style="fill:#fff;opacity:0.6000000000000001"></path><path d="M401.12,379.42s-3,19.27-12,28.33" style="fill:none;stroke:#407BFF;stroke-linecap:round;stroke-miterlimit:10"></path><path d="M401.12,379.42s-3,19.27-12,28.33" style="fill:none;stroke:#fff;stroke-linecap:round;stroke-miterlimit:10;opacity:0.6000000000000001"></path><path d="M95.58,403.4S85.24,401.8,79,390.22" style="fill:none;stroke:#407BFF;stroke-linecap:round;stroke-miterlimit:10"></path><path d="M95.58,403.4S85.24,401.8,79,390.22" style="fill:none;stroke:#fff;stroke-linecap:round;stroke-miterlimit:10;opacity:0.6000000000000001"></path><path d="M109.65,395.77s-.89-24.36-9.62-29.72" style="fill:none;stroke:#407BFF;stroke-linecap:round;stroke-miterlimit:10"></path><path d="M109.65,395.77s-.89-24.36-9.62-29.72" style="fill:none;stroke:#fff;stroke-linecap:round;stroke-miterlimit:10;opacity:0.4"></path><path d="M101.23,399.27c-5.7-11.12-8.71-40.87,8.06-6.66,0,0-1.72-46.87,9.25-9.57v21.87h-16Z" style="fill:#407BFF"></path><path d="M101.23,399.27c-5.7-11.12-8.71-40.87,8.06-6.66,0,0-1.72-46.87,9.25-9.57v21.87h-16Z" style="fill:#fff;opacity:0.4"></path><path d="M117.27,415.19c-38.14,0-64.06-24.19-24.77-12.67,0,0-17.45-36.84,13.2-1.06,0,0-3-46.83,15.77,1.94l-2.33,11.79Z" style="fill:#407BFF"></path><path d="M117.27,415.19c-38.14,0-64.06-24.19-24.77-12.67,0,0-17.45-36.84,13.2-1.06,0,0-3-46.83,15.77,1.94l-2.33,11.79Z" style="fill:#fff;opacity:0.6000000000000001"></path><path d="M106.79,404.94s-5.19-18.8-15.21-26.75" style="fill:none;stroke:#407BFF;stroke-linecap:round;stroke-miterlimit:10"></path><path d="M106.79,404.94s-5.19-18.8-15.21-26.75" style="fill:none;stroke:#fff;stroke-linecap:round;stroke-miterlimit:10;opacity:0.6000000000000001"></path></g><g id="freepik--Castle--inject-6"><polygon points="216.7 419.02 213.9 408.86 216.7 408.86 216.7 419.02" style="fill:#407BFF"></polygon><polygon points="216.7 419.02 213.9 408.86 216.7 408.86 216.7 419.02" style="opacity:0.4"></polygon><polygon points="283.28 419.02 286.08 408.86 283.28 408.86 283.28 419.02" style="fill:#407BFF"></polygon><polygon points="283.28 419.02 286.08 408.86 283.28 408.86 283.28 419.02" style="opacity:0.4"></polygon><polygon points="340.64 415.19 337.62 408.86 340.64 408.86 340.64 415.19" style="fill:#407BFF"></polygon><polygon points="340.64 415.19 337.62 408.86 340.64 408.86 340.64 415.19" style="opacity:0.4"></polygon><polygon points="159.36 415.19 162.38 408.86 159.36 408.86 159.36 415.19" style="fill:#407BFF"></polygon><polygon points="159.36 415.19 162.38 408.86 159.36 408.86 159.36 415.19" style="opacity:0.4"></polygon><rect x="155.79" y="328.12" width="188.42" height="80.74" style="fill:#407BFF"></rect><path d="M318.13,328.12a19.83,19.83,0,0,0,3.31-11v-2.56H280.73v21.11H219.25V314.58H178.56v2.56a19.83,19.83,0,0,0,3.31,11H155.79v80.74h6.59v-78h21.67a19.92,19.92,0,0,0,14.49,6.27H213.3V340h-7.67V358.4h8.31v50.46h72.12V358.4h8.31V340H286.7v-2.85h14.76A19.92,19.92,0,0,0,316,330.85h21.83v78h6.6V328.12Z" style="opacity:0.4"></path><rect x="155.79" y="295.09" width="188.42" height="33.03" style="fill:#263238"></rect><g style="opacity:0.30000000000000004"><rect x="155.79" y="295.09" width="188.42" height="33.03"></rect></g><g style="opacity:0.1"><line x1="157.74" y1="295.09" x2="157.74" y2="328.12" style="fill:none;stroke:#fff;stroke-miterlimit:10"></line><line x1="166.54" y1="295.09" x2="166.54" y2="328.12" style="fill:none;stroke:#fff;stroke-miterlimit:10"></line><line x1="175.34" y1="295.09" x2="175.34" y2="328.12" style="fill:none;stroke:#fff;stroke-miterlimit:10"></line><line x1="184.15" y1="295.09" x2="184.15" y2="328.12" style="fill:none;stroke:#fff;stroke-miterlimit:10"></line><line x1="192.95" y1="295.09" x2="192.95" y2="328.12" style="fill:none;stroke:#fff;stroke-miterlimit:10"></line><line x1="201.76" y1="295.09" x2="201.76" y2="328.12" style="fill:none;stroke:#fff;stroke-miterlimit:10"></line><line x1="210.56" y1="295.09" x2="210.56" y2="328.12" style="fill:none;stroke:#fff;stroke-miterlimit:10"></line><line x1="219.36" y1="295.09" x2="219.36" y2="328.12" style="fill:none;stroke:#fff;stroke-miterlimit:10"></line><line x1="228.17" y1="295.09" x2="228.17" y2="328.12" style="fill:none;stroke:#fff;stroke-miterlimit:10"></line><line x1="236.97" y1="295.09" x2="236.97" y2="328.12" style="fill:none;stroke:#fff;stroke-miterlimit:10"></line><line x1="245.78" y1="295.09" x2="245.78" y2="328.12" style="fill:none;stroke:#fff;stroke-miterlimit:10"></line><line x1="254.58" y1="295.09" x2="254.58" y2="328.12" style="fill:none;stroke:#fff;stroke-miterlimit:10"></line><line x1="263.38" y1="295.09" x2="263.38" y2="328.12" style="fill:none;stroke:#fff;stroke-miterlimit:10"></line><line x1="272.19" y1="295.09" x2="272.19" y2="328.12" style="fill:none;stroke:#fff;stroke-miterlimit:10"></line><line x1="280.99" y1="295.09" x2="280.99" y2="328.12" style="fill:none;stroke:#fff;stroke-miterlimit:10"></line><line x1="289.8" y1="295.09" x2="289.8" y2="328.12" style="fill:none;stroke:#fff;stroke-miterlimit:10"></line><line x1="298.6" y1="295.09" x2="298.6" y2="328.12" style="fill:none;stroke:#fff;stroke-miterlimit:10"></line><line x1="307.4" y1="295.09" x2="307.4" y2="328.12" style="fill:none;stroke:#fff;stroke-miterlimit:10"></line><line x1="316.21" y1="295.09" x2="316.21" y2="328.12" style="fill:none;stroke:#fff;stroke-miterlimit:10"></line><line x1="325.01" y1="295.09" x2="325.01" y2="328.12" style="fill:none;stroke:#fff;stroke-miterlimit:10"></line><line x1="333.82" y1="295.09" x2="333.82" y2="328.12" style="fill:none;stroke:#fff;stroke-miterlimit:10"></line><line x1="342.62" y1="295.09" x2="342.62" y2="328.12" style="fill:none;stroke:#fff;stroke-miterlimit:10"></line></g><rect x="167.38" y="338.27" width="11.08" height="5.47" style="opacity:0.30000000000000004"></rect><rect x="180.02" y="344.7" width="11.08" height="5.47" transform="translate(371.13 694.86) rotate(180)" style="fill:#fff;opacity:0.30000000000000004"></rect><rect x="319.22" y="338.27" width="11.08" height="5.47" style="opacity:0.30000000000000004"></rect><rect x="325.51" y="344.97" width="11.08" height="5.47" style="opacity:0.30000000000000004"></rect><rect x="288.92" y="386.47" width="11.08" height="5.47" style="opacity:0.30000000000000004"></rect><rect x="169.83" y="385.42" width="11.08" height="5.47" style="fill:#fff;opacity:0.30000000000000004"></rect><rect x="159.36" y="392.11" width="11.08" height="5.47" style="opacity:0.30000000000000004"></rect><rect x="301.5" y="386.47" width="11.08" height="5.47" style="fill:#fff;opacity:0.30000000000000004"></rect><rect x="208.39" y="366.05" width="11.08" height="5.47" style="opacity:0.30000000000000004"></rect><rect x="295.21" y="393.17" width="11.08" height="5.47" style="opacity:0.30000000000000004"></rect><rect x="196.21" y="392.11" width="11.08" height="5.47" style="fill:#fff;opacity:0.30000000000000004"></rect><rect x="331.05" y="393.17" width="11.08" height="5.47" style="fill:#fff;opacity:0.30000000000000004"></rect><rect x="230.8" y="113.07" width="38.4" height="49.39" style="fill:#407BFF"></rect><rect x="230.8" y="113.07" width="38.4" height="49.39" style="fill:#fff;opacity:0.2"></rect><rect x="230.8" y="113.07" width="38.41" height="2.78" style="fill:#407BFF"></rect><rect x="230.8" y="113.07" width="38.41" height="2.78" style="opacity:0.4"></rect><rect x="228.47" y="207.11" width="43.06" height="98.84" style="fill:#407BFF"></rect><rect x="228.47" y="207.11" width="43.06" height="98.84" style="fill:#fff;opacity:0.2"></rect><rect x="228.47" y="207.11" width="43.06" height="2.78" style="fill:#407BFF"></rect><rect x="228.47" y="207.11" width="43.06" height="2.78" style="opacity:0.4"></rect><polygon points="222.05 188.53 225.69 207.11 274.31 207.11 277.94 188.53 277.94 168.8 222.05 168.8 222.05 188.53" style="fill:#407BFF"></polygon><polygon points="222.05 188.53 225.69 207.11 274.31 207.11 277.94 188.53 277.94 168.8 222.05 168.8 222.05 188.53" style="fill:#fff;opacity:0.2"></polygon><rect x="222.05" y="168.8" width="55.89" height="2.78" style="fill:#407BFF"></rect><rect x="222.05" y="168.8" width="55.89" height="2.78" style="opacity:0.4"></rect><path d="M241.7,202V186.91a4.35,4.35,0,0,0-8.69,0V202Z" style="fill:#407BFF"></path><path d="M254.35,202V186.91a4.35,4.35,0,0,0-8.7,0V202Z" style="fill:#407BFF"></path><path d="M267,202V186.91a4.34,4.34,0,0,0-4.34-4.34h0a4.34,4.34,0,0,0-4.35,4.34V202Z" style="fill:#407BFF"></path><path d="M241.7,202V186.91a4.35,4.35,0,0,0-8.69,0V202Z" style="opacity:0.30000000000000004"></path><path d="M254.35,202V186.91a4.35,4.35,0,0,0-8.7,0V202Z" style="opacity:0.30000000000000004"></path><path d="M267,202V186.91a4.34,4.34,0,0,0-4.34-4.34h0a4.34,4.34,0,0,0-4.35,4.34V202Z" style="opacity:0.30000000000000004"></path><path d="M267,202V190.54a3.07,3.07,0,0,0-2.76-3.3h0a3.07,3.07,0,0,0-2.77,3.3V202Z" style="opacity:0.5"></path><path d="M254.35,202V190.54a3.07,3.07,0,0,0-2.77-3.3h0a3.07,3.07,0,0,0-2.76,3.3V202Z" style="opacity:0.5"></path><path d="M241.7,202V190.54a3.07,3.07,0,0,0-2.76-3.3h0a3.07,3.07,0,0,0-2.77,3.3V202Z" style="opacity:0.5"></path><rect x="237.09" y="148.19" width="25.81" height="3.82" style="fill:#407BFF"></rect><rect x="237.09" y="148.19" width="25.81" height="3.82" style="fill:#407BFF"></rect><rect x="237.09" y="148.19" width="25.81" height="3.82" style="opacity:0.1"></rect><path d="M259.69,148.19H240.31V136.13a9.69,9.69,0,0,1,9.69-9.69h0a9.69,9.69,0,0,1,9.69,9.69Z" style="fill:#407BFF"></path><path d="M259.69,148.19H240.31V136.13a9.69,9.69,0,0,1,9.69-9.69h0a9.69,9.69,0,0,1,9.69,9.69Z" style="opacity:0.30000000000000004"></path><path d="M259.69,148.19H246.53V137.67a6.58,6.58,0,0,1,6.58-6.59h0a6.59,6.59,0,0,1,6.58,6.59Z" style="opacity:0.5"></path><polygon points="235.01 102.01 220.55 113.07 279.45 113.07 264.99 102.01 235.01 102.01" style="fill:#263238"></polygon><polygon points="235.01 102.01 220.55 113.07 279.45 113.07 264.99 102.01 235.01 102.01" style="fill:#fff;opacity:0.2"></polygon><polygon points="264.99 102.01 250 79.81 235.01 102.01 264.99 102.01" style="fill:#263238"></polygon><polygon points="250 79.81 255.66 102.12 262.92 113.07 279.45 113.07 264.73 101.62 250 79.81" style="fill:#fff;opacity:0.2"></polygon><polygon points="277.94 157.12 277.94 162.46 274.52 162.46 274.52 157.12 269.18 157.12 269.18 162.46 265.78 162.46 265.78 157.12 260.43 157.12 260.43 162.46 257.03 162.46 257.03 157.12 251.69 157.12 251.69 162.46 248.29 162.46 248.29 157.12 242.94 157.12 242.94 162.46 239.54 162.46 239.54 157.12 234.2 157.12 234.2 162.46 230.8 162.46 230.8 157.12 225.45 157.12 225.45 162.46 222.06 162.46 222.06 157.12 216.71 157.12 216.71 162.46 216.71 168.8 283.29 168.8 283.29 162.46 283.29 157.12 277.94 157.12" style="fill:#407BFF"></polygon><polygon points="277.94 157.12 277.94 162.46 274.52 162.46 274.52 157.12 269.18 157.12 269.18 162.46 265.78 162.46 265.78 157.12 260.43 157.12 260.43 162.46 257.03 162.46 257.03 157.12 251.69 157.12 251.69 162.46 248.29 162.46 248.29 157.12 242.94 157.12 242.94 162.46 239.54 162.46 239.54 157.12 234.2 157.12 234.2 162.46 230.8 162.46 230.8 157.12 225.45 157.12 225.45 162.46 222.06 162.46 222.06 157.12 216.71 157.12 216.71 162.46 216.71 168.8 283.29 168.8 283.29 162.46 283.29 157.12 277.94 157.12" style="opacity:0.30000000000000004"></polygon><rect x="241.7" y="228.55" width="11.08" height="5.47" style="opacity:0.30000000000000004"></rect><rect x="254.28" y="228.55" width="11.08" height="5.47" style="fill:#fff;opacity:0.30000000000000004"></rect><rect x="247.99" y="235.25" width="11.08" height="5.47" style="opacity:0.30000000000000004"></rect><rect x="238.17" y="267.42" width="11.08" height="5.47" style="fill:#fff;opacity:0.30000000000000004"></rect><rect x="244.46" y="274.12" width="11.08" height="5.47" style="opacity:0.30000000000000004"></rect><rect x="231.81" y="290.32" width="11.08" height="5.47" style="opacity:0.30000000000000004"></rect><rect x="232.63" y="213.2" width="11.08" height="5.47" style="fill:#fff;opacity:0.30000000000000004"></rect><rect x="225.26" y="174.33" width="11.08" height="5.47" style="opacity:0.30000000000000004"></rect><rect x="269.77" y="176.65" width="6.68" height="5.47" style="fill:#fff;opacity:0.30000000000000004"></rect><rect x="233" y="117.59" width="6.68" height="5.47" style="fill:#fff;opacity:0.30000000000000004"></rect><rect x="262.65" y="248.59" width="7.12" height="5.47" style="opacity:0.30000000000000004"></rect><rect x="256.43" y="120.32" width="10.38" height="5.47" style="opacity:0.30000000000000004"></rect><polygon points="250 211.59 228.47 234.8 228.47 308.03 271.53 308.03 271.53 234.81 250 211.59" style="fill:#407BFF"></polygon><polygon points="250 211.59 228.47 234.8 228.47 308.03 271.53 308.03 271.53 234.81 250 211.59" style="opacity:0.4"></polygon><path d="M283.28,317.14h35.61a0,0,0,0,1,0,0v0a17.43,17.43,0,0,1-17.43,17.43H283.28a0,0,0,0,1,0,0V317.14A0,0,0,0,1,283.28,317.14Z" style="fill:#407BFF"></path><path d="M283.28,317.14h35.61a0,0,0,0,1,0,0v0a17.43,17.43,0,0,1-17.43,17.43H283.28a0,0,0,0,1,0,0V317.14A0,0,0,0,1,283.28,317.14Z" style="fill:#fff;opacity:0.4"></path><rect x="298.93" y="281.87" width="19.96" height="35.27" transform="translate(617.81 599) rotate(180)" style="fill:#407BFF"></rect><rect x="298.93" y="281.87" width="19.96" height="35.27" transform="translate(617.81 599) rotate(180)" style="fill:#fff;opacity:0.2"></rect><polygon points="302.18 258.53 295.68 275.53 322.13 275.53 315.64 258.53 302.18 258.53" style="fill:#263238"></polygon><polygon points="302.18 258.53 295.68 275.53 322.13 275.53 315.64 258.53 302.18 258.53" style="fill:#fff;opacity:0.2"></polygon><polygon points="315.64 258.53 308.91 224.4 302.18 258.53 315.64 258.53" style="fill:#263238"></polygon><polygon points="308.91 224.4 311.45 258.7 314.71 275.53 322.13 275.53 315.52 257.93 308.91 224.4" style="fill:#fff;opacity:0.2"></polygon><rect x="295.68" y="275.53" width="26.45" height="6.34" transform="translate(617.81 557.4) rotate(180)" style="fill:#263238"></rect><rect x="314.69" y="275.53" width="7.44" height="6.34" transform="translate(636.82 557.4) rotate(180)" style="fill:#fff;opacity:0.2"></rect><g style="opacity:0.5"><path d="M309.59,332.54l-8.88-13.81,15.5,7.66c.22-.36.45-.72.65-1.1l-16.49-8.15h-2.08v17.43h1.28V319.31l8.87,13.79C308.83,332.93,309.22,332.74,309.59,332.54Z" style="fill:#fff"></path><rect x="286.06" y="317.14" width="1.28" height="17.43" style="fill:#fff"></rect><rect x="292.18" y="317.14" width="1.28" height="17.43" style="fill:#fff"></rect></g><path d="M313.25,309.21V294.14a4.34,4.34,0,0,0-4.34-4.35h0a4.35,4.35,0,0,0-4.35,4.35v15.07Z" style="fill:#407BFF"></path><path d="M313.25,309.21V294.14a4.34,4.34,0,0,0-4.34-4.35h0a4.35,4.35,0,0,0-4.35,4.35v15.07Z" style="opacity:0.30000000000000004"></path><path d="M313.25,309.21V297.76a3.06,3.06,0,0,0-2.76-3.3h0a3.06,3.06,0,0,0-2.76,3.3v11.45Z" style="opacity:0.5"></path><path d="M181.11,317.14h18.15a17.43,17.43,0,0,1,17.43,17.43v0a0,0,0,0,1,0,0H181.11a0,0,0,0,1,0,0V317.14A0,0,0,0,1,181.11,317.14Z" transform="translate(397.81 651.7) rotate(-180)" style="fill:#407BFF"></path><path d="M181.11,317.14h18.15a17.43,17.43,0,0,1,17.43,17.43v0a0,0,0,0,1,0,0H181.11a0,0,0,0,1,0,0V317.14A0,0,0,0,1,181.11,317.14Z" transform="translate(397.81 651.7) rotate(-180)" style="fill:#fff;opacity:0.4"></path><rect x="181.11" y="281.87" width="19.96" height="35.27" style="fill:#407BFF"></rect><rect x="181.11" y="281.87" width="19.96" height="35.27" style="fill:#fff;opacity:0.2"></rect><polygon points="184.36 258.53 177.87 275.53 204.32 275.53 197.82 258.53 184.36 258.53" style="fill:#263238"></polygon><polygon points="184.36 258.53 177.87 275.53 204.32 275.53 197.82 258.53 184.36 258.53" style="fill:#fff;opacity:0.2"></polygon><polygon points="197.82 258.53 191.09 224.4 184.36 258.53 197.82 258.53" style="fill:#263238"></polygon><polygon points="191.09 224.4 193.64 258.7 196.89 275.53 204.32 275.53 197.71 257.93 191.09 224.4" style="fill:#fff;opacity:0.2"></polygon><rect x="177.87" y="275.53" width="26.45" height="6.34" transform="translate(382.19 557.4) rotate(180)" style="fill:#263238"></rect><rect x="196.88" y="275.53" width="7.44" height="6.34" transform="translate(401.2 557.4) rotate(180)" style="fill:#fff;opacity:0.2"></rect><g style="opacity:0.5"><path d="M190.41,332.54l8.88-13.81-15.5,7.66c-.22-.36-.45-.72-.65-1.1l16.49-8.15h2.08v17.43h-1.28V319.31l-8.87,13.79C191.17,332.93,190.78,332.74,190.41,332.54Z" style="fill:#fff"></path><rect x="212.66" y="317.14" width="1.28" height="17.43" style="fill:#fff"></rect><rect x="206.55" y="317.14" width="1.28" height="17.43" style="fill:#fff"></rect></g><path d="M186.75,309.21V294.14a4.34,4.34,0,0,1,4.34-4.35h0a4.35,4.35,0,0,1,4.35,4.35v15.07Z" style="fill:#407BFF"></path><path d="M186.75,309.21V294.14a4.34,4.34,0,0,1,4.34-4.35h0a4.35,4.35,0,0,1,4.35,4.35v15.07Z" style="opacity:0.30000000000000004"></path><path d="M189.91,309.21V297.76a3.07,3.07,0,0,1,2.76-3.3h0a3.07,3.07,0,0,1,2.77,3.3v11.45Z" style="opacity:0.5"></path><path d="M306,377.82V362.74a4.35,4.35,0,0,0-8.69,0v15.08Z" style="fill:#407BFF"></path><path d="M318.6,377.82V362.74a4.35,4.35,0,0,0-8.69,0v15.08Z" style="fill:#407BFF"></path><path d="M331.25,377.82V362.74a4.34,4.34,0,0,0-4.35-4.34h0a4.34,4.34,0,0,0-4.34,4.34v15.08Z" style="fill:#407BFF"></path><path d="M306,377.82V362.74a4.35,4.35,0,0,0-8.69,0v15.08Z" style="opacity:0.30000000000000004"></path><path d="M318.6,377.82V362.74a4.35,4.35,0,0,0-8.69,0v15.08Z" style="opacity:0.30000000000000004"></path><path d="M331.25,377.82V362.74a4.34,4.34,0,0,0-4.35-4.34h0a4.34,4.34,0,0,0-4.34,4.34v15.08Z" style="opacity:0.30000000000000004"></path><path d="M331.25,377.82V366.37a3.07,3.07,0,0,0-2.77-3.3h0a3.06,3.06,0,0,0-2.76,3.3v11.45Z" style="opacity:0.5"></path><path d="M318.6,377.82V366.37a3.06,3.06,0,0,0-2.76-3.3h0a3.06,3.06,0,0,0-2.76,3.3v11.45Z" style="opacity:0.5"></path><path d="M306,377.82V366.37a3.07,3.07,0,0,0-2.77-3.3h0a3.06,3.06,0,0,0-2.76,3.3v11.45Z" style="opacity:0.5"></path><path d="M177.44,377.82V362.74a4.35,4.35,0,0,0-8.69,0v15.08Z" style="fill:#407BFF"></path><path d="M190.09,377.82V362.74a4.35,4.35,0,0,0-8.69,0v15.08Z" style="fill:#407BFF"></path><path d="M202.73,377.82V362.74a4.34,4.34,0,0,0-4.34-4.34h0a4.34,4.34,0,0,0-4.35,4.34v15.08Z" style="fill:#407BFF"></path><path d="M177.44,377.82V362.74a4.35,4.35,0,0,0-8.69,0v15.08Z" style="opacity:0.30000000000000004"></path><path d="M190.09,377.82V362.74a4.35,4.35,0,0,0-8.69,0v15.08Z" style="opacity:0.30000000000000004"></path><path d="M202.73,377.82V362.74a4.34,4.34,0,0,0-4.34-4.34h0a4.34,4.34,0,0,0-4.35,4.34v15.08Z" style="opacity:0.30000000000000004"></path><path d="M202.73,377.82V366.37a3.06,3.06,0,0,0-2.76-3.3h0a3.06,3.06,0,0,0-2.76,3.3v11.45Z" style="opacity:0.5"></path><path d="M190.09,377.82V366.37a3.06,3.06,0,0,0-2.76-3.3h0a3.07,3.07,0,0,0-2.77,3.3v11.45Z" style="opacity:0.5"></path><path d="M177.44,377.82V366.37a3.06,3.06,0,0,0-2.76-3.3h0a3.06,3.06,0,0,0-2.76,3.3v11.45Z" style="opacity:0.5"></path><polygon points="283.28 251.09 250 215.19 216.7 251.09 216.7 419.02 283.28 419.02 283.28 251.09" style="fill:#407BFF"></polygon><polygon points="283.28 251.09 250 215.19 216.7 251.09 216.7 419.02 283.28 419.02 283.28 251.09" style="fill:#fff;opacity:0.2"></polygon><rect x="216.78" y="261.17" width="11.08" height="5.47" style="opacity:0.30000000000000004"></rect><rect x="223.07" y="366.09" width="11.08" height="5.47" style="opacity:0.30000000000000004"></rect><rect x="216.78" y="372.72" width="11.08" height="5.47" style="fill:#fff;opacity:0.30000000000000004"></rect><rect x="223.07" y="267.87" width="11.08" height="5.47" style="opacity:0.30000000000000004"></rect><rect x="265.91" y="365.44" width="11.08" height="5.47" style="opacity:0.30000000000000004"></rect><rect x="216.7" y="393.03" width="4.8" height="5.47" style="fill:#fff;opacity:0.30000000000000004"></rect><rect x="278.49" y="365.44" width="4.8" height="5.47" style="fill:#fff;opacity:0.30000000000000004"></rect><rect x="272.2" y="372.14" width="11.08" height="5.47" style="opacity:0.30000000000000004"></rect><rect x="265.91" y="261.17" width="11.08" height="5.47" style="opacity:0.30000000000000004"></rect><rect x="278.49" y="261.17" width="4.8" height="5.47" style="fill:#fff;opacity:0.30000000000000004"></rect><rect x="272.2" y="267.87" width="11.08" height="5.47" style="opacity:0.30000000000000004"></rect><rect x="216.48" y="311.85" width="5.54" height="5.47" style="fill:#fff;opacity:0.30000000000000004"></rect><rect x="250" y="317.45" width="5.54" height="5.47" style="fill:#fff;opacity:0.30000000000000004"></rect><rect x="244.54" y="310.89" width="11.08" height="5.47" style="opacity:0.30000000000000004"></rect><rect x="216.78" y="274.5" width="11.08" height="5.47" style="fill:#fff;opacity:0.30000000000000004"></rect><rect x="276.19" y="307.02" width="7.12" height="5.47" style="opacity:0.30000000000000004"></rect><rect x="276.19" y="397.05" width="7.12" height="5.47" style="opacity:0.30000000000000004"></rect><rect x="276.19" y="281.21" width="7.12" height="5.47" style="opacity:0.30000000000000004"></rect><rect x="216.7" y="303.44" width="66.59" height="2.78" style="fill:#407BFF"></rect><rect x="216.7" y="303.44" width="66.59" height="2.78" style="opacity:0.4"></rect><rect x="216.7" y="355.78" width="66.59" height="2.78" style="fill:#407BFF"></rect><rect x="216.7" y="355.78" width="66.59" height="2.78" style="opacity:0.4"></rect><path d="M250,368.11h0A22.85,22.85,0,0,0,227.14,391v28h45.72V391A22.85,22.85,0,0,0,250,368.11Z" style="fill:#fff;opacity:0.5"></path><g style="opacity:0.5"><path d="M255,380.2l1.08.66,5.8-9.42c-.37-.22-.72-.45-1.1-.65Z" style="fill:#fff"></path><rect x="262.01" y="400.03" width="10.86" height="1.28" style="fill:#fff"></rect><path d="M272.83,390.22H262v1.28h10.85V391C272.86,390.72,272.83,390.47,272.83,390.22Z" style="fill:#fff"></path><path d="M251.94,379l1.21.42,3.54-10.31c-.41-.13-.82-.22-1.24-.32Z" style="fill:#fff"></path><path d="M249.35,379h1.28v-10.9l-.63,0h0c-.22,0-.43,0-.65,0Z" style="fill:#fff"></path><rect x="262.01" y="395.13" width="10.86" height="1.28" style="fill:#fff"></rect><path d="M258.6,382.45l8.4-6.73c-.28-.31-.56-.64-.86-.94l-8.33,6.68Z" style="fill:#fff"></path><rect x="262.01" y="409.84" width="10.86" height="1.28" style="fill:#fff"></rect><path d="M270.38,380.65c-.19-.38-.39-.75-.6-1.12l-9.4,4.45.55,1.15Z" style="fill:#fff"></path><rect x="262.01" y="404.94" width="10.86" height="1.28" style="fill:#fff"></rect><path d="M246.83,379.42,248,379l-3.5-10.21c-.42.11-.84.2-1.24.32Z" style="fill:#fff"></path><path d="M272.32,386.07c-.09-.42-.2-.83-.31-1.24L262,387l.27,1.25Z" style="fill:#fff"></path><path d="M239.6,384l-9.38-4.44c-.21.37-.42.74-.61,1.12l9.44,4.47Z" style="fill:#fff"></path><path d="M242.17,381.46l-8.32-6.67c-.3.3-.58.63-.86.94l8.38,6.72Z" style="fill:#fff"></path><rect x="262.01" y="414.75" width="10.86" height="1.28" style="fill:#fff"></rect><path d="M228,384.84c-.11.41-.22.82-.32,1.23l10.09,2.18L238,387Z" style="fill:#fff"></path><path d="M243.93,380.86l1.09-.66-5.78-9.4c-.37.2-.73.43-1.1.65Z" style="fill:#fff"></path><rect x="227.14" y="414.75" width="10.83" height="1.28" style="fill:#fff"></rect><path d="M238,390.22h-10.8c0,.25,0,.5,0,.75v.53H238Z" style="fill:#fff"></path><rect x="227.14" y="409.84" width="10.83" height="1.28" style="fill:#fff"></rect><rect x="227.14" y="404.94" width="10.83" height="1.28" style="fill:#fff"></rect><rect x="227.14" y="395.13" width="10.83" height="1.28" style="fill:#fff"></rect><rect x="227.14" y="400.03" width="10.83" height="1.28" style="fill:#fff"></rect></g><path d="M250,377.46h0a15,15,0,0,0-15,15V419h30V392.45A15,15,0,0,0,250,377.46Z" style="fill:#407BFF"></path><path d="M250,377.46h0a15,15,0,0,0-15,15V419h30V392.45A15,15,0,0,0,250,377.46Z" style="opacity:0.2"></path><g style="opacity:0.2"><path d="M240.22,381.11a13.75,13.75,0,0,0-1.28,1.25v36.1h1.28Z"></path><path d="M250.64,377.49c-.21,0-.42,0-.64,0h0c-.22,0-.42,0-.64,0v41h1.28Z"></path><path d="M245.43,378.18c-.44.14-.86.29-1.28.47v39.81h1.28Z"></path><path d="M259.78,381.11v37.35h1.28v-36.1A15.1,15.1,0,0,0,259.78,381.11Z"></path><path d="M255.85,378.65c-.42-.18-.84-.33-1.28-.47v40.28h1.28Z"></path></g><polygon points="232.66 247.51 247.45 247.51 247.45 230.29 232.66 247.51" style="fill:#407BFF"></polygon><polygon points="267.34 247.51 252.55 247.51 252.55 230.29 267.34 247.51" style="fill:#407BFF"></polygon><g style="opacity:0.2"><polygon points="232.66 247.51 247.45 247.51 247.45 230.29 232.66 247.51"></polygon><polygon points="267.34 247.51 252.55 247.51 252.55 230.29 267.34 247.51"></polygon></g><rect x="207.95" y="295.09" width="84.09" height="8.35" style="fill:#407BFF"></rect><rect x="225.47" y="289.74" width="5.34" height="5.34" style="fill:#407BFF"></rect><rect x="207.95" y="289.74" width="5.34" height="5.34" style="fill:#407BFF"></rect><rect x="216.7" y="289.74" width="5.34" height="5.34" style="fill:#407BFF"></rect><rect x="234.21" y="289.74" width="5.34" height="5.34" style="fill:#407BFF"></rect><rect x="242.96" y="289.74" width="5.34" height="5.34" style="fill:#407BFF"></rect><rect x="251.7" y="289.74" width="5.34" height="5.34" style="fill:#407BFF"></rect><rect x="260.44" y="289.74" width="5.34" height="5.34" style="fill:#407BFF"></rect><rect x="269.19" y="289.74" width="5.34" height="5.34" style="fill:#407BFF"></rect><rect x="277.93" y="289.74" width="5.34" height="5.34" style="fill:#407BFF"></rect><rect x="286.7" y="289.74" width="5.34" height="5.34" style="fill:#407BFF"></rect><rect x="207.95" y="347.43" width="84.09" height="8.35" style="fill:#407BFF"></rect><rect x="225.47" y="342.09" width="5.34" height="5.34" style="fill:#407BFF"></rect><rect x="207.95" y="342.09" width="5.34" height="5.34" style="fill:#407BFF"></rect><rect x="216.7" y="342.09" width="5.34" height="5.34" style="fill:#407BFF"></rect><rect x="234.21" y="342.09" width="5.34" height="5.34" style="fill:#407BFF"></rect><rect x="242.96" y="342.09" width="5.34" height="5.34" style="fill:#407BFF"></rect><rect x="251.7" y="342.09" width="5.34" height="5.34" style="fill:#407BFF"></rect><rect x="260.44" y="342.09" width="5.34" height="5.34" style="fill:#407BFF"></rect><rect x="269.19" y="342.09" width="5.34" height="5.34" style="fill:#407BFF"></rect><rect x="277.93" y="342.09" width="5.34" height="5.34" style="fill:#407BFF"></rect><rect x="286.7" y="342.09" width="5.34" height="5.34" style="fill:#407BFF"></rect><rect x="254.04" y="332.66" width="25.81" height="3.82" style="fill:#407BFF"></rect><rect x="254.04" y="332.66" width="25.81" height="3.82" style="fill:#407BFF"></rect><rect x="254.04" y="332.66" width="25.81" height="3.82" style="opacity:0.1"></rect><path d="M276.63,332.66H257.25V320.59a9.69,9.69,0,0,1,9.69-9.69h0a9.69,9.69,0,0,1,9.69,9.69Z" style="fill:#407BFF"></path><path d="M276.63,332.66H257.25V320.59a9.69,9.69,0,0,1,9.69-9.69h0a9.69,9.69,0,0,1,9.69,9.69Z" style="opacity:0.30000000000000004"></path><path d="M276.63,332.66H263.47V322.13a6.57,6.57,0,0,1,6.58-6.58h0a6.58,6.58,0,0,1,6.58,6.58Z" style="opacity:0.5"></path><rect x="237.09" y="280.81" width="25.81" height="3.82" style="fill:#407BFF"></rect><rect x="237.09" y="280.81" width="25.81" height="3.82" style="fill:#407BFF"></rect><rect x="237.09" y="280.81" width="25.81" height="3.82" style="opacity:0.1"></rect><path d="M259.69,280.81H240.31V268.75a9.69,9.69,0,0,1,9.69-9.69h0a9.69,9.69,0,0,1,9.69,9.69Z" style="fill:#407BFF"></path><path d="M259.69,280.81H240.31V268.75a9.69,9.69,0,0,1,9.69-9.69h0a9.69,9.69,0,0,1,9.69,9.69Z" style="opacity:0.30000000000000004"></path><path d="M259.69,280.81H246.53V270.28a6.58,6.58,0,0,1,6.58-6.58h0a6.59,6.59,0,0,1,6.58,6.58Z" style="opacity:0.5"></path><rect x="220.15" y="332.66" width="25.81" height="3.82" style="fill:#407BFF"></rect><rect x="220.15" y="332.66" width="25.81" height="3.82" style="fill:#407BFF"></rect><rect x="220.15" y="332.66" width="25.81" height="3.82" style="opacity:0.1"></rect><path d="M242.75,332.66H223.37V320.59a9.69,9.69,0,0,1,9.69-9.69h0a9.69,9.69,0,0,1,9.69,9.69Z" style="fill:#407BFF"></path><path d="M242.75,332.66H223.37V320.59a9.69,9.69,0,0,1,9.69-9.69h0a9.69,9.69,0,0,1,9.69,9.69Z" style="opacity:0.30000000000000004"></path><path d="M242.75,332.66H229.59V322.13a6.57,6.57,0,0,1,6.58-6.58h0a6.58,6.58,0,0,1,6.58,6.58Z" style="opacity:0.5"></path><g style="opacity:0.2"><rect x="207.95" y="295.09" width="84.09" height="8.35"></rect><rect x="225.47" y="289.74" width="5.34" height="5.34"></rect><rect x="207.95" y="289.74" width="5.34" height="5.34"></rect><rect x="216.7" y="289.74" width="5.34" height="5.34"></rect><rect x="234.21" y="289.74" width="5.34" height="5.34"></rect><rect x="242.96" y="289.74" width="5.34" height="5.34"></rect><rect x="251.7" y="289.74" width="5.34" height="5.34"></rect><rect x="260.44" y="289.74" width="5.34" height="5.34"></rect><rect x="269.19" y="289.74" width="5.34" height="5.34"></rect><rect x="277.93" y="289.74" width="5.34" height="5.34"></rect><rect x="286.7" y="289.74" width="5.34" height="5.34"></rect></g><g style="opacity:0.2"><rect x="207.95" y="347.43" width="84.09" height="8.35"></rect><rect x="225.47" y="342.09" width="5.34" height="5.34"></rect><rect x="207.95" y="342.09" width="5.34" height="5.34"></rect><rect x="216.7" y="342.09" width="5.34" height="5.34"></rect><rect x="234.21" y="342.09" width="5.34" height="5.34"></rect><rect x="242.96" y="342.09" width="5.34" height="5.34"></rect><rect x="251.7" y="342.09" width="5.34" height="5.34"></rect><rect x="260.44" y="342.09" width="5.34" height="5.34"></rect><rect x="269.19" y="342.09" width="5.34" height="5.34"></rect><rect x="277.93" y="342.09" width="5.34" height="5.34"></rect><rect x="286.7" y="342.09" width="5.34" height="5.34"></rect></g><path d="M250,382.94h0a15.79,15.79,0,0,1,15,10.86v-1.35a15,15,0,0,0-15-15h0a15,15,0,0,0-15,15v1.35A15.79,15.79,0,0,1,250,382.94Z" style="opacity:0.2"></path><rect x="342.97" y="226.14" width="38.4" height="49.39" style="fill:#407BFF"></rect><rect x="342.97" y="226.14" width="38.4" height="49.39" style="fill:#fff;opacity:0.2"></rect><rect x="342.97" y="226.14" width="38.4" height="2.18" style="fill:#407BFF"></rect><rect x="342.97" y="226.14" width="38.4" height="2.18" style="opacity:0.30000000000000004"></rect><rect x="340.64" y="320.18" width="43.06" height="95.01" style="fill:#407BFF"></rect><rect x="340.64" y="320.18" width="43.06" height="95.01" style="fill:#fff;opacity:0.2"></rect><rect x="340.64" y="320.18" width="43.06" height="2.78" style="fill:#407BFF"></rect><rect x="340.64" y="320.18" width="43.06" height="2.78" style="opacity:0.30000000000000004"></rect><polygon points="334.23 301.6 337.86 320.18 386.49 320.18 390.12 301.6 390.12 281.87 334.23 281.87 334.23 301.6" style="fill:#407BFF"></polygon><polygon points="334.23 301.6 337.86 320.18 386.49 320.18 390.12 301.6 390.12 281.87 334.23 281.87 334.23 301.6" style="fill:#fff;opacity:0.2"></polygon><rect x="334.23" y="281.87" width="55.89" height="2.18" style="fill:#407BFF"></rect><rect x="334.23" y="281.87" width="55.89" height="2.18" style="opacity:0.4"></rect><path d="M353.87,315.06V300a4.35,4.35,0,0,0-8.69,0v15.08Z" style="fill:#407BFF"></path><path d="M366.52,315.06V300a4.35,4.35,0,0,0-8.69,0v15.08Z" style="fill:#407BFF"></path><path d="M379.16,315.06V300a4.34,4.34,0,0,0-4.34-4.34h0a4.34,4.34,0,0,0-4.35,4.34v15.08Z" style="fill:#407BFF"></path><path d="M353.87,315.06V300a4.35,4.35,0,0,0-8.69,0v15.08Z" style="opacity:0.30000000000000004"></path><path d="M366.52,315.06V300a4.35,4.35,0,0,0-8.69,0v15.08Z" style="opacity:0.30000000000000004"></path><path d="M379.16,315.06V300a4.34,4.34,0,0,0-4.34-4.34h0a4.34,4.34,0,0,0-4.35,4.34v15.08Z" style="opacity:0.30000000000000004"></path><path d="M379.16,315.06V303.61a3.06,3.06,0,0,0-2.76-3.3h0a3.07,3.07,0,0,0-2.76,3.3v11.45Z" style="opacity:0.5"></path><path d="M366.52,315.06V303.61a3.07,3.07,0,0,0-2.76-3.3h0a3.07,3.07,0,0,0-2.77,3.3v11.45Z" style="opacity:0.5"></path><path d="M353.87,315.06V303.61a3.06,3.06,0,0,0-2.76-3.3h0a3.06,3.06,0,0,0-2.76,3.3v11.45Z" style="opacity:0.5"></path><rect x="349.27" y="261.26" width="25.81" height="3.82" style="fill:#407BFF"></rect><rect x="349.27" y="261.26" width="25.81" height="3.82" style="fill:#407BFF"></rect><rect x="349.27" y="261.26" width="25.81" height="3.82" style="opacity:0.1"></rect><path d="M371.86,261.26H352.48V249.2a9.69,9.69,0,0,1,9.69-9.69h0a9.69,9.69,0,0,1,9.69,9.69Z" style="fill:#407BFF"></path><path d="M371.86,261.26H352.48V249.2a9.69,9.69,0,0,1,9.69-9.69h0a9.69,9.69,0,0,1,9.69,9.69Z" style="opacity:0.30000000000000004"></path><path d="M371.86,261.26H358.7V250.74a6.59,6.59,0,0,1,6.58-6.59h0a6.58,6.58,0,0,1,6.58,6.59Z" style="opacity:0.5"></path><polygon points="347.18 215.08 332.72 226.14 391.63 226.14 377.16 215.08 347.18 215.08" style="fill:#263238"></polygon><polygon points="347.18 215.08 332.72 226.14 391.63 226.14 377.16 215.08 347.18 215.08" style="fill:#fff;opacity:0.2"></polygon><polygon points="377.16 215.08 362.17 192.88 347.18 215.08 377.16 215.08" style="fill:#263238"></polygon><polygon points="362.17 192.88 367.84 215.19 375.09 226.14 391.63 226.14 376.9 214.69 362.17 192.88" style="fill:#fff;opacity:0.2"></polygon><polygon points="390.12 270.19 390.12 275.53 386.69 275.53 386.69 270.19 381.35 270.19 381.35 275.53 377.95 275.53 377.95 270.19 372.61 270.19 372.61 275.53 369.21 275.53 369.21 270.19 363.86 270.19 363.86 275.53 360.46 275.53 360.46 270.19 355.12 270.19 355.12 275.53 351.72 275.53 351.72 270.19 346.37 270.19 346.37 275.53 342.97 275.53 342.97 270.19 337.63 270.19 337.63 275.53 334.23 275.53 334.23 270.19 328.88 270.19 328.88 275.53 328.88 281.87 395.46 281.87 395.46 275.53 395.46 270.19 390.12 270.19" style="fill:#407BFF"></polygon><polygon points="390.12 270.19 390.12 275.53 386.69 275.53 386.69 270.19 381.35 270.19 381.35 275.53 377.95 275.53 377.95 270.19 372.61 270.19 372.61 275.53 369.21 275.53 369.21 270.19 363.86 270.19 363.86 275.53 360.46 275.53 360.46 270.19 355.12 270.19 355.12 275.53 351.72 275.53 351.72 270.19 346.37 270.19 346.37 275.53 342.97 275.53 342.97 270.19 337.63 270.19 337.63 275.53 334.23 275.53 334.23 270.19 328.88 270.19 328.88 275.53 328.88 281.87 395.46 281.87 395.46 275.53 395.46 270.19 390.12 270.19" style="opacity:0.30000000000000004"></polygon><rect x="353.87" y="341.62" width="11.08" height="5.47" style="opacity:0.30000000000000004"></rect><rect x="366.45" y="341.62" width="11.08" height="5.47" style="fill:#fff;opacity:0.30000000000000004"></rect><rect x="360.16" y="348.32" width="11.08" height="5.47" style="opacity:0.30000000000000004"></rect><rect x="350.34" y="380.49" width="11.08" height="5.47" style="fill:#fff;opacity:0.30000000000000004"></rect><rect x="356.63" y="387.19" width="11.08" height="5.47" style="opacity:0.30000000000000004"></rect><rect x="343.99" y="403.4" width="11.08" height="5.47" style="opacity:0.30000000000000004"></rect><rect x="344.8" y="326.27" width="11.08" height="5.47" style="fill:#fff;opacity:0.30000000000000004"></rect><rect x="337.43" y="286.21" width="11.08" height="5.47" style="opacity:0.30000000000000004"></rect><rect x="381.94" y="289.72" width="6.68" height="5.47" style="fill:#fff;opacity:0.30000000000000004"></rect><rect x="345.18" y="230.66" width="6.68" height="5.47" style="fill:#fff;opacity:0.30000000000000004"></rect><rect x="374.82" y="361.66" width="7.12" height="5.47" style="opacity:0.30000000000000004"></rect><rect x="368.61" y="233.39" width="10.38" height="5.47" style="opacity:0.30000000000000004"></rect><rect x="118.63" y="226.14" width="38.4" height="49.39" style="fill:#407BFF"></rect><rect x="118.63" y="226.14" width="38.4" height="49.39" style="fill:#fff;opacity:0.2"></rect><rect x="118.63" y="226.14" width="38.4" height="2.18" style="fill:#407BFF"></rect><rect x="118.63" y="226.14" width="38.4" height="2.18" style="opacity:0.30000000000000004"></rect><rect x="116.3" y="320.18" width="43.06" height="95.01" style="fill:#407BFF"></rect><rect x="116.3" y="320.18" width="43.06" height="95.01" style="fill:#fff;opacity:0.2"></rect><rect x="116.3" y="320.18" width="43.06" height="2.78" style="fill:#407BFF"></rect><rect x="116.3" y="320.18" width="43.06" height="2.78" style="opacity:0.30000000000000004"></rect><polygon points="109.88 301.6 113.51 320.18 162.14 320.18 165.77 301.6 165.77 281.87 109.88 281.87 109.88 301.6" style="fill:#407BFF"></polygon><polygon points="109.88 301.6 113.51 320.18 162.14 320.18 165.77 301.6 165.77 281.87 109.88 281.87 109.88 301.6" style="fill:#fff;opacity:0.2"></polygon><rect x="109.88" y="281.87" width="55.89" height="2.18" style="fill:#407BFF"></rect><rect x="109.88" y="281.87" width="55.89" height="2.18" style="opacity:0.4"></rect><path d="M129.53,315.06V300a4.35,4.35,0,0,0-8.69,0v15.08Z" style="fill:#407BFF"></path><path d="M142.17,315.06V300a4.35,4.35,0,0,0-8.69,0v15.08Z" style="fill:#407BFF"></path><path d="M154.82,315.06V300a4.34,4.34,0,0,0-4.35-4.34h0a4.34,4.34,0,0,0-4.34,4.34v15.08Z" style="fill:#407BFF"></path><path d="M129.53,315.06V300a4.35,4.35,0,0,0-8.69,0v15.08Z" style="opacity:0.30000000000000004"></path><path d="M142.17,315.06V300a4.35,4.35,0,0,0-8.69,0v15.08Z" style="opacity:0.30000000000000004"></path><path d="M154.82,315.06V300a4.34,4.34,0,0,0-4.35-4.34h0a4.34,4.34,0,0,0-4.34,4.34v15.08Z" style="opacity:0.30000000000000004"></path><path d="M154.82,315.06V303.61a3.07,3.07,0,0,0-2.77-3.3h0a3.07,3.07,0,0,0-2.76,3.3v11.45Z" style="opacity:0.5"></path><path d="M142.17,315.06V303.61a3.06,3.06,0,0,0-2.76-3.3h0a3.06,3.06,0,0,0-2.76,3.3v11.45Z" style="opacity:0.5"></path><path d="M129.53,315.06V303.61a3.07,3.07,0,0,0-2.77-3.3h0a3.07,3.07,0,0,0-2.76,3.3v11.45Z" style="opacity:0.5"></path><rect x="124.92" y="261.26" width="25.81" height="3.82" style="fill:#407BFF"></rect><rect x="124.92" y="261.26" width="25.81" height="3.82" style="fill:#407BFF"></rect><rect x="124.92" y="261.26" width="25.81" height="3.82" style="opacity:0.1"></rect><path d="M147.52,261.26H128.14V249.2a9.69,9.69,0,0,1,9.69-9.69h0a9.69,9.69,0,0,1,9.69,9.69Z" style="fill:#407BFF"></path><path d="M147.52,261.26H128.14V249.2a9.69,9.69,0,0,1,9.69-9.69h0a9.69,9.69,0,0,1,9.69,9.69Z" style="opacity:0.30000000000000004"></path><path d="M147.52,261.26H134.35V250.74a6.59,6.59,0,0,1,6.59-6.59h0a6.59,6.59,0,0,1,6.58,6.59Z" style="opacity:0.5"></path><polygon points="122.84 215.08 108.37 226.14 167.28 226.14 152.82 215.08 122.84 215.08" style="fill:#263238"></polygon><polygon points="122.84 215.08 108.37 226.14 167.28 226.14 152.82 215.08 122.84 215.08" style="fill:#fff;opacity:0.2"></polygon><polygon points="152.82 215.08 137.83 192.88 122.84 215.08 152.82 215.08" style="fill:#263238"></polygon><polygon points="137.83 192.88 143.49 215.19 150.75 226.14 167.28 226.14 152.55 214.69 137.83 192.88" style="fill:#fff;opacity:0.2"></polygon><polygon points="165.77 270.19 165.77 275.53 162.35 275.53 162.35 270.19 157 270.19 157 275.53 153.6 275.53 153.6 270.19 148.26 270.19 148.26 275.53 144.86 275.53 144.86 270.19 139.51 270.19 139.51 275.53 136.11 275.53 136.11 270.19 130.77 270.19 130.77 275.53 127.37 275.53 127.37 270.19 122.03 270.19 122.03 275.53 118.63 275.53 118.63 270.19 113.28 270.19 113.28 275.53 109.88 275.53 109.88 270.19 104.54 270.19 104.54 275.53 104.54 281.87 171.12 281.87 171.12 275.53 171.12 270.19 165.77 270.19" style="fill:#407BFF"></polygon><polygon points="165.77 270.19 165.77 275.53 162.35 275.53 162.35 270.19 157 270.19 157 275.53 153.6 275.53 153.6 270.19 148.26 270.19 148.26 275.53 144.86 275.53 144.86 270.19 139.51 270.19 139.51 275.53 136.11 275.53 136.11 270.19 130.77 270.19 130.77 275.53 127.37 275.53 127.37 270.19 122.03 270.19 122.03 275.53 118.63 275.53 118.63 270.19 113.28 270.19 113.28 275.53 109.88 275.53 109.88 270.19 104.54 270.19 104.54 275.53 104.54 281.87 171.12 281.87 171.12 275.53 171.12 270.19 165.77 270.19" style="opacity:0.30000000000000004"></polygon><rect x="136.62" y="388.05" width="11.08" height="5.47" transform="translate(284.33 781.56) rotate(180)" style="opacity:0.30000000000000004"></rect><rect x="124.05" y="388.05" width="11.08" height="5.47" transform="translate(259.18 781.56) rotate(180)" style="fill:#fff;opacity:0.30000000000000004"></rect><rect x="130.34" y="381.35" width="11.08" height="5.47" transform="translate(271.75 768.16) rotate(180)" style="opacity:0.30000000000000004"></rect><rect x="132.28" y="349.18" width="11.08" height="5.47" transform="translate(275.65 703.82) rotate(180)" style="fill:#fff;opacity:0.30000000000000004"></rect><rect x="140.15" y="342.48" width="11.08" height="5.47" transform="translate(291.39 690.43) rotate(180)" style="opacity:0.30000000000000004"></rect><rect x="124.79" y="326.27" width="11.08" height="5.47" transform="translate(260.67 658.02) rotate(180)" style="opacity:0.30000000000000004"></rect><rect x="138.31" y="403.4" width="11.08" height="5.47" transform="translate(287.71 812.26) rotate(180)" style="fill:#fff;opacity:0.30000000000000004"></rect><rect x="123.98" y="286.95" width="11.08" height="5.47" style="opacity:0.30000000000000004"></rect><rect x="156.86" y="289.72" width="6.68" height="5.47" style="fill:#fff;opacity:0.30000000000000004"></rect><rect x="114.16" y="289.72" width="6.68" height="5.47" style="fill:#fff;opacity:0.30000000000000004"></rect><rect x="147.39" y="233.95" width="6.68" height="5.47" style="fill:#fff;opacity:0.30000000000000004"></rect><rect x="119.64" y="368.01" width="7.12" height="5.47" transform="translate(246.4 741.49) rotate(180)" style="opacity:0.30000000000000004"></rect><rect x="121.93" y="230.66" width="10.38" height="5.47" style="opacity:0.30000000000000004"></rect></g></svg>
